<?xml version="1.0" encoding="UTF-8"?>
<svg id="Layer_1" data-name="Layer 1" xmlns="http://www.w3.org/2000/svg" viewBox="0 0 501.24 237.9">
  <defs>
    <style>
      .cls-1 {
        fill: #fff;
      }

      .cls-2 {
        fill: none;
        stroke: #e1c779;
        stroke-miterlimit: 10;
      }
    </style>
  </defs>
  <path class="cls-2" d="M442.55,159.95c-6.38,1.28-11.59-2.16-15.59-6.66-5.93-6.68-9.88-6.83-18.35-7.46-10.98-.82-22.39.2-32.74-3.89-5.96-2.36-12.22-3.88-18.32-5.77-5.55-1.72-9.69-4.21-15.72-3.69-7.27.64-13.67,4.23-21.17,4.23-5.67,0-12.77,1.63-18.28.31-3.86-.93-7.15-4.14-11.2-4.57-6.08-.65-12.82,1.14-19.03,1.09-7-.05-15.58-2.03-22.32.28-5.52,1.88-13.64,5.96-19.68,4.21-2.57-.74-5.16-3.54-7.26-5.02-2.98-2.12-5.04-2.6-8.64-2.64-5.13-.06-9.66,1.24-14.57,2.22-7,1.4-15.39,1.81-22.64.95-3.3-.39-8.3-1.24-10.9-3.61-1.27-1.15-1.69-3.6-3.1-4.73-5.11-4.08-14.14,5.13-17.49,8.7-3.37,3.6-7.23,5.25-11.06,8.21-3.13,2.41-5.25,6.1-7.48,9.08-4.23,5.64-10.53,12.09-6.29,17.48,3.32,4.22,1.15,9.94-1.06,11.05-2.17,1.09-10.82-1.87-12.76-2.63-3.42-1.35-4.32-5.15-6.73-7.89-2.49-2.82-5.77-4.01-8.45-6.87-1.97-2.1-4.43-6.52-5.12-9.2-.93-3.62.38-7.62-.55-11.15-.5-1.89-2.42-5.17-4.5-5.21-1.35-.03-2.99,1.81-4.31,2.09-3.3.7-7.24-.34-10.6-.02-4.05.38-5.9,1.65-8.99,4.49-4.28,3.95-8.02,3.7-13.73,4.89-5.22,1.09-9.87,3.07-15.55,2.27-3.91-.55-7.35-1.91-11.54-1.79-3.68.1-7.38.98-11.09,1.07-7.7.19-13.56-3.2-20.81-4.16-8.9-1.17-17.43-.13-26.31-1.8-6.41-1.21-13.95-1.36-20.2.04-9.06,2.03-17.71,7.33-26.99,7.69-9.79.37-21.98,1.5-31.73,0-3.58-.55-6.92-1.7-10.76-1.76-6.76-.11-13.44,1.38-20.15,1.78-3.2.19-6.45-.2-9.64.06-4.73.4-9,2.54-13.57,3.25-6.39.99-13.24-2.65-19.81-2.27-4.54.27-8.81,1.72-13.46,1.77-4.05.04-4.74.05-7.57,2.64-3.32,3.04-5.82,6.63-9.64,8.38-2.28,1.04-4.84,1.96-7.3,2.39-6.49,1.13-12.4,4.1-18.53,5.66-4.72,1.2-10.02,1.14-14.87,1.92-3.14.5-6.07.54-9.25.54-5.97,0-11.62-.38-17.3-1.03-2.55-.29-4.38.71-6.65,1.03-4.49.64-8.6-.68-12.88-1.33-5.18-.79-10.73.27-15.97.27s-10.09-.79-15.15-1.06c-2.33-.12-5.01-.26-7.33,0-2.61.3-4.63,1.68-7.2,2.13-5.53.96-11.37-.1-16.89.89-3.07.55-6.13.27-9.11,1.23-2.34.76-4.46,2.35-6.76,3.18-4.9,1.75-10.74-1.62-16.05-1.77-4.42-.13-9.6.74-13.74-.35-1.03-.27-2.5-.78-3.97-1.33v.02c-1.47.55-2.95,1.06-3.97,1.33-4.14,1.09-9.32.22-13.74.35-5.32.15-11.15,3.53-16.05,1.77-2.3-.82-4.42-2.42-6.76-3.18-2.98-.96-6.04-.68-9.11-1.23-5.52-.99-11.36.07-16.89-.89-2.56-.44-4.59-1.83-7.2-2.13-2.32-.26-4.99-.12-7.33,0-5.06.27-9.91,1.06-15.15,1.06s-10.79-1.06-15.97-.27c-4.28.65-8.39,1.97-12.88,1.33-2.27-.32-4.1-1.32-6.65-1.03-5.69.65-11.34,1.03-17.3,1.03-3.18,0-6.11-.04-9.25-.54-4.85-.78-10.15-.73-14.87-1.92-6.13-1.56-12.04-4.53-18.53-5.66-2.46-.43-5.03-1.35-7.3-2.39-3.82-1.75-6.32-5.34-9.64-8.38-2.83-2.59-3.52-2.6-7.57-2.64-4.65-.04-8.93-1.5-13.46-1.77-6.58-.39-13.43,3.26-19.81,2.27-4.57-.71-8.84-2.85-13.57-3.25-3.19-.27-6.44.13-9.64-.06-6.71-.4-13.39-1.89-20.15-1.78-3.84.06-7.19,1.21-10.76,1.76-9.74,1.5-21.94.37-31.73,0-9.27-.36-17.93-5.66-26.99-7.69-6.25-1.4-13.79-1.25-20.2-.04-8.88,1.68-17.41.63-26.31,1.8-7.25.95-13.1,4.35-20.81,4.16-3.71-.09-7.41-.97-11.09-1.07-4.19-.12-7.63,1.24-11.54,1.79-5.68.8-10.33-1.18-15.55-2.27-5.71-1.19-9.45-.94-13.73-4.89-3.09-2.85-4.94-4.11-8.99-4.49-3.36-.32-7.3.72-10.6.02-1.31-.28-2.96-2.11-4.31-2.09-2.08.04-44.93-15.73-84.62-6.84-3.43.77-7.6,3.22-10.9,3.61-7.25.85-15.63.44-22.64-.95-4.92-.98-9.44-2.27-14.57-2.22-3.6.04-5.66.53-8.64,2.64-2.09,1.49-4.69,4.28-7.26,5.02-6.04,1.75-14.17-2.32-19.68-4.21-6.75-2.31-15.32-.32-22.32-.28-6.21.04-12.95-1.74-19.03-1.09-4.05.43-7.34,3.65-11.2,4.57-5.5,1.32-12.6-.31-18.28-.31-7.5,0-13.91-3.59-21.17-4.23-6.03-.53-10.16,1.96-15.72,3.69-6.1,1.89-12.36,3.41-18.32,5.77-10.34,4.09-21.76,3.07-32.74,3.89-8.47.63-12.42.78-18.35,7.46-4,4.51-9.21,7.94-15.59,6.66-5.49-1.1-10.47-4.05-16.11-4.54-3.88-.33-7.9-.22-11.78-.35-9.05-.32-17.68,2.11-26.78,2.12-5.7,0-9.84.18-15.18,2.41-4.38,1.83-8.63,4.71-13.46,4.94-11.1.53-22.61-1.4-33.73-.3-9.08.89-17.64,5.98-26.27,8.64-.25.08-.5.17-.75.26"/>
  <g>
    <path class="cls-1" d="M84.2,101.93c.23-.06.44-.16.62-.28s.35-.28.48-.47c.14-.19.25-.38.34-.56s.17-.43.23-.72c.06-.29.11-.54.14-.73.03-.2.05-.46.06-.8.01-.33.02-.58.02-.75v-1.37s0-.47.02-1.28c.01-.81.03-1.69.05-2.64.02-.95.03-2.04.02-3.28-.01-1.24-.03-2.37-.06-3.39-.03-1.02-.09-1.95-.19-2.78-.09-.83-.21-1.37-.36-1.62-.29-.5-.75-.85-1.37-1.06h5.96c.94,0,1.83.05,2.69.16.85.1,1.79.3,2.81.59,1.02.29,1.84.78,2.45,1.47.61.69.92,1.53.92,2.53,0,3.06-2.58,4.98-7.74,5.75.77.04,1.4.08,1.89.12.49.04,1.13.12,1.92.23.79.12,1.44.29,1.94.53.5.24,1.01.54,1.53.91.52.36.91.84,1.17,1.44.26.59.39,1.28.39,2.05,0,1.19-.29,2.2-.86,3.03-.57.83-1.34,1.46-2.31,1.87-.97.42-1.95.71-2.94.87-.99.17-2.05.25-3.17.25-.4,0-.91-.02-1.53-.06h-5.12ZM88.07,90.59c.83,0,1.59-.03,2.26-.08.68-.05,1.43-.19,2.26-.42.83-.23,1.52-.53,2.08-.91.55-.38,1.02-.91,1.41-1.61.38-.7.58-1.52.58-2.48,0-.73-.13-1.36-.39-1.91-.26-.54-.64-.97-1.14-1.3-.5-.32-.99-.58-1.48-.78-.49-.2-1.11-.34-1.87-.42-.76-.08-1.37-.13-1.84-.16-.47-.02-1.07-.03-1.8-.03,0,.04-.01,1.28-.03,3.72-.02,2.44-.03,4.56-.03,6.37ZM97.5,96.09c0-.94-.17-1.74-.52-2.4-.34-.67-.75-1.18-1.23-1.53-.48-.35-1.11-.63-1.9-.83-.79-.2-1.5-.32-2.14-.36-.64-.04-1.41-.06-2.33-.06h-1.31c.04,5.46.15,8.5.31,9.15.1.42.24.74.42.97.18.23.43.44.77.62.08,0,.21,0,.39.02.18.01.31.02.39.02,2.02,0,3.72-.45,5.09-1.36,1.37-.91,2.06-2.32,2.06-4.23Z"/>
    <path class="cls-1" d="M101.75,101.93c.42-.08.8-.26,1.16-.53.6-.48.91-2.61.91-6.4v-8.9c0-3.08-.3-4.88-.91-5.4-.29-.23-.64-.39-1.03-.5h14.43v3.25h-.19c-.31-1.06-1-1.79-2.06-2.19-1.31-.5-4.11-.75-8.4-.75v11.37h3.65c1.29,0,2.17-.17,2.62-.52s.75-1.18.87-2.51h.16v6.28h-.16c-.06-1.37-.42-2.21-1.08-2.51s-2.02-.45-4.11-.45h-1.97v5.59c0,2.52.63,3.8,1.9,3.84.37.02,1.01.03,1.9.03,4.83,0,7.44-1.03,7.84-3.09h.22v3.4h-15.77Z"/>
    <path class="cls-1" d="M119.17,101.9c.35-.1.7-.34,1.05-.72.34-.38.62-.74.84-1.11.22-.36.47-.91.77-1.62.29-.72.5-1.24.62-1.56.12-.32.31-.87.56-1.64l5.31-15.05h1.94l5.65,15.05c.1.23.35.87.75,1.92.4,1.05.79,1.96,1.17,2.72.38.76.75,1.3,1.11,1.61.21.19.55.33,1.03.44l-6.28.06c.62-.02,1.08-.17,1.37-.45.29-.28.41-.7.34-1.25-.06-.55-.16-1.05-.3-1.5-.14-.45-.34-1.02-.62-1.73-.28-.71-.46-1.18-.55-1.41l-.62-1.66c-.92.77-2.35,1.16-4.31,1.16-.15,0-.35,0-.62-.02-.27,0-.48-.02-.62-.02-2.12,0-3.65.48-4.59,1.44l-.84,2.69c-.21.77-.24,1.37-.11,1.81.13.44.39.72.76.84h-3.81ZM123.35,95.87c.6-.5,1.37-.83,2.29-.98.93-.16,1.8-.2,2.61-.14.81.06,1.68.01,2.61-.16.93-.17,1.69-.51,2.3-1.03l-4.62-12.43-5.18,14.74Z"/>
    <path class="cls-1" d="M159.7,88.13h-.19c-.02-1.27-.32-2.43-.91-3.47-.58-1.04-1.32-1.88-2.22-2.51-.9-.63-1.86-1.12-2.89-1.45-1.03-.33-2.05-.5-3.04-.5-1.54,0-2.88.31-4.03.92-1.15.61-2.04,1.45-2.69,2.5-.65,1.05-1.12,2.19-1.44,3.42-.31,1.23-.47,2.55-.47,3.97s.15,2.74.45,3.97c.3,1.23.77,2.37,1.39,3.42s1.49,1.88,2.59,2.48,2.39.91,3.87.91c2.29,0,4.38-.76,6.28-2.29,1.89-1.53,3.05-3.41,3.47-5.64l.34.12c-.35,2.1-1.46,4-3.31,5.7-1.85,1.7-3.93,2.55-6.25,2.58-3.43.04-6.18-.98-8.24-3.06-2.06-2.08-3.09-4.79-3.09-8.12s1.01-5.96,3.04-8.03c2.03-2.06,4.72-3.11,8.07-3.15,1.87,0,3.5.23,4.87.7,1.37.47,2.83,1.28,4.37,2.42v5.12Z"/>
    <path class="cls-1" d="M162.79,80.69c-.27-.23-.61-.39-1.03-.5h5.75c-.5.12-.84.29-1.03.5-.44.31-.72,1.37-.84,3.19-.04.87-.06,1.95-.06,3.22v6.59c.65-.6,1.45-1.03,2.42-1.28.97-.25,1.95-.38,2.94-.41s1.98-.05,2.97-.08,1.95-.2,2.87-.5,1.68-.8,2.26-1.48v-2.84c0-3.25-.18-5.2-.53-5.87-.08-.25-.29-.5-.62-.75-.19-.12-.4-.22-.62-.28h5.4c-.19.06-.37.17-.56.31-.29.17-.5.42-.62.75-.23.44-.39,1.41-.47,2.9-.04.77-.06,1.75-.06,2.93v7.9c0,3.23.19,5.17.56,5.84.1.35.31.61.62.78.1.1.31.21.62.31h-5.59c.71-.21,1.17-.57,1.37-1.09.23-.44.39-1.41.47-2.9.02-.77.03-1.75.03-2.94v-4.5c-.73.79-1.73,1.32-3.01,1.58-1.28.26-2.51.36-3.68.3-1.18-.06-2.41.04-3.7.3-1.29.26-2.31.79-3.06,1.58v1.75c0,3.1.3,4.9.91,5.4.19.23.57.41,1.16.53h-5.81c.29-.08.5-.19.62-.31.33-.23.56-.49.69-.78.25-.42.4-1.38.44-2.9.02-.77.03-1.75.03-2.94v-8.9c0-3.14-.27-4.94-.81-5.4Z"/>
    <path class="cls-1" d="M212.57,88.13h-.19c-.02-1.27-.32-2.43-.91-3.47-.58-1.04-1.32-1.88-2.22-2.51-.9-.63-1.86-1.12-2.89-1.45-1.03-.33-2.05-.5-3.04-.5-1.54,0-2.88.31-4.03.92-1.15.61-2.04,1.45-2.69,2.5-.65,1.05-1.12,2.19-1.44,3.42-.31,1.23-.47,2.55-.47,3.97s.15,2.74.45,3.97c.3,1.23.77,2.37,1.39,3.42s1.49,1.88,2.59,2.48,2.39.91,3.87.91c2.29,0,4.38-.76,6.28-2.29,1.89-1.53,3.05-3.41,3.47-5.64l.34.12c-.35,2.1-1.46,4-3.31,5.7-1.85,1.7-3.93,2.55-6.25,2.58-3.43.04-6.18-.98-8.24-3.06-2.06-2.08-3.09-4.79-3.09-8.12s1.01-5.96,3.04-8.03c2.03-2.06,4.72-3.11,8.07-3.15,1.87,0,3.5.23,4.87.7,1.37.47,2.83,1.28,4.37,2.42v5.12Z"/>
    <path class="cls-1" d="M229.4,101.93h-14.77c.67-.19,1.1-.55,1.31-1.09.1-.17.19-.42.25-.75.06-.33.11-.68.14-1.05s.06-.79.08-1.26c.02-.48.03-.87.03-1.19s0-.64-.02-1c-.01-.35-.02-.55-.02-.59v-7.9c0-3.29-.16-5.25-.47-5.87-.25-.54-.64-.88-1.16-1.03h5.53c-.46.12-.81.29-1.06.5-.44.35-.7,1.42-.78,3.19-.06.9-.09,1.97-.09,3.22v10.68c.04.94.1,1.71.19,2.31.23.98.71,1.49,1.44,1.53.48.02,1.14.03,2,.03,1.71,0,3.15-.13,4.34-.41,1.48-.5,2.41-1.35,2.81-2.56h.25v3.25Z"/>
    <path class="cls-1" d="M236.93,80.2c-.27.08-.49.2-.66.34-.31.19-.52.43-.62.72-.21.38-.35,1.35-.44,2.94-.02.77-.03,1.74-.03,2.9v6.75c0,2.46.56,4.4,1.69,5.84,1.12,1.44,2.89,2.15,5.31,2.15s4.37-.78,5.6-2.33c1.24-1.55,1.86-3.58,1.86-6.07v-7.06c0-1.14-.04-2.03-.12-2.65-.06-.5-.11-.88-.16-1.16-.04-.27-.14-.6-.28-.98-.15-.39-.35-.69-.61-.92-.26-.23-.6-.38-1.02-.47h4.9c-.35.08-.64.2-.84.34-.92.54-1.37,2.49-1.37,5.84v7c0,2.73-.7,4.89-2.09,6.48-1.4,1.59-3.46,2.39-6.18,2.39-5.75,0-8.62-2.85-8.62-8.56v-7.59c0-3.06-.29-4.85-.87-5.37-.27-.21-.66-.38-1.16-.53h5.71Z"/>
    <path class="cls-1" d="M253.44,101.93c.23-.06.44-.16.62-.28s.35-.28.48-.47c.14-.19.25-.38.34-.56s.17-.43.23-.72c.06-.29.11-.54.14-.73.03-.2.05-.46.06-.8.01-.33.02-.58.02-.75v-1.37s0-.47.02-1.28c.01-.81.03-1.69.05-2.64.02-.95.03-2.04.02-3.28-.01-1.24-.03-2.37-.06-3.39-.03-1.02-.09-1.95-.19-2.78-.09-.83-.21-1.37-.36-1.62-.29-.5-.75-.85-1.37-1.06h5.96c.94,0,1.83.05,2.69.16.85.1,1.79.3,2.81.59,1.02.29,1.84.78,2.45,1.47.61.69.92,1.53.92,2.53,0,3.06-2.58,4.98-7.74,5.75.77.04,1.4.08,1.89.12.49.04,1.13.12,1.92.23.79.12,1.44.29,1.94.53.5.24,1.01.54,1.53.91.52.36.91.84,1.17,1.44.26.59.39,1.28.39,2.05,0,1.19-.29,2.2-.86,3.03-.57.83-1.34,1.46-2.31,1.87-.97.42-1.95.71-2.94.87-.99.17-2.05.25-3.17.25-.4,0-.91-.02-1.53-.06h-5.12ZM257.32,90.59c.83,0,1.59-.03,2.26-.08.68-.05,1.43-.19,2.26-.42.83-.23,1.52-.53,2.08-.91.55-.38,1.02-.91,1.41-1.61.38-.7.58-1.52.58-2.48,0-.73-.13-1.36-.39-1.91-.26-.54-.64-.97-1.14-1.3-.5-.32-.99-.58-1.48-.78-.49-.2-1.11-.34-1.87-.42-.76-.08-1.37-.13-1.84-.16-.47-.02-1.07-.03-1.8-.03,0,.04-.01,1.28-.03,3.72-.02,2.44-.03,4.56-.03,6.37ZM266.75,96.09c0-.94-.17-1.74-.52-2.4-.34-.67-.75-1.18-1.23-1.53-.48-.35-1.11-.63-1.9-.83-.79-.2-1.5-.32-2.14-.36-.64-.04-1.41-.06-2.33-.06h-1.31c.04,5.46.15,8.5.31,9.15.1.42.24.74.42.97.18.23.43.44.77.62.08,0,.21,0,.39.02.18.01.31.02.39.02,2.02,0,3.72-.45,5.09-1.36,1.37-.91,2.06-2.32,2.06-4.23Z"/>
    <path class="cls-1" d="M280.36,81.16c-.42-.5-.93-.82-1.53-.97h5.53c-.62.19-.94.55-.94,1.09,0,.71.21,1.69.62,2.94.02.06.17.43.44,1.09.35.92.57,1.49.66,1.72l5.21,13.96,4.96-13.96c.02-.08.07-.24.14-.47.07-.23.13-.4.17-.5.73-2.12,1.09-3.52,1.09-4.18,0-.81-.28-1.34-.84-1.59l-.06-.03s-.05-.01-.09-.03c-.04-.02-.08-.03-.12-.03h4.5s-.06.03-.12.03h.03c-.98.27-1.86,1.23-2.65,2.87-.29.54-.68,1.49-1.16,2.84l-.34.91-5.4,15.11h-1.81l-5.65-15.11c-1.12-3.04-2-4.93-2.62-5.68Z"/>
    <path class="cls-1" d="M306.84,80.2c-.5.12-.83.29-1,.5-.44.33-.72,1.4-.84,3.19-.04.87-.06,1.95-.06,3.22v8.9c0,3.06.3,4.86.91,5.4.19.23.57.41,1.16.53h-5.81c.29-.08.5-.19.62-.31.31-.15.54-.41.69-.78.25-.42.4-1.38.44-2.9.02-.77.03-1.75.03-2.94v-8.9c0-3.14-.27-4.94-.81-5.4-.27-.23-.61-.39-1.03-.5h5.71Z"/>
    <path class="cls-1" d="M323.95,101.93h-14.77c.67-.19,1.1-.55,1.31-1.09.1-.17.19-.42.25-.75.06-.33.11-.68.14-1.05s.06-.79.08-1.26c.02-.48.03-.87.03-1.19s0-.64-.02-1c-.01-.35-.02-.55-.02-.59v-7.9c0-3.29-.16-5.25-.47-5.87-.25-.54-.64-.88-1.16-1.03h5.53c-.46.12-.81.29-1.06.5-.44.35-.7,1.42-.78,3.19-.06.9-.09,1.97-.09,3.22v10.68c.04.94.1,1.71.19,2.31.23.98.71,1.49,1.44,1.53.48.02,1.14.03,2,.03,1.71,0,3.15-.13,4.34-.41,1.48-.5,2.41-1.35,2.81-2.56h.25v3.25Z"/>
    <path class="cls-1" d="M340.69,101.93h-14.77c.67-.19,1.1-.55,1.31-1.09.1-.17.19-.42.25-.75.06-.33.11-.68.14-1.05s.06-.79.08-1.26c.02-.48.03-.87.03-1.19s0-.64-.02-1c-.01-.35-.02-.55-.02-.59v-7.9c0-3.29-.16-5.25-.47-5.87-.25-.54-.64-.88-1.16-1.03h5.53c-.46.12-.81.29-1.06.5-.44.35-.7,1.42-.78,3.19-.06.9-.09,1.97-.09,3.22v10.68c.04.94.1,1.71.19,2.31.23.98.71,1.49,1.44,1.53.48.02,1.14.03,2,.03,1.71,0,3.15-.13,4.34-.41,1.48-.5,2.41-1.35,2.81-2.56h.25v3.25Z"/>
    <path class="cls-1" d="M341.91,101.9c.35-.1.7-.34,1.05-.72.34-.38.62-.74.84-1.11.22-.36.47-.91.77-1.62.29-.72.5-1.24.62-1.56.12-.32.31-.87.56-1.64l5.31-15.05h1.94l5.65,15.05c.1.23.35.87.75,1.92.4,1.05.79,1.96,1.17,2.72.38.76.75,1.3,1.11,1.61.21.19.55.33,1.03.44l-6.28.06c.62-.02,1.08-.17,1.37-.45.29-.28.41-.7.34-1.25-.06-.55-.16-1.05-.3-1.5-.14-.45-.34-1.02-.62-1.73-.28-.71-.46-1.18-.55-1.41l-.62-1.66c-.92.77-2.35,1.16-4.31,1.16-.15,0-.35,0-.62-.02-.27,0-.48-.02-.62-.02-2.12,0-3.65.48-4.59,1.44l-.84,2.69c-.21.77-.24,1.37-.11,1.81.13.44.39.72.76.84h-3.81ZM346.09,95.87c.6-.5,1.37-.83,2.29-.98.93-.16,1.8-.2,2.61-.14.81.06,1.68.01,2.61-.16.93-.17,1.69-.51,2.3-1.03l-4.62-12.43-5.18,14.74Z"/>
    <path class="cls-1" d="M360.64,81.16c-.42-.5-.93-.82-1.53-.97h5.53c-.62.19-.94.55-.94,1.09,0,.71.21,1.69.62,2.94.02.06.17.43.44,1.09.35.92.57,1.49.66,1.72l5.21,13.96,4.96-13.96c.02-.08.07-.24.14-.47.07-.23.13-.4.17-.5.73-2.12,1.09-3.52,1.09-4.18,0-.81-.28-1.34-.84-1.59l-.06-.03s-.05-.01-.09-.03c-.04-.02-.08-.03-.12-.03h4.5s-.06.03-.12.03h.03c-.98.27-1.86,1.23-2.65,2.87-.29.54-.68,1.49-1.16,2.84l-.34.91-5.4,15.11h-1.81l-5.65-15.11c-1.12-3.04-2-4.93-2.62-5.68Z"/>
    <path class="cls-1" d="M387.12,80.2c-.5.12-.83.29-1,.5-.44.33-.72,1.4-.84,3.19-.04.87-.06,1.95-.06,3.22v8.9c0,3.06.3,4.86.91,5.4.19.23.57.41,1.16.53h-5.81c.29-.08.5-.19.62-.31.31-.15.54-.41.69-.78.25-.42.4-1.38.44-2.9.02-.77.03-1.75.03-2.94v-8.9c0-3.14-.27-4.94-.81-5.4-.27-.23-.61-.39-1.03-.5h5.71Z"/>
    <path class="cls-1" d="M390.59,92.4c-.15.73-.2,1.51-.16,2.34.04.83.25,1.68.64,2.53.38.85.85,1.62,1.39,2.29s1.25,1.23,2.14,1.67c.88.44,1.84.66,2.86.66h.16c2.1-.04,3.84-.79,5.2-2.25,1.36-1.46,1.75-3.12,1.17-5-.33-1.08-1.03-1.95-2.08-2.59-1.05-.65-2.19-1.13-3.4-1.45-1.22-.32-2.42-.67-3.61-1.05-1.19-.37-2.15-.98-2.9-1.81s-1.09-1.95-1.03-3.34c.04-1.33.66-2.42,1.84-3.26s2.83-1.26,4.93-1.26c2.44,0,4.57.42,6.4,1.25,0,1.35-.17,3.01-.5,4.96h-.22c.29-3.83-1.59-5.8-5.65-5.9-1.23,0-2.33.35-3.31,1.06s-1.51,1.66-1.59,2.84c-.06,1,.3,1.79,1.08,2.39.78.59,1.76,1.05,2.95,1.37,1.19.32,2.39.68,3.61,1.06,1.22.39,2.32,1.03,3.31,1.92.99.9,1.6,2.05,1.83,3.47.35,2.25-.32,4.14-2.03,5.68-1.71,1.54-3.76,2.29-6.15,2.25-1.42-.02-2.88-.34-4.39-.97-1.51-.62-2.58-1.56-3.2-2.81,0-2.75.11-4.76.34-6.03l.37-.03Z"/>
    <path class="cls-1" d="M406.02,80.2h18.33v3.37h-.22c-.23-2.04-2.87-3.06-7.93-3.06v14.49c0,3.31.2,5.26.59,5.84.23.54.72.91,1.47,1.09h-6.06c.65-.15,1.13-.51,1.47-1.09.35-.56.53-2.51.53-5.84v-14.49c-.71,0-1.3,0-1.76.02-.47.01-1.1.07-1.89.19-.79.12-1.44.27-1.95.45-.51.19-1,.48-1.47.87-.47.4-.78.88-.92,1.44h-.19v-3.28Z"/>
    <path class="cls-1" d="M421.25,101.9c.35-.1.7-.34,1.05-.72.34-.38.62-.74.84-1.11.22-.36.47-.91.77-1.62.29-.72.5-1.24.62-1.56.12-.32.31-.87.56-1.64l5.31-15.05h1.94l5.65,15.05c.1.23.35.87.75,1.92.4,1.05.79,1.96,1.17,2.72.38.76.75,1.3,1.11,1.61.21.19.55.33,1.03.44l-6.28.06c.62-.02,1.08-.17,1.37-.45.29-.28.41-.7.34-1.25-.06-.55-.16-1.05-.3-1.5-.14-.45-.34-1.02-.62-1.73-.28-.71-.46-1.18-.55-1.41l-.62-1.66c-.92.77-2.35,1.16-4.31,1.16-.15,0-.35,0-.62-.02-.27,0-.48-.02-.62-.02-2.12,0-3.65.48-4.59,1.44l-.84,2.69c-.21.77-.24,1.37-.11,1.81.13.44.39.72.76.84h-3.81ZM425.44,95.87c.6-.5,1.37-.83,2.29-.98.93-.16,1.8-.2,2.61-.14.81.06,1.68.01,2.61-.16.93-.17,1.69-.51,2.3-1.03l-4.62-12.43-5.18,14.74Z"/>
  </g>
  <g>
    <path class="cls-1" d="M148.69,176.91c-.16.31-.43.56-.79.75-.36.19-.82.29-1.39.29h-1.24v2.77h-1.12v-6.83h2.36c.52,0,.97.09,1.33.27.36.18.64.42.82.73.18.31.27.65.27,1.03,0,.35-.08.67-.25.98ZM147.48,176.74c.21-.19.31-.47.31-.82,0-.75-.42-1.12-1.27-1.12h-1.24v2.23h1.24c.43,0,.74-.1.95-.29Z"/>
    <path class="cls-1" d="M154.93,178.43h-4.14c.03.43.19.78.48,1.04.29.26.64.39,1.06.39.6,0,1.03-.25,1.28-.76h1.21c-.16.5-.46.91-.89,1.22-.43.32-.96.48-1.6.48-.52,0-.98-.12-1.39-.35-.41-.23-.73-.56-.96-.98-.23-.42-.35-.91-.35-1.47s.11-1.05.34-1.47c.23-.42.54-.75.95-.98.41-.23.88-.34,1.41-.34s.97.11,1.37.33.71.54.93.94.33.87.33,1.39c0,.2-.01.39-.04.55ZM153.8,177.52c0-.41-.15-.74-.44-.99-.29-.25-.65-.37-1.07-.37-.39,0-.72.12-.99.37-.27.25-.44.58-.49,1h3Z"/>
    <path class="cls-1" d="M157.84,175.45c.27-.15.59-.23.97-.23v1.16h-.28c-.44,0-.77.11-1,.33-.23.22-.34.61-.34,1.16v2.85h-1.12v-5.41h1.12v.79c.16-.28.38-.49.65-.64Z"/>
    <path class="cls-1" d="M160.66,180.57c-.34-.15-.6-.36-.8-.63-.2-.26-.3-.56-.31-.89h1.16c.02.23.13.42.33.58.2.15.45.23.75.23s.56-.06.73-.18.26-.28.26-.47c0-.2-.1-.35-.29-.45-.19-.1-.5-.21-.92-.32-.41-.11-.74-.22-.99-.32-.26-.11-.48-.27-.66-.48-.19-.22-.28-.5-.28-.85,0-.29.08-.55.26-.79s.41-.43.73-.56c.32-.14.68-.21,1.1-.21.62,0,1.11.16,1.49.47.38.31.58.74.6,1.27h-1.12c-.02-.24-.12-.44-.29-.58-.18-.14-.42-.22-.72-.22s-.52.06-.68.17-.24.26-.24.44c0,.14.05.26.16.36.1.1.23.17.38.23.15.06.37.13.67.21.39.11.72.21.97.32.25.11.47.27.65.48.18.21.28.49.28.83,0,.31-.08.58-.26.83s-.41.43-.72.57-.68.21-1.1.21-.81-.08-1.14-.23Z"/>
    <path class="cls-1" d="M166.98,175.47c.33-.17.7-.25,1.11-.25.47,0,.9.12,1.29.35s.7.56.92.98c.22.42.33.9.33,1.44s-.11,1.03-.33,1.46c-.22.43-.53.76-.92,1-.39.24-.82.36-1.29.36-.41,0-.78-.08-1.1-.25s-.58-.38-.79-.62v3.36h-1.12v-7.99h1.12v.8c.19-.25.45-.46.78-.63ZM169.27,177.02c-.15-.27-.36-.48-.61-.62-.25-.14-.52-.21-.81-.21s-.55.07-.8.22c-.25.14-.46.35-.61.63-.15.28-.23.6-.23.97s.08.7.23.98c.15.28.36.49.61.63.25.14.52.22.8.22s.56-.07.81-.22c.25-.15.46-.36.61-.64.15-.28.23-.61.23-.98s-.08-.7-.23-.97Z"/>
    <path class="cls-1" d="M176.67,178.43h-4.14c.03.43.19.78.48,1.04.29.26.64.39,1.06.39.6,0,1.03-.25,1.28-.76h1.21c-.16.5-.46.91-.89,1.22-.43.32-.96.48-1.6.48-.52,0-.98-.12-1.39-.35-.41-.23-.73-.56-.96-.98-.23-.42-.35-.91-.35-1.47s.11-1.05.34-1.47c.23-.42.54-.75.95-.98.41-.23.88-.34,1.41-.34s.97.11,1.37.33.71.54.93.94.33.87.33,1.39c0,.2-.01.39-.04.55ZM175.54,177.52c0-.41-.15-.74-.44-.99-.29-.25-.65-.37-1.07-.37-.39,0-.72.12-.99.37-.27.25-.44.58-.49,1h3Z"/>
    <path class="cls-1" d="M177.77,176.54c.23-.42.54-.75.94-.98.4-.23.86-.34,1.38-.34.65,0,1.2.16,1.63.47.43.31.72.75.87,1.33h-1.21c-.1-.27-.26-.48-.47-.63-.22-.15-.49-.23-.81-.23-.46,0-.82.16-1.1.49-.27.32-.41.78-.41,1.36s.14,1.04.41,1.37c.27.33.64.49,1.1.49.65,0,1.08-.29,1.29-.85h1.21c-.16.55-.45.99-.88,1.31-.43.32-.97.49-1.61.49-.52,0-.98-.12-1.38-.35-.4-.23-.71-.56-.94-.98-.23-.42-.34-.91-.34-1.47s.11-1.05.34-1.47Z"/>
    <path class="cls-1" d="M185.01,176.22v3c0,.2.05.35.14.44.09.09.26.13.49.13h.69v.93h-.88c-.5,0-.89-.12-1.16-.35-.27-.24-.4-.62-.4-1.15v-3h-.64v-.91h.64v-1.35h1.13v1.35h1.32v.91h-1.32Z"/>
    <path class="cls-1" d="M187.41,174.38c-.14-.14-.21-.31-.21-.51s.07-.37.21-.51c.14-.14.31-.21.51-.21s.36.07.5.21c.14.14.21.31.21.51s-.07.37-.21.51c-.14.14-.3.21-.5.21s-.37-.07-.51-.21ZM188.47,175.31v5.41h-1.12v-5.41h1.12Z"/>
    <path class="cls-1" d="M192.04,179.72l1.53-4.41h1.19l-2.06,5.41h-1.34l-2.05-5.41h1.2l1.53,4.41Z"/>
    <path class="cls-1" d="M195.57,176.54c.23-.42.53-.74.92-.98s.82-.35,1.29-.35c.43,0,.8.08,1.12.25.32.17.57.38.76.62v-.79h1.13v5.41h-1.13v-.81c-.19.26-.45.47-.78.64-.33.17-.7.26-1.12.26-.46,0-.89-.12-1.28-.36-.39-.24-.69-.57-.92-1-.23-.43-.34-.92-.34-1.46s.11-1.02.34-1.44ZM199.43,177.03c-.15-.27-.36-.48-.6-.63-.25-.14-.52-.22-.81-.22s-.56.07-.81.21c-.25.14-.45.35-.6.62-.15.27-.23.59-.23.97s.08.7.23.98c.15.28.36.5.61.64.25.15.52.22.8.22s.56-.07.81-.22c.25-.14.45-.36.6-.63s.23-.6.23-.98-.08-.7-.23-.97Z"/>
    <path class="cls-1" d="M204.88,174.38c-.14-.14-.21-.31-.21-.51s.07-.37.21-.51c.14-.14.31-.21.51-.21s.36.07.5.21c.14.14.21.31.21.51s-.07.37-.21.51c-.14.14-.3.21-.5.21s-.37-.07-.51-.21ZM205.94,175.31v5.41h-1.12v-5.41h1.12Z"/>
    <path class="cls-1" d="M208.53,173.45v7.27h-1.12v-7.27h1.12Z"/>
    <path class="cls-1" d="M214.9,175.31v5.41h-1.12v-.64c-.18.22-.41.4-.69.53-.28.13-.59.19-.91.19-.43,0-.81-.09-1.14-.26-.34-.18-.6-.44-.8-.79-.19-.35-.29-.77-.29-1.26v-3.18h1.11v3.02c0,.48.12.86.36,1.11.24.26.57.39.99.39s.75-.13,1-.39c.25-.26.37-.63.37-1.11v-3.02h1.12Z"/>
    <path class="cls-1" d="M217.2,180.57c-.34-.15-.6-.36-.8-.63-.2-.26-.3-.56-.31-.89h1.16c.02.23.13.42.33.58.2.15.45.23.75.23s.56-.06.73-.18.26-.28.26-.47c0-.2-.1-.35-.29-.45-.19-.1-.5-.21-.92-.32-.41-.11-.74-.22-.99-.32-.26-.11-.48-.27-.66-.48-.19-.22-.28-.5-.28-.85,0-.29.08-.55.26-.79s.41-.43.73-.56c.32-.14.68-.21,1.1-.21.62,0,1.11.16,1.49.47.38.31.58.74.6,1.27h-1.12c-.02-.24-.12-.44-.29-.58-.18-.14-.42-.22-.72-.22s-.52.06-.68.17-.24.26-.24.44c0,.14.05.26.16.36.1.1.23.17.38.23.15.06.37.13.67.21.39.11.72.21.97.32.25.11.47.27.65.48.18.21.28.49.28.83,0,.31-.08.58-.26.83s-.41.43-.72.57-.68.21-1.1.21-.81-.08-1.14-.23Z"/>
    <path class="cls-1" d="M222.93,176.22v3c0,.2.05.35.14.44.09.09.26.13.49.13h.69v.93h-.88c-.5,0-.89-.12-1.16-.35-.27-.24-.4-.62-.4-1.15v-3h-.64v-.91h.64v-1.35h1.13v1.35h1.32v.91h-1.32Z"/>
    <path class="cls-1" d="M227.05,175.45c.27-.15.59-.23.97-.23v1.16h-.28c-.44,0-.77.11-1,.33-.23.22-.34.61-.34,1.16v2.85h-1.12v-5.41h1.12v.79c.16-.28.38-.49.65-.64Z"/>
    <path class="cls-1" d="M229.01,176.54c.23-.42.53-.74.92-.98s.82-.35,1.29-.35c.43,0,.8.08,1.12.25.32.17.57.38.76.62v-.79h1.13v5.41h-1.13v-.81c-.19.26-.45.47-.78.64-.33.17-.7.26-1.12.26-.46,0-.89-.12-1.28-.36-.39-.24-.69-.57-.92-1-.23-.43-.34-.92-.34-1.46s.11-1.02.34-1.44ZM232.87,177.03c-.15-.27-.36-.48-.6-.63-.25-.14-.52-.22-.81-.22s-.56.07-.81.21c-.25.14-.45.35-.6.62-.15.27-.23.59-.23.97s.08.7.23.98c.15.28.36.5.61.64.25.15.52.22.8.22s.56-.07.81-.22c.25-.14.45-.36.6-.63s.23-.6.23-.98-.08-.7-.23-.97Z"/>
    <path class="cls-1" d="M235.67,176.54c.23-.42.53-.74.92-.98s.82-.35,1.3-.35c.35,0,.7.08,1.05.23s.62.36.82.61v-2.61h1.13v7.27h-1.13v-.82c-.18.26-.44.48-.76.65-.32.17-.7.26-1.12.26-.47,0-.9-.12-1.29-.36-.39-.24-.7-.57-.92-1-.23-.43-.34-.92-.34-1.46s.11-1.02.34-1.44ZM239.53,177.03c-.15-.27-.36-.48-.6-.63-.25-.14-.52-.22-.81-.22s-.56.07-.81.21c-.25.14-.45.35-.6.62-.15.27-.23.59-.23.97s.08.7.23.98c.15.28.36.5.61.64.25.15.52.22.8.22s.56-.07.81-.22c.25-.14.45-.36.6-.63s.23-.6.23-.98-.08-.7-.23-.97Z"/>
    <path class="cls-1" d="M242.33,176.54c.23-.42.53-.74.92-.98s.82-.35,1.29-.35c.43,0,.8.08,1.12.25.32.17.57.38.76.62v-.79h1.13v5.41h-1.13v-.81c-.19.26-.45.47-.78.64-.33.17-.7.26-1.12.26-.46,0-.89-.12-1.28-.36-.39-.24-.69-.57-.92-1-.23-.43-.34-.92-.34-1.46s.11-1.02.34-1.44ZM246.19,177.03c-.15-.27-.36-.48-.6-.63-.25-.14-.52-.22-.81-.22s-.56.07-.81.21c-.25.14-.45.35-.6.62-.15.27-.23.59-.23.97s.08.7.23.98c.15.28.36.5.61.64.25.15.52.22.8.22s.56-.07.81-.22c.25-.14.45-.36.6-.63s.23-.6.23-.98-.08-.7-.23-.97Z"/>
    <path class="cls-1" d="M251.55,176.54c.23-.42.53-.74.92-.98s.82-.35,1.3-.35c.35,0,.7.08,1.05.23s.62.36.82.61v-2.61h1.13v7.27h-1.13v-.82c-.18.26-.44.48-.76.65-.32.17-.7.26-1.12.26-.47,0-.9-.12-1.29-.36-.39-.24-.7-.57-.92-1-.23-.43-.34-.92-.34-1.46s.11-1.02.34-1.44ZM255.41,177.03c-.15-.27-.36-.48-.6-.63-.25-.14-.52-.22-.81-.22s-.56.07-.81.21c-.25.14-.45.35-.6.62-.15.27-.23.59-.23.97s.08.7.23.98c.15.28.36.5.61.64.25.15.52.22.8.22s.56-.07.81-.22c.25-.14.45-.36.6-.63s.23-.6.23-.98-.08-.7-.23-.97Z"/>
    <path class="cls-1" d="M259.2,180.46c-.41-.23-.74-.56-.97-.98-.24-.42-.35-.91-.35-1.47s.12-1.04.36-1.46c.24-.42.57-.75.99-.98.42-.23.89-.34,1.4-.34s.99.11,1.4.34c.42.23.75.56.99.98.24.43.36.91.36,1.46s-.12,1.04-.37,1.46-.59.75-1.02.99c-.43.23-.9.35-1.42.35s-.97-.12-1.38-.35ZM261.4,179.63c.25-.14.46-.34.61-.62s.24-.61.24-1-.08-.73-.23-1c-.15-.27-.35-.48-.6-.61-.25-.14-.52-.21-.81-.21s-.56.07-.8.21c-.25.14-.44.34-.58.61s-.22.6-.22,1c0,.58.15,1.03.45,1.35s.67.48,1.12.48c.29,0,.56-.07.81-.21Z"/>
    <path class="cls-1" d="M271.65,177.79c.26.32.38.68.38,1.09,0,.35-.09.66-.27.94s-.44.5-.78.66c-.34.16-.74.24-1.19.24h-2.73v-6.83h2.6c.46,0,.86.08,1.2.24.33.16.59.37.76.63.17.26.26.56.26.89,0,.39-.1.72-.31.98-.21.26-.49.46-.84.58.37.07.68.26.93.58ZM268.18,176.76h1.38c.37,0,.65-.08.86-.25.21-.17.31-.41.31-.72s-.1-.55-.31-.72c-.21-.17-.49-.26-.86-.26h-1.38v1.96ZM270.59,179.53c.22-.18.32-.44.32-.77s-.11-.6-.34-.79c-.23-.2-.53-.29-.91-.29h-1.47v2.13h1.51c.38,0,.68-.09.89-.28Z"/>
    <path class="cls-1" d="M278.17,178.43h-4.14c.03.43.19.78.48,1.04.29.26.64.39,1.06.39.6,0,1.03-.25,1.28-.76h1.21c-.16.5-.46.91-.89,1.22-.43.32-.96.48-1.6.48-.52,0-.98-.12-1.39-.35-.41-.23-.73-.56-.96-.98-.23-.42-.35-.91-.35-1.47s.11-1.05.34-1.47c.23-.42.54-.75.95-.98.41-.23.88-.34,1.41-.34s.97.11,1.37.33.71.54.93.94.33.87.33,1.39c0,.2-.01.39-.04.55ZM277.04,177.52c0-.41-.15-.74-.44-.99-.29-.25-.65-.37-1.07-.37-.39,0-.72.12-.99.37-.27.25-.44.58-.49,1h3Z"/>
    <path class="cls-1" d="M279.27,176.54c.23-.42.53-.74.92-.98s.82-.35,1.29-.35c.43,0,.8.08,1.12.25.32.17.57.38.76.62v-.79h1.13v5.41h-1.13v-.81c-.19.26-.45.47-.78.64-.33.17-.7.26-1.12.26-.46,0-.89-.12-1.28-.36-.39-.24-.69-.57-.92-1-.23-.43-.34-.92-.34-1.46s.11-1.02.34-1.44ZM283.13,177.03c-.15-.27-.36-.48-.6-.63-.25-.14-.52-.22-.81-.22s-.56.07-.81.21c-.25.14-.45.35-.6.62-.15.27-.23.59-.23.97s.08.7.23.98c.15.28.36.5.61.64.25.15.52.22.8.22s.56-.07.81-.22c.25-.14.45-.36.6-.63s.23-.6.23-.98-.08-.7-.23-.97Z"/>
    <path class="cls-1" d="M285.93,176.54c.23-.42.54-.75.94-.98.4-.23.86-.34,1.38-.34.65,0,1.2.16,1.63.47.43.31.72.75.87,1.33h-1.21c-.1-.27-.26-.48-.47-.63-.22-.15-.49-.23-.81-.23-.46,0-.82.16-1.1.49-.27.32-.41.78-.41,1.36s.14,1.04.41,1.37c.27.33.64.49,1.1.49.65,0,1.08-.29,1.29-.85h1.21c-.16.55-.45.99-.88,1.31-.43.32-.97.49-1.61.49-.52,0-.98-.12-1.38-.35-.4-.23-.71-.56-.94-.98-.23-.42-.34-.91-.34-1.47s.11-1.05.34-1.47Z"/>
    <path class="cls-1" d="M295.76,175.48c.32.18.58.44.77.79.19.35.28.77.28,1.26v3.19h-1.11v-3.03c0-.48-.12-.86-.36-1.11-.24-.26-.57-.39-.99-.39s-.75.13-1,.39-.37.63-.37,1.11v3.03h-1.12v-7.27h1.12v2.49c.19-.23.43-.41.72-.53.29-.12.61-.19.96-.19.41,0,.78.09,1.1.26Z"/>
    <path class="cls-1" d="M300.88,175.49c.31-.53.73-.94,1.27-1.24s1.12-.45,1.75-.45c.73,0,1.37.18,1.94.54.57.36.98.86,1.23,1.52h-1.35c-.18-.36-.42-.63-.74-.8-.31-.18-.68-.27-1.09-.27-.45,0-.85.1-1.21.3s-.63.49-.83.87-.3.82-.3,1.33.1.95.3,1.33.48.67.83.88.76.31,1.21.31c.41,0,.78-.09,1.09-.27.31-.18.56-.45.74-.81h1.35c-.26.66-.67,1.16-1.23,1.51s-1.21.53-1.94.53c-.64,0-1.23-.15-1.76-.45-.53-.3-.95-.71-1.26-1.24-.31-.53-.47-1.13-.47-1.8s.16-1.27.47-1.8Z"/>
    <path class="cls-1" d="M309.5,173.45v7.27h-1.12v-7.27h1.12Z"/>
    <path class="cls-1" d="M315.87,175.31v5.41h-1.12v-.64c-.18.22-.41.4-.69.53-.28.13-.59.19-.91.19-.43,0-.81-.09-1.14-.26-.34-.18-.6-.44-.8-.79-.19-.35-.29-.77-.29-1.26v-3.18h1.11v3.02c0,.48.12.86.36,1.11.24.26.57.39.99.39s.75-.13,1-.39c.25-.26.37-.63.37-1.11v-3.02h1.12Z"/>
    <path class="cls-1" d="M319.25,175.47c.33-.17.7-.25,1.1-.25.48,0,.91.11,1.3.34.39.23.69.55.91.98.22.42.33.91.33,1.45s-.11,1.03-.33,1.46c-.22.43-.53.76-.92,1-.39.24-.82.36-1.29.36-.42,0-.79-.08-1.11-.25-.32-.16-.58-.37-.77-.63v.79h-1.12v-7.27h1.12v2.66c.19-.26.45-.48.78-.64ZM321.53,177.02c-.15-.27-.36-.48-.61-.62-.25-.14-.52-.21-.81-.21s-.55.07-.8.22c-.25.14-.46.35-.61.63-.15.28-.23.6-.23.97s.08.7.23.98c.15.28.36.49.61.63.25.14.52.22.8.22s.56-.07.81-.22c.25-.15.46-.36.61-.64.15-.28.23-.61.23-.98s-.08-.7-.23-.97Z"/>
    <path class="cls-1" d="M332.44,173.89l-2.56,6.83h-1.3l-2.57-6.83h1.2l2.02,5.68,2.03-5.68h1.18Z"/>
    <path class="cls-1" d="M333.44,174.38c-.14-.14-.21-.31-.21-.51s.07-.37.21-.51c.14-.14.31-.21.51-.21s.36.07.5.21c.14.14.21.31.21.51s-.07.37-.21.51c-.14.14-.3.21-.5.21s-.37-.07-.51-.21ZM334.5,175.31v5.41h-1.12v-5.41h1.12Z"/>
    <path class="cls-1" d="M337.09,173.45v7.27h-1.12v-7.27h1.12Z"/>
    <path class="cls-1" d="M339.68,173.45v7.27h-1.12v-7.27h1.12Z"/>
    <path class="cls-1" d="M341.12,176.54c.23-.42.53-.74.92-.98s.82-.35,1.29-.35c.43,0,.8.08,1.12.25.32.17.57.38.76.62v-.79h1.13v5.41h-1.13v-.81c-.19.26-.45.47-.78.64-.33.17-.7.26-1.12.26-.46,0-.89-.12-1.28-.36-.39-.24-.69-.57-.92-1-.23-.43-.34-.92-.34-1.46s.11-1.02.34-1.44ZM344.98,177.03c-.15-.27-.36-.48-.6-.63-.25-.14-.52-.22-.81-.22s-.56.07-.81.21c-.25.14-.45.35-.6.62-.15.27-.23.59-.23.97s.08.7.23.98c.15.28.36.5.61.64.25.15.52.22.8.22s.56-.07.81-.22c.25-.14.45-.36.6-.63s.23-.6.23-.98-.08-.7-.23-.97Z"/>
    <path class="cls-1" d="M349.91,179.72l1.53-4.41h1.19l-2.06,5.41h-1.34l-2.05-5.41h1.2l1.53,4.41Z"/>
    <path class="cls-1" d="M353.53,174.38c-.14-.14-.21-.31-.21-.51s.07-.37.21-.51c.14-.14.31-.21.51-.21s.36.07.5.21c.14.14.21.31.21.51s-.07.37-.21.51c-.14.14-.3.21-.5.21s-.37-.07-.51-.21ZM354.59,175.31v5.41h-1.12v-5.41h1.12Z"/>
    <path class="cls-1" d="M356.89,180.57c-.34-.15-.6-.36-.8-.63-.2-.26-.3-.56-.31-.89h1.16c.02.23.13.42.33.58.2.15.45.23.75.23s.56-.06.73-.18.26-.28.26-.47c0-.2-.1-.35-.29-.45-.19-.1-.5-.21-.92-.32-.41-.11-.74-.22-.99-.32-.26-.11-.48-.27-.66-.48-.19-.22-.28-.5-.28-.85,0-.29.08-.55.26-.79s.41-.43.73-.56c.32-.14.68-.21,1.1-.21.62,0,1.11.16,1.49.47.38.31.58.74.6,1.27h-1.12c-.02-.24-.12-.44-.29-.58-.18-.14-.42-.22-.72-.22s-.52.06-.68.17-.24.26-.24.44c0,.14.05.26.16.36.1.1.23.17.38.23.15.06.37.13.67.21.39.11.72.21.97.32.25.11.47.27.65.48.18.21.28.49.28.83,0,.31-.08.58-.26.83s-.41.43-.72.57-.68.21-1.1.21-.81-.08-1.14-.23Z"/>
    <path class="cls-1" d="M362.62,176.22v3c0,.2.05.35.14.44.09.09.26.13.49.13h.69v.93h-.88c-.5,0-.89-.12-1.16-.35-.27-.24-.4-.62-.4-1.15v-3h-.64v-.91h.64v-1.35h1.13v1.35h1.32v.91h-1.32Z"/>
    <path class="cls-1" d="M364.93,176.54c.23-.42.53-.74.92-.98s.82-.35,1.29-.35c.43,0,.8.08,1.12.25.32.17.57.38.76.62v-.79h1.13v5.41h-1.13v-.81c-.19.26-.45.47-.78.64-.33.17-.7.26-1.12.26-.46,0-.89-.12-1.28-.36-.39-.24-.69-.57-.92-1-.23-.43-.34-.92-.34-1.46s.11-1.02.34-1.44ZM368.79,177.03c-.15-.27-.36-.48-.6-.63-.25-.14-.52-.22-.81-.22s-.56.07-.81.21c-.25.14-.45.35-.6.62-.15.27-.23.59-.23.97s.08.7.23.98c.15.28.36.5.61.64.25.15.52.22.8.22s.56-.07.81-.22c.25-.14.45-.36.6-.63s.23-.6.23-.98-.08-.7-.23-.97Z"/>
  </g>
  <g>
    <path class="cls-1" d="M92.55,59.67h-4.65l-.8,2.27h-1.9l3.98-11.12h2.11l3.98,11.12h-1.92l-.8-2.27ZM92.04,58.18l-1.81-5.16-1.82,5.16h3.63Z"/>
    <path class="cls-1" d="M108.69,50.83v11.1h-1.82v-7.61l-3.39,7.61h-1.26l-3.4-7.61v7.61h-1.82v-11.1h1.97l3.9,8.71,3.88-8.71h1.95Z"/>
    <path class="cls-1" d="M112.91,52.3v3.26h3.83v1.49h-3.83v3.4h4.31v1.49h-6.14v-11.12h6.14v1.49h-4.31Z"/>
    <path class="cls-1" d="M128.58,61.94h-1.82l-5.48-8.29v8.29h-1.82v-11.12h1.82l5.48,8.28v-8.28h1.82v11.12Z"/>
    <path class="cls-1" d="M132.8,50.83v11.1h-1.82v-11.1h1.82Z"/>
    <path class="cls-1" d="M142.37,50.83v1.49h-2.96v9.62h-1.82v-9.62h-2.97v-1.49h7.75Z"/>
    <path class="cls-1" d="M146.03,50.83v11.1h-1.82v-11.1h1.82Z"/>
    <path class="cls-1" d="M150.24,52.3v3.26h3.83v1.49h-3.83v3.4h4.31v1.49h-6.14v-11.12h6.14v1.49h-4.31Z"/>
    <path class="cls-1" d="M158.44,61.66c-.6-.26-1.06-.63-1.41-1.11-.34-.48-.51-1.04-.51-1.68h1.95c.04.48.23.87.57,1.18.34.31.81.46,1.41.46s1.12-.15,1.47-.46c.35-.3.53-.7.53-1.17,0-.37-.11-.68-.33-.91s-.49-.42-.81-.54c-.33-.13-.77-.27-1.35-.42-.72-.19-1.31-.39-1.77-.58s-.84-.5-1.16-.92c-.32-.42-.48-.97-.48-1.66,0-.64.16-1.2.48-1.68.32-.48.77-.85,1.34-1.1s1.24-.38,2-.38c1.08,0,1.96.27,2.64.81.69.54,1.07,1.28,1.14,2.21h-2.01c-.03-.4-.22-.75-.58-1.04-.35-.29-.81-.43-1.39-.43-.52,0-.95.13-1.28.4-.33.27-.5.65-.5,1.15,0,.34.1.62.31.84.21.22.47.39.79.52.32.13.76.27,1.31.42.73.2,1.33.41,1.8.61s.86.51,1.18.93.49.98.49,1.69c0,.56-.15,1.1-.46,1.6-.3.5-.75.9-1.33,1.21-.58.3-1.27.46-2.05.46-.75,0-1.42-.13-2.01-.39Z"/>
    <path class="cls-1" d="M172.42,52.3v3.26h3.83v1.49h-3.83v3.4h4.31v1.49h-6.14v-11.12h6.14v1.49h-4.31Z"/>
    <path class="cls-1" d="M184.07,56.39l3.45,5.54h-2.05l-2.51-4.03-2.35,4.03h-2.03l3.45-5.54-3.47-5.56h2.04l2.52,4.06,2.36-4.06h2.03l-3.47,5.56Z"/>
    <path class="cls-1" d="M189.67,53.44c.51-.86,1.19-1.54,2.06-2.02.87-.49,1.82-.73,2.85-.73,1.18,0,2.23.29,3.16.87s1.59,1.4,2,2.47h-2.19c-.29-.59-.69-1.02-1.2-1.31-.51-.29-1.1-.43-1.77-.43-.74,0-1.39.17-1.97.5-.58.33-1.03.8-1.35,1.42-.33.62-.49,1.34-.49,2.16s.16,1.54.49,2.16c.32.62.77,1.09,1.35,1.43.58.34,1.23.5,1.97.5.67,0,1.26-.14,1.77-.43.51-.29.91-.72,1.2-1.31h2.19c-.42,1.07-1.08,1.89-2,2.46s-1.97.86-3.16.86c-1.04,0-2-.24-2.86-.73-.86-.48-1.55-1.16-2.05-2.02-.51-.86-.76-1.84-.76-2.92s.25-2.06.76-2.92Z"/>
    <path class="cls-1" d="M203.69,60.47h3.75v1.47h-5.58v-11.1h1.82v9.63Z"/>
    <path class="cls-1" d="M210.76,50.83v7.08c0,.84.22,1.48.66,1.9s1.06.64,1.85.64,1.42-.21,1.86-.64c.44-.43.66-1.06.66-1.9v-7.08h1.82v7.05c0,.91-.2,1.67-.59,2.3-.39.63-.92,1.1-1.58,1.41-.66.31-1.39.46-2.19.46s-1.53-.15-2.18-.46c-.66-.31-1.17-.78-1.56-1.41-.38-.63-.58-1.39-.58-2.3v-7.05h1.82Z"/>
    <path class="cls-1" d="M221.63,61.66c-.6-.26-1.06-.63-1.41-1.11-.34-.48-.51-1.04-.51-1.68h1.95c.04.48.23.87.57,1.18.34.31.81.46,1.41.46s1.12-.15,1.47-.46c.35-.3.53-.7.53-1.17,0-.37-.11-.68-.33-.91s-.49-.42-.81-.54c-.33-.13-.77-.27-1.35-.42-.72-.19-1.31-.39-1.77-.58s-.84-.5-1.16-.92c-.32-.42-.48-.97-.48-1.66,0-.64.16-1.2.48-1.68.32-.48.77-.85,1.34-1.1s1.24-.38,2-.38c1.08,0,1.96.27,2.64.81.69.54,1.07,1.28,1.14,2.21h-2.01c-.03-.4-.22-.75-.58-1.04-.35-.29-.81-.43-1.39-.43-.52,0-.95.13-1.28.4-.33.27-.5.65-.5,1.15,0,.34.1.62.31.84.21.22.47.39.79.52.32.13.76.27,1.31.42.73.2,1.33.41,1.8.61s.86.51,1.18.93.49.98.49,1.69c0,.56-.15,1.1-.46,1.6-.3.5-.75.9-1.33,1.21-.58.3-1.27.46-2.05.46-.75,0-1.42-.13-2.01-.39Z"/>
    <path class="cls-1" d="M231.45,50.83v11.1h-1.82v-11.1h1.82Z"/>
    <path class="cls-1" d="M243.42,50.83l-4.17,11.1h-2.11l-4.19-11.1h1.95l3.29,9.24,3.31-9.24h1.92Z"/>
    <path class="cls-1" d="M247.15,61.32c-.87-.48-1.56-1.16-2.06-2.03-.51-.87-.76-1.84-.76-2.93s.25-2.06.76-2.92c.51-.86,1.19-1.54,2.06-2.02.87-.49,1.82-.73,2.85-.73s2,.24,2.87.73c.87.48,1.55,1.16,2.05,2.02.5.86.75,1.84.75,2.92s-.25,2.06-.75,2.93c-.5.87-1.18,1.54-2.05,2.03-.87.49-1.82.73-2.87.73s-1.98-.24-2.85-.73ZM251.97,59.96c.58-.33,1.02-.81,1.35-1.44s.49-1.34.49-2.17-.16-1.54-.49-2.16c-.33-.62-.77-1.09-1.35-1.42-.58-.33-1.23-.5-1.97-.5s-1.39.17-1.96.5c-.58.33-1.03.8-1.35,1.42-.33.62-.49,1.34-.49,2.16s.16,1.54.49,2.17c.32.62.77,1.1,1.35,1.44.58.34,1.23.5,1.96.5s1.39-.17,1.97-.5Z"/>
    <path class="cls-1" d="M259.11,61.66c-.6-.26-1.07-.63-1.41-1.11-.34-.48-.51-1.04-.51-1.68h1.95c.04.48.23.87.57,1.18.33.31.81.46,1.41.46s1.12-.15,1.47-.46c.35-.3.53-.7.53-1.17,0-.37-.11-.68-.33-.91-.22-.23-.49-.42-.81-.54-.33-.13-.78-.27-1.35-.42-.72-.19-1.31-.39-1.76-.58-.45-.2-.84-.5-1.16-.92-.32-.42-.48-.97-.48-1.66,0-.64.16-1.2.48-1.68.32-.48.77-.85,1.34-1.1s1.24-.38,2-.38c1.08,0,1.96.27,2.64.81.69.54,1.07,1.28,1.14,2.21h-2.01c-.03-.4-.22-.75-.58-1.04-.35-.29-.82-.43-1.39-.43-.52,0-.95.13-1.28.4-.33.27-.5.65-.5,1.15,0,.34.1.62.31.84.21.22.47.39.79.52.32.13.76.27,1.31.42.73.2,1.33.41,1.8.61.46.2.86.51,1.18.93s.49.98.49,1.69c0,.56-.15,1.1-.46,1.6s-.75.9-1.33,1.21c-.58.3-1.26.46-2.05.46-.75,0-1.42-.13-2.01-.39Z"/>
    <path class="cls-1" d="M278,51.51c.89.45,1.58,1.1,2.06,1.95.49.85.73,1.83.73,2.96s-.24,2.11-.73,2.94c-.48.83-1.17,1.47-2.06,1.91-.89.44-1.92.66-3.11.66h-3.63v-11.1h3.63c1.18,0,2.22.23,3.11.68ZM277.88,59.4c.69-.7,1.04-1.69,1.04-2.97s-.35-2.3-1.04-3.02c-.69-.72-1.69-1.09-2.99-1.09h-1.81v8.13h1.81c1.3,0,2.29-.35,2.99-1.05Z"/>
    <path class="cls-1" d="M284.81,61.32c-.87-.48-1.56-1.16-2.06-2.03-.51-.87-.76-1.84-.76-2.93s.25-2.06.76-2.92c.51-.86,1.19-1.54,2.06-2.02.87-.49,1.82-.73,2.85-.73s2,.24,2.87.73c.87.48,1.55,1.16,2.05,2.02.5.86.75,1.84.75,2.92s-.25,2.06-.75,2.93c-.5.87-1.18,1.54-2.05,2.03-.87.49-1.82.73-2.87.73s-1.98-.24-2.85-.73ZM289.63,59.96c.58-.33,1.02-.81,1.35-1.44s.49-1.34.49-2.17-.16-1.54-.49-2.16c-.33-.62-.77-1.09-1.35-1.42-.58-.33-1.23-.5-1.97-.5s-1.39.17-1.96.5c-.58.33-1.03.8-1.35,1.42-.33.62-.49,1.34-.49,2.16s.16,1.54.49,2.17c.32.62.77,1.1,1.35,1.44.58.34,1.23.5,1.96.5s1.39-.17,1.97-.5Z"/>
    <path class="cls-1" d="M308.85,50.83l-4.17,11.1h-2.11l-4.19-11.1h1.95l3.29,9.24,3.31-9.24h1.92Z"/>
    <path class="cls-1" d="M312.18,50.83v11.1h-1.82v-11.1h1.82Z"/>
    <path class="cls-1" d="M316.4,60.47h3.75v1.47h-5.58v-11.1h1.82v9.63Z"/>
    <path class="cls-1" d="M323.5,60.47h3.75v1.47h-5.58v-11.1h1.82v9.63Z"/>
    <path class="cls-1" d="M335.46,59.67h-4.65l-.8,2.27h-1.9l3.98-11.12h2.11l3.98,11.12h-1.92l-.8-2.27ZM334.95,58.18l-1.81-5.16-1.82,5.16h3.63Z"/>
    <path class="cls-1" d="M349.47,50.83l-4.17,11.1h-2.11l-4.19-11.1h1.95l3.29,9.24,3.31-9.24h1.92Z"/>
    <path class="cls-1" d="M352.81,50.83v11.1h-1.82v-11.1h1.82Z"/>
    <path class="cls-1" d="M356.86,61.66c-.6-.26-1.07-.63-1.41-1.11-.34-.48-.51-1.04-.51-1.68h1.95c.04.48.23.87.57,1.18.33.31.81.46,1.41.46s1.12-.15,1.47-.46c.35-.3.53-.7.53-1.17,0-.37-.11-.68-.33-.91-.22-.23-.49-.42-.81-.54-.33-.13-.78-.27-1.35-.42-.72-.19-1.31-.39-1.76-.58-.45-.2-.84-.5-1.16-.92-.32-.42-.48-.97-.48-1.66,0-.64.16-1.2.48-1.68.32-.48.77-.85,1.34-1.1s1.24-.38,2-.38c1.08,0,1.96.27,2.64.81.69.54,1.07,1.28,1.14,2.21h-2.01c-.03-.4-.22-.75-.58-1.04-.35-.29-.82-.43-1.39-.43-.52,0-.95.13-1.28.4-.33.27-.5.65-.5,1.15,0,.34.1.62.31.84.21.22.47.39.79.52.32.13.76.27,1.31.42.73.2,1.33.41,1.8.61.46.2.86.51,1.18.93s.49.98.49,1.69c0,.56-.15,1.1-.46,1.6s-.75.9-1.33,1.21c-.58.3-1.26.46-2.05.46-.75,0-1.42-.13-2.01-.39Z"/>
    <path class="cls-1" d="M372.03,50.83v1.49h-2.96v9.62h-1.82v-9.62h-2.97v-1.49h7.75Z"/>
    <path class="cls-1" d="M380.57,59.67h-4.65l-.8,2.27h-1.9l3.98-11.12h2.11l3.98,11.12h-1.92l-.8-2.27ZM380.05,58.18l-1.81-5.16-1.82,5.16h3.63Z"/>
  </g>
</svg>