<?xml version="1.0" encoding="UTF-8"?>
<svg id="Layer_1" data-name="Layer 1" xmlns="http://www.w3.org/2000/svg" xmlns:xlink="http://www.w3.org/1999/xlink" viewBox="0 0 912.61 60">
  <defs>
    <style>
      .cls-1, .cls-2 {
        fill: none;
      }

      .cls-2 {
        stroke: #a9824a;
        stroke-miterlimit: 10;
        stroke-width: 2px;
      }

      .cls-3 {
        clip-path: url(#clippath);
      }
    </style>
    <clipPath id="clippath">
      <rect class="cls-1" y="-38.01" width="912.61" height="102.76"/>
    </clipPath>
  </defs>
  <g class="cls-3">
    <path class="cls-2" d="M1111.29,47.79c-.22-.07-.43-.16-.64-.22-7.4-2.28-14.73-6.64-22.52-7.4-9.54-.94-19.4.72-28.92.26-4.14-.2-7.78-2.66-11.53-4.23-4.58-1.92-8.13-2.07-13.01-2.07-7.8,0-15.2-2.09-22.96-1.82-3.33.12-6.78.02-10.1.3-4.83.41-9.1,2.94-13.81,3.89-5.47,1.1-9.93-1.85-13.36-5.71-5.08-5.73-8.47-5.86-15.73-6.4-9.41-.7-19.19.18-28.06-3.33-5.11-2.02-10.47-3.32-15.7-4.95-4.76-1.48-8.3-3.61-13.47-3.16-6.23.55-11.72,3.63-18.15,3.62-4.86,0-10.95,1.4-15.66.26-3.3-.8-6.13-3.55-9.6-3.92-5.21-.56-10.99.97-16.31.94-6-.04-13.35-1.74-19.13.24-4.73,1.62-11.7,5.11-16.87,3.6-2.2-.64-4.43-3.03-6.22-4.31-2.56-1.81-4.32-2.23-7.41-2.26-4.4-.05-8.28,1.06-12.49,1.9-6,1.2-13.19,1.55-19.4.82-2.83-.33-7.11-1.06-9.34-3.09-1.09-.99-1.45-3.09-2.66-4.06-4.38-3.49-12.12,4.4-14.99,7.46-2.89,3.09-6.19,4.5-9.48,7.04-2.68,2.07-4.5,5.23-6.41,7.79-3.63,4.83-9.03,10.36-5.39,14.98,2.85,3.62.98,8.52-.91,9.47-1.86.94-9.28-1.6-10.94-2.26-2.93-1.16-3.7-4.42-5.77-6.76-2.14-2.42-4.94-3.44-7.24-5.89-1.69-1.8-3.8-5.59-4.39-7.89-.8-3.1.32-6.53-.47-9.56-.43-1.62-2.08-4.43-3.86-4.47-1.16-.03-2.57,1.55-3.69,1.79-2.83.6-6.21-.29-9.09-.01-3.47.33-5.06,1.41-7.71,3.85-3.67,3.38-6.87,3.17-11.77,4.19-4.47.93-8.46,2.63-13.33,1.95-3.35-.47-6.3-1.63-9.89-1.53-3.15.09-6.32.84-9.51.92-6.6.17-11.62-2.74-17.83-3.56-7.63-1.01-14.94-.11-22.56-1.55-5.49-1.04-11.96-1.16-17.31.03-7.76,1.74-15.18,6.28-23.13,6.59-8.39.32-18.84,1.29-27.2,0-3.07-.47-5.93-1.46-9.23-1.51-5.79-.1-11.52,1.18-17.27,1.53-2.74.17-5.53-.17-8.27.06-4.06.34-7.72,2.17-11.63,2.78-5.47.85-11.34-2.27-16.98-1.94-3.89.23-7.55,1.47-11.54,1.51-3.47.03-4.07.04-6.49,2.26-2.85,2.61-4.99,5.69-8.26,7.18-1.95.89-4.15,1.68-6.26,2.05-5.56.97-10.62,3.51-15.88,4.85-4.04,1.03-8.59.98-12.74,1.65-2.69.43-5.21.46-7.93.46-5.11,0-9.96-.32-14.83-.88-2.18-.25-3.75.61-5.7.88-3.85.55-7.37-.58-11.04-1.14-4.44-.68-9.2.23-13.69.23s-8.65-.68-12.99-.91c-2-.1-4.29-.23-6.28,0-2.24.26-3.97,1.44-6.17,1.82-4.74.82-9.75-.09-14.47.76-2.63.47-5.25.23-7.81,1.05-2.01.65-3.83,2.02-5.8,2.72-4.2,1.5-9.2-1.39-13.76-1.52-3.79-.11-8.23.64-11.77-.3-.67-.18-1.56-.47-2.5-.81v-.33c-.15.06-.3.11-.45.17-.15-.06-.3-.11-.45-.17v.33c-.94.34-1.83.64-2.5.81-3.55.94-7.99.19-11.78.3-4.56.13-9.56,3.02-13.76,1.52-1.97-.7-3.79-2.07-5.8-2.72-2.56-.83-5.18-.58-7.81-1.05-4.73-.85-9.74.06-14.47-.76-2.2-.38-3.93-1.57-6.17-1.82-1.99-.23-4.28-.1-6.28,0-4.34.23-8.49.91-12.98.91s-9.25-.91-13.69-.23c-3.67.56-7.19,1.69-11.04,1.14-1.94-.28-3.51-1.14-5.7-.88-4.87.56-9.72.88-14.83.88-2.72,0-5.24-.03-7.93-.46-4.16-.67-8.7-.62-12.75-1.65-5.26-1.34-10.32-3.88-15.88-4.85-2.11-.37-4.31-1.16-6.26-2.05-3.28-1.5-5.42-4.58-8.26-7.18-2.43-2.22-3.02-2.23-6.49-2.26-3.99-.04-7.65-1.28-11.54-1.51-5.64-.33-11.51,2.79-16.98,1.94-3.91-.61-7.57-2.44-11.63-2.78-2.74-.23-5.52.11-8.26-.06-5.75-.35-11.48-1.62-17.27-1.53-3.3.05-6.16,1.04-9.22,1.51-8.35,1.29-18.81.32-27.2,0-7.95-.31-15.37-4.85-23.13-6.59-5.35-1.2-11.82-1.07-17.31-.03-7.61,1.44-14.93.54-22.56,1.55-6.21.82-11.23,3.73-17.83,3.56-3.18-.08-6.35-.83-9.51-.92-3.59-.1-6.54,1.06-9.89,1.53-4.86.69-8.86-1.02-13.33-1.95-4.9-1.02-8.1-.81-11.77-4.19-2.65-2.44-4.24-3.52-7.71-3.85-2.88-.27-6.26.62-9.09.01-1.13-.24-2.54-1.81-3.69-1.79-1.79.04-3.43,2.85-3.86,4.47-.8,3.02.32,6.46-.47,9.56-.59,2.3-2.7,6.09-4.39,7.89-2.3,2.45-5.11,3.47-7.24,5.89-2.07,2.35-2.84,5.61-5.77,6.76-1.67.66-9.08,3.19-10.94,2.26-1.9-.95-3.76-5.85-.91-9.47,3.64-4.62-1.76-10.15-5.39-14.98-1.92-2.56-3.73-5.72-6.41-7.79-3.29-2.54-6.59-3.95-9.48-7.04-2.87-3.06-10.61-10.96-14.99-7.46-1.21.97-1.58,3.07-2.66,4.06-2.23,2.03-6.51,2.76-9.34,3.09-6.21.73-13.4.38-19.4-.82-4.21-.84-8.09-1.95-12.49-1.9-3.08.03-4.85.45-7.41,2.26-1.79,1.27-4.02,3.67-6.22,4.31-5.18,1.5-12.15-1.99-16.87-3.6-5.78-1.98-13.13-.28-19.13-.24-5.33.04-11.1-1.49-16.31-.94-3.47.37-6.29,3.13-9.6,3.92-4.72,1.13-10.8-.27-15.67-.26-6.43,0-11.92-3.08-18.15-3.62-5.17-.45-8.71,1.68-13.47,3.16-5.23,1.62-10.59,2.93-15.7,4.95-8.87,3.51-18.65,2.63-28.06,3.33-7.26.54-10.65.67-15.73,6.4-3.43,3.86-7.9,6.81-13.36,5.71-4.71-.94-8.98-3.48-13.81-3.89-3.32-.28-6.77-.19-10.1-.3-7.76-.27-15.16,1.81-22.96,1.82-4.88,0-8.43.15-13.01,2.07-3.76,1.57-7.4,4.03-11.54,4.23-9.51.46-19.38-1.2-28.92-.26-7.79.77-15.12,5.12-22.52,7.4-.22.07-.43.15-.64.22"/>
  </g>
</svg>