<?xml version="1.0" encoding="UTF-8"?>
<svg id="Layer_1" data-name="Layer 1" xmlns="http://www.w3.org/2000/svg" viewBox="0 0 602.97 237.9">
  <defs>
    <style>
      .cls-1 {
        fill: #fff;
      }

      .cls-2 {
        fill: none;
        stroke: #e1c779;
        stroke-miterlimit: 10;
      }
    </style>
  </defs>
  <g>
    <path class="cls-1" d="M89.31,73.09c1.27,0,2.52.16,3.76.48s2.4.79,3.5,1.41,1.99,1.49,2.68,2.6c.68,1.11,1.03,2.39,1.03,3.83,0,1.66-.36,3.12-1.08,4.38s-1.69,2.24-2.91,2.95c-1.22.71-2.54,1.24-3.96,1.59-1.42.35-2.91.53-4.47.53-.76,0-1.5-.04-2.24-.11v.88c0,3.62.35,5.73,1.06,6.34.29.27.75.48,1.36.62h-7.04c.51-.12.96-.33,1.36-.62.71-.59,1.06-3.09,1.06-7.51v-10.45c0-3.59-.35-5.69-1.06-6.3-.42-.32-.87-.53-1.36-.62h8.32ZM97.74,82c0-1.49-.23-2.77-.68-3.83-.45-1.06-1.03-1.89-1.72-2.49-.7-.6-1.61-1.07-2.73-1.41-1.12-.34-2.21-.56-3.24-.66-1.04-.1-2.28-.15-3.72-.15l-.04,16.75c.95.17,1.77.26,2.46.26,1.66,0,3.21-.29,4.66-.88,1.44-.59,2.64-1.54,3.59-2.86.95-1.32,1.43-2.9,1.43-4.73Z"/>
    <path class="cls-1" d="M126.02,76.3c2.65,2.38,3.98,5.49,3.98,9.33s-1.29,7.02-3.89,9.55c-2.59,2.53-5.89,3.79-9.9,3.79s-7.37-1.26-10.03-3.79c-2.65-2.53-3.98-5.72-3.98-9.59s1.28-6.94,3.85-9.31c2.57-2.37,5.88-3.56,9.93-3.56s7.37,1.19,10.03,3.57ZM127.07,85.89c0-1.64-.23-3.21-.7-4.71-.46-1.5-1.14-2.86-2.02-4.07-.88-1.21-2.04-2.18-3.48-2.91-1.44-.73-3.07-1.1-4.88-1.1s-3.47.36-4.91,1.08c-1.44.72-2.59,1.69-3.45,2.91-.86,1.22-1.5,2.57-1.92,4.05-.43,1.48-.64,3.04-.64,4.67,0,2.22.39,4.28,1.17,6.18.78,1.89,2.04,3.47,3.78,4.73s3.8,1.89,6.2,1.89c1.83,0,3.46-.37,4.89-1.1,1.43-.73,2.57-1.71,3.41-2.93.84-1.22,1.48-2.57,1.91-4.05s.64-3.02.64-4.64Z"/>
    <path class="cls-1" d="M140.08,73.09c1.27,0,2.49.16,3.65.48,1.16.32,2.25.79,3.26,1.41,1.01.62,1.83,1.49,2.44,2.6.61,1.11.92,2.39.92,3.83,0,2.86-.93,5.06-2.79,6.62-1.86,1.55-4.2,2.47-7.04,2.77,1.12.15,2.08.47,2.86.97.78.5,1.38,1.04,1.8,1.63.42.59.79,1.17,1.14,1.74.34.57.75,1.05,1.21,1.43s1.03.57,1.69.57h.29c.44-.02.87-.12,1.28-.29.42-.17.72-.34.92-.51l.33-.22c-.29.83-.83,1.47-1.61,1.91-.78.44-1.64.66-2.57.66-.81-.02-1.51-.26-2.11-.7-.6-.44-1.11-.99-1.52-1.65-.42-.66-.83-1.33-1.25-2.02-.42-.68-.97-1.35-1.65-2-.68-.65-1.45-1.13-2.31-1.45-1.17,0-2.05-.04-2.64-.11v.88c0,3.59.35,5.71,1.06,6.34.34.27.79.48,1.36.62h-7.04c.56-.12,1.01-.33,1.36-.62.71-.59,1.06-3.09,1.06-7.51v-10.45c0-3.59-.35-5.69-1.06-6.3-.37-.29-.82-.5-1.36-.62h8.32ZM147.85,82c0-1.49-.2-2.77-.59-3.83-.39-1.06-.89-1.89-1.5-2.49-.61-.6-1.44-1.07-2.47-1.41-1.04-.34-2.07-.56-3.08-.66-1.01-.1-2.27-.15-3.76-.15l-.07,16.75c.95.17,1.76.26,2.42.26,2.52,0,4.66-.73,6.43-2.2,1.77-1.47,2.65-3.56,2.62-6.27Z"/>
    <path class="cls-1" d="M150.57,73.09h21.52v3.96h-.26c-.27-2.39-3.37-3.59-9.31-3.59v17.01c0,3.89.23,6.17.7,6.85.27.64.84,1.06,1.72,1.28h-7.11c.76-.17,1.33-.6,1.72-1.28.42-.66.62-2.94.62-6.85v-17.01c-.83,0-1.52,0-2.07.02-.55.01-1.29.09-2.22.22-.93.13-1.69.31-2.29.53-.6.22-1.17.56-1.72,1.03-.55.46-.91,1.03-1.08,1.69h-.22v-3.85Z"/>
    <path class="cls-1" d="M168.46,98.57c.42-.12.82-.4,1.23-.84.4-.44.73-.87.99-1.3.26-.43.56-1.06.9-1.91.34-.84.59-1.45.73-1.83s.37-1.02.66-1.92l6.23-17.67h2.27l6.64,17.67c.12.27.42,1.02.88,2.25.46,1.23.92,2.3,1.37,3.19.45.89.89,1.52,1.3,1.89.24.22.65.39,1.21.51l-7.37.07c.73-.02,1.27-.2,1.61-.53s.48-.82.4-1.47c-.07-.65-.19-1.23-.35-1.76-.16-.52-.4-1.2-.73-2.03-.33-.83-.54-1.38-.64-1.65l-.73-1.94c-1.08.91-2.76,1.36-5.06,1.36-.17,0-.42,0-.73-.02-.32-.01-.56-.02-.73-.02-2.49,0-4.29.56-5.39,1.69l-.99,3.15c-.25.9-.29,1.61-.13,2.13.16.51.46.84.9.99h-4.47ZM173.37,91.49c.71-.59,1.61-.97,2.69-1.16,1.09-.18,2.11-.24,3.06-.17s1.97.01,3.06-.18c1.09-.2,1.99-.6,2.69-1.21l-5.42-14.59-6.08,17.3Z"/>
    <path class="cls-1" d="M202.51,73.09c1.27,0,2.49.16,3.65.48,1.16.32,2.25.79,3.26,1.41,1.01.62,1.83,1.49,2.44,2.6.61,1.11.92,2.39.92,3.83,0,2.86-.93,5.06-2.79,6.62-1.86,1.55-4.2,2.47-7.04,2.77,1.12.15,2.08.47,2.86.97.78.5,1.38,1.04,1.8,1.63.42.59.79,1.17,1.14,1.74.34.57.75,1.05,1.21,1.43s1.03.57,1.69.57h.29c.44-.02.87-.12,1.28-.29.42-.17.72-.34.92-.51l.33-.22c-.29.83-.83,1.47-1.61,1.91-.78.44-1.64.66-2.57.66-.81-.02-1.51-.26-2.11-.7-.6-.44-1.11-.99-1.52-1.65-.42-.66-.83-1.33-1.25-2.02-.42-.68-.97-1.35-1.65-2-.68-.65-1.45-1.13-2.31-1.45-1.17,0-2.05-.04-2.64-.11v.88c0,3.59.35,5.71,1.06,6.34.34.27.79.48,1.36.62h-7.04c.56-.12,1.01-.33,1.36-.62.71-.59,1.06-3.09,1.06-7.51v-10.45c0-3.59-.35-5.69-1.06-6.3-.37-.29-.82-.5-1.36-.62h8.32ZM210.28,82c0-1.49-.2-2.77-.59-3.83-.39-1.06-.89-1.89-1.5-2.49-.61-.6-1.44-1.07-2.47-1.41-1.04-.34-2.07-.56-3.08-.66-1.01-.1-2.27-.15-3.76-.15l-.07,16.75c.95.17,1.76.26,2.42.26,2.52,0,4.66-.73,6.43-2.2,1.77-1.47,2.65-3.56,2.62-6.27Z"/>
    <path class="cls-1" d="M223.08,73.09c-.59.15-.98.34-1.17.59-.51.39-.84,1.64-.99,3.74-.05,1.03-.07,2.29-.07,3.78v10.45c0,3.59.35,5.71,1.06,6.34.22.27.67.48,1.36.62h-6.82c.34-.1.59-.22.73-.37.37-.17.63-.48.81-.92.29-.49.46-1.62.51-3.41.02-.9.04-2.05.04-3.45v-10.45c0-3.69-.32-5.8-.95-6.34-.32-.27-.72-.46-1.21-.59h6.71Z"/>
    <path class="cls-1" d="M224.95,98.57c.42-.12.82-.4,1.23-.84.4-.44.73-.87.99-1.3s.56-1.06.9-1.91c.34-.84.59-1.45.73-1.83s.37-1.02.66-1.92l6.23-17.67h2.27l6.63,17.67c.12.27.42,1.02.88,2.25.46,1.23.92,2.3,1.38,3.19.45.89.88,1.52,1.3,1.89.24.22.65.39,1.21.51l-7.37.07c.73-.02,1.27-.2,1.61-.53.34-.33.48-.82.4-1.47-.07-.65-.19-1.23-.35-1.76-.16-.52-.4-1.2-.73-2.03-.33-.83-.54-1.38-.64-1.65l-.73-1.94c-1.08.91-2.76,1.36-5.06,1.36-.17,0-.42,0-.73-.02-.32-.01-.56-.02-.73-.02-2.49,0-4.29.56-5.39,1.69l-.99,3.15c-.24.9-.29,1.61-.13,2.13.16.51.46.84.9.99h-4.47ZM229.86,91.49c.71-.59,1.61-.97,2.69-1.16,1.09-.18,2.11-.24,3.06-.17s1.97.01,3.06-.18c1.09-.2,1.99-.6,2.69-1.21l-5.43-14.59-6.08,17.3Z"/>
    <path class="cls-1" d="M260.25,98.61c.49-.1.94-.31,1.36-.62.71-.56,1.06-3.07,1.06-7.51v-10.45c0-3.62-.35-5.73-1.06-6.34-.34-.27-.75-.46-1.21-.59h16.94v3.81h-.22c-.37-1.25-1.17-2.1-2.42-2.57-1.54-.59-4.83-.88-9.86-.88v13.34h4.29c1.52,0,2.54-.2,3.08-.61.54-.4.88-1.39,1.03-2.95h.18v7.37h-.18c-.07-1.61-.5-2.6-1.26-2.95-.77-.35-2.38-.53-4.82-.53h-2.31v6.56c0,2.96.75,4.46,2.24,4.51.44.02,1.19.04,2.24.04,5.67,0,8.74-1.21,9.2-3.63h.26v4h-18.51Z"/>
    <path class="cls-1" d="M289.17,98.57c.42-.12.82-.4,1.23-.84.4-.44.73-.87.99-1.3s.56-1.06.9-1.91c.34-.84.59-1.45.73-1.83s.37-1.02.66-1.92l6.23-17.67h2.27l6.63,17.67c.12.27.42,1.02.88,2.25.46,1.23.92,2.3,1.38,3.19.45.89.88,1.52,1.3,1.89.24.22.65.39,1.21.51l-7.37.07c.73-.02,1.27-.2,1.61-.53.34-.33.48-.82.4-1.47-.07-.65-.19-1.23-.35-1.76-.16-.52-.4-1.2-.73-2.03-.33-.83-.54-1.38-.64-1.65l-.73-1.94c-1.08.91-2.76,1.36-5.06,1.36-.17,0-.42,0-.73-.02-.32-.01-.56-.02-.73-.02-2.49,0-4.29.56-5.39,1.69l-.99,3.15c-.24.9-.29,1.61-.13,2.13.16.51.46.84.9.99h-4.47ZM294.08,91.49c.71-.59,1.61-.97,2.69-1.16,1.09-.18,2.11-.24,3.06-.17s1.97.01,3.06-.18c1.09-.2,1.99-.6,2.69-1.21l-5.43-14.59-6.08,17.3Z"/>
    <path class="cls-1" d="M320.95,73.09c4.42,0,7.67.37,9.75,1.1,2.69.86,4.73,2.34,6.14,4.45,1.41,2.11,2.11,4.5,2.11,7.17,0,4.08-1.44,7.23-4.31,9.46-2.87,2.22-6.57,3.34-11.09,3.34h-8.65c.49-.1.94-.31,1.36-.62.71-.59,1.06-3.09,1.06-7.51v-10.45c0-3.62-.35-5.73-1.06-6.34-.34-.27-.75-.46-1.21-.59h5.9ZM323.08,98.24c8.6,0,12.9-4.13,12.9-12.39,0-4.42-1.14-7.59-3.43-9.51-2.29-1.92-5.55-2.88-9.81-2.88-1.22,0-2.32.05-3.3.15h.07v19.06c0,2.44.24,4.04.73,4.8.22.37.5.61.84.73l1.98.04Z"/>
    <path class="cls-1" d="M344.23,73.09l12.1,19.98,11.69-19.98h4.84c-.51.12-.92.32-1.21.59-.68.56-1.03,3.07-1.03,7.52v10.81c0,3.35.34,5.34,1.03,5.98.32.29.77.5,1.36.62h-6.96c.56-.12,1-.32,1.32-.59.49-.37.78-1.58.88-3.63.07-.63.11-1.54.11-2.71v-17.93l-12.87,21.92-11.36-18.15v13.78c0,1.34.05,2.4.15,3.15.07.73.16,1.33.26,1.8s.33.94.7,1.43c.37.49.87.79,1.5.92h-5.68c.07,0,.16-.01.26-.04.02,0,.05-.01.07-.04,1.42-.39,2.13-2.55,2.13-6.49v-12.46c0-1.2-.25-2.53-.75-4-.5-1.47-1.22-2.33-2.14-2.6l3.63.11Z"/>
    <path class="cls-1" d="M382.28,73.09c-.59.15-.98.34-1.17.59-.51.39-.84,1.64-.99,3.74-.05,1.03-.07,2.29-.07,3.78v10.45c0,3.59.35,5.71,1.06,6.34.22.27.67.48,1.36.62h-6.82c.34-.1.59-.22.73-.37.37-.17.63-.48.81-.92.29-.49.46-1.62.51-3.41.02-.9.04-2.05.04-3.45v-10.45c0-3.69-.32-5.8-.95-6.34-.32-.27-.72-.46-1.21-.59h6.71Z"/>
    <path class="cls-1" d="M408.89,73.09c-.37.1-.64.21-.81.33-1.1.68-1.65,2.97-1.65,6.85v18.51h-.92l-17.01-22.51v15.03c0,3.86.53,6.16,1.58,6.89.29.17.63.31,1.03.4h-5.79c.32-.07.65-.21.99-.4,1.07-.73,1.61-3.03,1.61-6.89v-11.03c0-.2,0-.63.02-1.32.01-.68.01-1.12,0-1.3-.01-.18-.04-.54-.07-1.06-.04-.53-.1-.87-.18-1.04s-.21-.43-.37-.79c-.16-.35-.35-.61-.59-.75s-.52-.31-.86-.5c-.34-.18-.75-.32-1.21-.42h4.22l16.9,22.36.11-14.66v-.51c0-3.86-.55-6.15-1.65-6.85-.2-.12-.48-.23-.84-.33h5.5Z"/>
    <path class="cls-1" d="M418.17,73.09c-.59.15-.98.34-1.17.59-.51.39-.84,1.64-.99,3.74-.05,1.03-.07,2.29-.07,3.78v10.45c0,3.59.35,5.71,1.06,6.34.22.27.67.48,1.36.62h-6.82c.34-.1.59-.22.73-.37.37-.17.63-.48.81-.92.29-.49.46-1.62.51-3.41.02-.9.04-2.05.04-3.45v-10.45c0-3.69-.32-5.8-.95-6.34-.32-.27-.72-.46-1.21-.59h6.71Z"/>
    <path class="cls-1" d="M422.24,87.43c-.17.86-.23,1.77-.18,2.75.05.98.3,1.97.75,2.97s1,1.9,1.63,2.69,1.47,1.45,2.51,1.96c1.04.51,2.16.77,3.35.77h.18c2.47-.05,4.5-.93,6.1-2.64,1.6-1.71,2.06-3.67,1.38-5.87-.39-1.27-1.2-2.29-2.44-3.04-1.23-.76-2.57-1.33-4-1.7s-2.84-.79-4.23-1.23c-1.39-.44-2.53-1.15-3.41-2.13s-1.28-2.29-1.21-3.92c.05-1.56.77-2.84,2.16-3.83,1.39-.99,3.32-1.49,5.79-1.49,2.86,0,5.36.49,7.51,1.47,0,1.59-.2,3.53-.59,5.83h-.26c.34-4.5-1.87-6.81-6.63-6.93-1.44,0-2.74.42-3.89,1.25-1.15.83-1.77,1.94-1.87,3.34-.07,1.17.35,2.11,1.26,2.8.92.7,2.07,1.23,3.46,1.61,1.39.38,2.8.79,4.23,1.25s2.72,1.2,3.89,2.25,1.88,2.41,2.14,4.07c.42,2.64-.38,4.86-2.38,6.67s-4.41,2.69-7.22,2.64c-1.66-.02-3.38-.4-5.15-1.14-1.77-.73-3.02-1.83-3.76-3.3,0-3.23.13-5.58.4-7.07l.44-.04Z"/>
    <path class="cls-1" d="M440.34,73.09h21.52v3.96h-.26c-.27-2.39-3.37-3.59-9.31-3.59v17.01c0,3.89.23,6.17.7,6.85.27.64.84,1.06,1.72,1.28h-7.11c.76-.17,1.33-.6,1.72-1.28.42-.66.62-2.94.62-6.85v-17.01c-.83,0-1.52,0-2.07.02-.55.01-1.29.09-2.22.22-.93.13-1.69.31-2.29.53-.6.22-1.17.56-1.72,1.03-.55.46-.91,1.03-1.08,1.69h-.22v-3.85Z"/>
    <path class="cls-1" d="M471.83,73.09c1.27,0,2.49.16,3.65.48,1.16.32,2.25.79,3.26,1.41,1.01.62,1.83,1.49,2.44,2.6.61,1.11.92,2.39.92,3.83,0,2.86-.93,5.06-2.79,6.62-1.86,1.55-4.2,2.47-7.04,2.77,1.12.15,2.08.47,2.86.97.78.5,1.38,1.04,1.8,1.63.42.59.79,1.17,1.14,1.74.34.57.75,1.05,1.21,1.43.46.38,1.03.57,1.69.57h.29c.44-.02.87-.12,1.28-.29.42-.17.72-.34.92-.51l.33-.22c-.29.83-.83,1.47-1.61,1.91-.78.44-1.64.66-2.57.66-.81-.02-1.51-.26-2.11-.7-.6-.44-1.11-.99-1.52-1.65-.42-.66-.83-1.33-1.25-2.02-.42-.68-.97-1.35-1.65-2-.68-.65-1.45-1.13-2.31-1.45-1.17,0-2.05-.04-2.64-.11v.88c0,3.59.35,5.71,1.06,6.34.34.27.79.48,1.36.62h-7.04c.56-.12,1.01-.33,1.36-.62.71-.59,1.06-3.09,1.06-7.51v-10.45c0-3.59-.35-5.69-1.06-6.3-.37-.29-.82-.5-1.36-.62h8.32ZM479.61,82c0-1.49-.2-2.77-.59-3.83-.39-1.06-.89-1.89-1.5-2.49-.61-.6-1.44-1.07-2.47-1.41-1.04-.34-2.07-.56-3.08-.66-1.01-.1-2.27-.15-3.76-.15l-.07,16.75c.95.17,1.76.26,2.42.26,2.52,0,4.66-.73,6.43-2.2,1.77-1.47,2.64-3.56,2.62-6.27Z"/>
    <path class="cls-1" d="M484.19,98.57c.42-.12.82-.4,1.23-.84.4-.44.73-.87.99-1.3s.56-1.06.9-1.91c.34-.84.59-1.45.73-1.83s.37-1.02.66-1.92l6.23-17.67h2.27l6.63,17.67c.12.27.42,1.02.88,2.25.46,1.23.92,2.3,1.38,3.19.45.89.88,1.52,1.3,1.89.24.22.65.39,1.21.51l-7.37.07c.73-.02,1.27-.2,1.61-.53.34-.33.48-.82.4-1.47-.07-.65-.19-1.23-.35-1.76-.16-.52-.4-1.2-.73-2.03-.33-.83-.54-1.38-.64-1.65l-.73-1.94c-1.08.91-2.76,1.36-5.06,1.36-.17,0-.42,0-.73-.02-.32-.01-.56-.02-.73-.02-2.49,0-4.29.56-5.39,1.69l-.99,3.15c-.24.9-.29,1.61-.13,2.13.16.51.46.84.9.99h-4.47ZM489.1,91.49c.71-.59,1.61-.97,2.69-1.16,1.09-.18,2.11-.24,3.06-.17s1.97.01,3.06-.18c1.09-.2,1.99-.6,2.69-1.21l-5.43-14.59-6.08,17.3Z"/>
    <path class="cls-1" d="M521.25,98.86c-3.42-.39-6.13-1.78-8.14-4.16-2-2.38-3.01-5.33-3.01-8.85,0-3.86,1.19-7,3.57-9.42,2.38-2.42,5.54-3.65,9.48-3.7,2.2,0,4.11.28,5.72.83,1.61.55,3.32,1.5,5.13,2.84v6.01h-.22c-.02-1.49-.38-2.85-1.06-4.07s-1.55-2.21-2.6-2.95c-1.05-.75-2.18-1.31-3.39-1.71-1.21-.39-2.4-.59-3.57-.59-1.81,0-3.39.36-4.73,1.08-1.34.72-2.39,1.7-3.15,2.93-.76,1.23-1.32,2.57-1.69,4.01-.37,1.44-.55,2.99-.55,4.66,0,2.1.26,4.03.79,5.77.52,1.75,1.45,3.27,2.79,4.56,1.33,1.3,3,2.05,5,2.27l.07-.15h.95l-.11.18h.7c1.98-.07,3.79-.63,5.44-1.67,1.65-1.04,2.92-2.23,3.81-3.57.89-1.34,1.47-2.7,1.74-4.07l.4.15c-.42,2.47-1.71,4.7-3.89,6.69-2.17,1.99-4.62,3-7.33,3.02-.56,0-.98-.01-1.25-.04l-1.25,1.87c.44-.05.83-.07,1.17-.07,2.76,0,4.14.87,4.14,2.6,0,.68-.17,1.27-.51,1.76-.34.49-.78.84-1.32,1.06-.54.22-1.01.37-1.41.46-.4.08-.78.13-1.12.13-.66,0-1.36-.12-2.09-.35-.73-.23-1.1-.62-1.1-1.16,0-.2.06-.37.18-.53.12-.16.28-.24.48-.24.24,0,.46.13.66.4.2.27.45.54.75.83.31.28.7.42,1.19.42.42,0,.82-.05,1.21-.17.39-.11.78-.37,1.15-.77s.57-.95.57-1.63c0-.49-.22-.88-.66-1.17-.44-.29-.89-.48-1.34-.55s-.93-.11-1.45-.11c-.22,0-.5.02-.84.05-.34.04-.59.05-.73.05-.2,0-.29-.12-.29-.37,0-.05.15-.29.44-.73l1.25-1.87Z"/>
    <path class="cls-1" d="M535.54,98.57c.42-.12.82-.4,1.23-.84.4-.44.73-.87.99-1.3s.56-1.06.9-1.91c.34-.84.59-1.45.73-1.83s.37-1.02.66-1.92l6.23-17.67h2.27l6.63,17.67c.12.27.42,1.02.88,2.25.46,1.23.92,2.3,1.38,3.19.45.89.88,1.52,1.3,1.89.24.22.65.39,1.21.51l-7.37.07c.73-.02,1.27-.2,1.61-.53.34-.33.48-.82.4-1.47-.07-.65-.19-1.23-.35-1.76-.16-.52-.4-1.2-.73-2.03-.33-.83-.54-1.38-.64-1.65l-.73-1.94c-1.08.91-2.76,1.36-5.06,1.36-.17,0-.42,0-.73-.02-.32-.01-.56-.02-.73-.02-2.49,0-4.29.56-5.39,1.69l-.99,3.15c-.24.9-.29,1.61-.13,2.13.16.51.46.84.9.99h-4.47ZM540.46,91.49c.71-.59,1.61-.97,2.69-1.16,1.09-.18,2.11-.24,3.06-.17s1.97.01,3.06-.18c1.09-.2,1.99-.6,2.69-1.21l-5.43-14.59-6.08,17.3ZM550.43,70.31c-.73,0-1.69-.42-2.86-1.25s-2.03-1.25-2.57-1.25c-.44,0-.83.18-1.17.55-.34.37-.6.73-.79,1.08-.18.35-.31.53-.38.53-.2,0-.32-.08-.37-.26.02-.76.43-1.48,1.21-2.16.78-.68,1.55-1.03,2.31-1.03s1.74.42,2.93,1.25c1.2.83,2.03,1.25,2.49,1.25.44,0,.83-.18,1.17-.53.34-.35.61-.71.79-1.08.18-.37.31-.55.38-.55.2,0,.32.09.37.26-.02.76-.43,1.48-1.21,2.16-.78.68-1.55,1.03-2.31,1.03Z"/>
    <path class="cls-1" d="M582.92,76.3c2.65,2.38,3.98,5.49,3.98,9.33s-1.3,7.02-3.89,9.55c-2.59,2.53-5.89,3.79-9.9,3.79s-7.37-1.26-10.03-3.79c-2.65-2.53-3.98-5.72-3.98-9.59s1.28-6.94,3.85-9.31c2.57-2.37,5.88-3.56,9.93-3.56s7.37,1.19,10.03,3.57ZM583.97,85.89c0-1.64-.23-3.21-.7-4.71s-1.14-2.86-2.02-4.07-2.04-2.18-3.48-2.91c-1.44-.73-3.07-1.1-4.88-1.1s-3.47.36-4.91,1.08c-1.44.72-2.59,1.69-3.45,2.91-.86,1.22-1.5,2.57-1.92,4.05-.43,1.48-.64,3.04-.64,4.67,0,2.22.39,4.28,1.17,6.18.78,1.89,2.04,3.47,3.78,4.73,1.73,1.26,3.8,1.89,6.19,1.89,1.83,0,3.46-.37,4.89-1.1s2.57-1.71,3.41-2.93c.84-1.22,1.48-2.57,1.91-4.05.43-1.48.64-3.02.64-4.64Z"/>
  </g>
  <path class="cls-2" d="M441.55,159.32c-6.38,1.28-11.59-2.16-15.59-6.66-5.93-6.68-9.88-6.83-18.35-7.46-10.98-.82-22.39.2-32.74-3.89-5.96-2.36-12.22-3.88-18.32-5.77-5.55-1.72-9.69-4.21-15.72-3.69-7.27.64-13.67,4.23-21.17,4.23-5.67,0-12.77,1.63-18.28.31-3.86-.93-7.15-4.14-11.2-4.57-6.08-.65-12.82,1.14-19.03,1.09-7-.05-15.58-2.03-22.32.28-5.52,1.88-13.64,5.96-19.68,4.21-2.57-.74-5.16-3.54-7.26-5.02-2.98-2.12-5.04-2.6-8.64-2.64-5.13-.06-9.66,1.24-14.57,2.22-7,1.4-15.39,1.81-22.64.95-3.3-.39-8.3-1.24-10.9-3.61-1.27-1.15-1.69-3.6-3.1-4.73-5.11-4.08-14.14,5.13-17.49,8.7-3.37,3.6-7.23,5.25-11.06,8.21-3.13,2.41-5.25,6.1-7.48,9.08-4.23,5.64-10.53,12.09-6.29,17.48,3.32,4.22,1.15,9.94-1.06,11.05-2.17,1.09-10.82-1.87-12.76-2.63-3.42-1.35-4.32-5.15-6.73-7.89-2.49-2.82-5.77-4.01-8.45-6.87-1.97-2.1-4.43-6.52-5.12-9.2-.93-3.62.38-7.62-.55-11.15-.5-1.89-2.42-5.17-4.5-5.21-1.35-.03-2.99,1.81-4.31,2.09-3.3.7-7.24-.34-10.6-.02-4.05.38-5.9,1.65-8.99,4.49-4.28,3.95-8.02,3.7-13.73,4.89-5.22,1.09-9.87,3.07-15.55,2.27-3.91-.55-7.35-1.91-11.54-1.79-3.68.1-7.38.98-11.09,1.07-7.7.19-13.56-3.2-20.81-4.16-8.9-1.17-17.43-.13-26.31-1.8-6.41-1.21-13.95-1.36-20.2.04-9.06,2.03-17.71,7.33-26.99,7.69-9.79.37-21.98,1.5-31.73,0-3.58-.55-6.92-1.7-10.76-1.76-6.76-.11-13.44,1.38-20.15,1.78-3.2.19-6.45-.2-9.64.06-4.73.4-9,2.54-13.57,3.25-6.39.99-13.24-2.65-19.81-2.27-4.54.27-8.81,1.72-13.46,1.77-4.05.04-4.74.05-7.57,2.64-3.32,3.04-5.82,6.63-9.64,8.38-2.28,1.04-4.84,1.96-7.3,2.39-6.49,1.13-12.4,4.1-18.53,5.66-4.72,1.2-10.02,1.14-14.87,1.92-3.14.5-6.07.54-9.25.54-5.97,0-11.62-.38-17.3-1.03-2.55-.29-4.38.71-6.65,1.03-4.49.64-8.6-.68-12.88-1.33-5.18-.79-10.73.27-15.97.27s-10.09-.79-15.15-1.06c-2.33-.12-5.01-.26-7.33,0-2.61.3-4.63,1.68-7.2,2.13-5.53.96-11.37-.1-16.89.89-3.07.55-6.13.27-9.11,1.23-2.34.76-4.46,2.35-6.76,3.18-4.9,1.75-10.74-1.62-16.05-1.77-4.42-.13-9.6.74-13.74-.35-1.03-.27-2.5-.78-3.97-1.33v.02c-1.47.55-2.95,1.06-3.97,1.33-4.14,1.09-9.32.22-13.74.35-5.32.15-11.15,3.53-16.05,1.77-2.3-.82-4.42-2.42-6.76-3.18-2.98-.96-6.04-.68-9.11-1.23-5.52-.99-11.36.07-16.89-.89-2.56-.44-4.59-1.83-7.2-2.13-2.32-.26-4.99-.12-7.33,0-5.06.27-9.91,1.06-15.15,1.06s-10.79-1.06-15.97-.27c-4.28.65-8.39,1.97-12.88,1.33-2.27-.32-4.1-1.32-6.65-1.03-5.69.65-11.34,1.03-17.3,1.03-3.18,0-6.11-.04-9.25-.54-4.85-.78-10.15-.73-14.87-1.92-6.13-1.56-12.04-4.53-18.53-5.66-2.46-.43-5.03-1.35-7.3-2.39-3.82-1.75-6.32-5.34-9.64-8.38-2.83-2.59-3.52-2.6-7.57-2.64-4.65-.04-8.93-1.5-13.46-1.77-6.58-.39-13.43,3.26-19.81,2.27-4.57-.71-8.84-2.85-13.57-3.25-3.19-.27-6.44.13-9.64-.06-6.71-.4-13.39-1.89-20.15-1.78-3.84.06-7.19,1.21-10.76,1.76-9.74,1.5-21.94.37-31.73,0-9.27-.36-17.93-5.66-26.99-7.69-6.25-1.4-13.79-1.25-20.2-.04-8.88,1.68-17.41.63-26.31,1.8-7.25.95-13.1,4.35-20.81,4.16-3.71-.09-7.41-.97-11.09-1.07-4.19-.12-7.63,1.24-11.54,1.79-5.68.8-10.33-1.18-15.55-2.27-5.71-1.19-9.45-.94-13.73-4.89-3.09-2.85-4.94-4.11-8.99-4.49-3.36-.32-7.3.72-10.6.02-1.31-.28-2.96-2.11-4.31-2.09-2.08.04-44.93-15.73-84.62-6.84-3.43.77-7.6,3.22-10.9,3.61-7.25.85-15.63.44-22.64-.95-4.92-.98-9.44-2.27-14.57-2.22-3.6.04-5.66.53-8.64,2.64-2.09,1.49-4.69,4.28-7.26,5.02-6.04,1.75-14.17-2.32-19.68-4.21-6.75-2.31-15.32-.32-22.32-.28-6.21.04-12.95-1.74-19.03-1.09-4.05.43-7.34,3.65-11.2,4.57-5.5,1.32-12.6-.31-18.28-.31-7.5,0-13.91-3.59-21.17-4.23-6.03-.53-10.16,1.96-15.72,3.69-6.1,1.89-12.36,3.41-18.32,5.77-10.34,4.09-21.76,3.07-32.74,3.89-8.47.63-12.42.78-18.35,7.46-4,4.51-9.21,7.94-15.59,6.66-5.49-1.1-10.47-4.05-16.11-4.54-3.88-.33-7.9-.22-11.78-.35-9.05-.32-17.68,2.11-26.78,2.12-5.7,0-9.84.18-15.18,2.41-4.38,1.83-8.63,4.71-13.46,4.94-11.1.53-22.61-1.4-33.73-.3-9.08.89-17.64,5.98-26.27,8.64-.25.08-.5.17-.75.26"/>
  <g>
    <path class="cls-1" d="M90.42,44.03h-4.65l-.8,2.27h-1.9l3.98-11.12h2.11l3.98,11.12h-1.92l-.8-2.27ZM89.91,42.54l-1.81-5.16-1.82,5.16h3.63Z"/>
    <path class="cls-1" d="M106.56,35.19v11.1h-1.82v-7.61l-3.39,7.61h-1.26l-3.4-7.61v7.61h-1.82v-11.1h1.97l3.9,8.71,3.88-8.71h1.95Z"/>
    <path class="cls-1" d="M110.78,36.66v3.26h3.83v1.49h-3.83v3.4h4.31v1.49h-6.14v-11.12h6.14v1.49h-4.31Z"/>
    <path class="cls-1" d="M126.45,46.3h-1.82l-5.48-8.29v8.29h-1.82v-11.12h1.82l5.48,8.28v-8.28h1.82v11.12Z"/>
    <path class="cls-1" d="M130.67,35.19v11.1h-1.82v-11.1h1.82Z"/>
    <path class="cls-1" d="M140.24,35.19v1.49h-2.96v9.62h-1.82v-9.62h-2.97v-1.49h7.75Z"/>
    <path class="cls-1" d="M143.9,35.19v11.1h-1.82v-11.1h1.82Z"/>
    <path class="cls-1" d="M148.11,36.66v3.26h3.83v1.49h-3.83v3.4h4.31v1.49h-6.14v-11.12h6.14v1.49h-4.31Z"/>
    <path class="cls-1" d="M156.31,46.02c-.6-.26-1.06-.63-1.41-1.11-.34-.48-.51-1.04-.51-1.68h1.95c.04.48.23.87.57,1.18.34.31.81.46,1.41.46s1.12-.15,1.47-.46c.35-.3.53-.7.53-1.17,0-.37-.11-.68-.33-.91s-.49-.42-.81-.54c-.33-.13-.77-.27-1.35-.42-.72-.19-1.31-.39-1.77-.58s-.84-.5-1.16-.92c-.32-.42-.48-.97-.48-1.66,0-.64.16-1.2.48-1.68.32-.48.77-.85,1.34-1.1s1.24-.38,2-.38c1.08,0,1.96.27,2.64.81.69.54,1.07,1.28,1.14,2.21h-2.01c-.03-.4-.22-.75-.58-1.04-.35-.29-.81-.43-1.39-.43-.52,0-.95.13-1.28.4-.33.27-.5.65-.5,1.15,0,.34.1.62.31.84.21.22.47.39.79.52.32.13.76.27,1.31.42.73.2,1.33.41,1.8.61s.86.51,1.18.93.49.98.49,1.69c0,.56-.15,1.1-.46,1.6-.3.5-.75.9-1.33,1.21-.58.3-1.27.46-2.05.46-.75,0-1.42-.13-2.01-.39Z"/>
    <path class="cls-1" d="M170.29,36.66v3.26h3.83v1.49h-3.83v3.4h4.31v1.49h-6.14v-11.12h6.14v1.49h-4.31Z"/>
    <path class="cls-1" d="M181.94,40.75l3.45,5.54h-2.05l-2.51-4.03-2.35,4.03h-2.03l3.45-5.54-3.47-5.56h2.04l2.52,4.06,2.36-4.06h2.03l-3.47,5.56Z"/>
    <path class="cls-1" d="M187.54,37.8c.51-.86,1.19-1.54,2.06-2.02.87-.49,1.82-.73,2.85-.73,1.18,0,2.23.29,3.16.87s1.59,1.4,2,2.47h-2.19c-.29-.59-.69-1.02-1.2-1.31-.51-.29-1.1-.43-1.77-.43-.74,0-1.39.17-1.97.5-.58.33-1.03.8-1.35,1.42-.33.62-.49,1.34-.49,2.16s.16,1.54.49,2.16c.32.62.77,1.09,1.35,1.43.58.34,1.23.5,1.97.5.67,0,1.26-.14,1.77-.43.51-.29.91-.72,1.2-1.31h2.19c-.42,1.07-1.08,1.89-2,2.46s-1.97.86-3.16.86c-1.04,0-2-.24-2.86-.73-.86-.48-1.55-1.16-2.05-2.02-.51-.86-.76-1.84-.76-2.92s.25-2.06.76-2.92Z"/>
    <path class="cls-1" d="M201.56,44.83h3.75v1.47h-5.58v-11.1h1.82v9.63Z"/>
    <path class="cls-1" d="M208.63,35.19v7.08c0,.84.22,1.48.66,1.9s1.06.64,1.85.64,1.42-.21,1.86-.64c.44-.43.66-1.06.66-1.9v-7.08h1.82v7.05c0,.91-.2,1.67-.59,2.3-.39.63-.92,1.1-1.58,1.41-.66.31-1.39.46-2.19.46s-1.53-.15-2.18-.46c-.66-.31-1.17-.78-1.56-1.41-.38-.63-.58-1.39-.58-2.3v-7.05h1.82Z"/>
    <path class="cls-1" d="M219.5,46.02c-.6-.26-1.06-.63-1.41-1.11-.34-.48-.51-1.04-.51-1.68h1.95c.04.48.23.87.57,1.18.34.31.81.46,1.41.46s1.12-.15,1.47-.46c.35-.3.53-.7.53-1.17,0-.37-.11-.68-.33-.91s-.49-.42-.81-.54c-.33-.13-.77-.27-1.35-.42-.72-.19-1.31-.39-1.77-.58s-.84-.5-1.16-.92c-.32-.42-.48-.97-.48-1.66,0-.64.16-1.2.48-1.68.32-.48.77-.85,1.34-1.1s1.24-.38,2-.38c1.08,0,1.96.27,2.64.81.69.54,1.07,1.28,1.14,2.21h-2.01c-.03-.4-.22-.75-.58-1.04-.35-.29-.81-.43-1.39-.43-.52,0-.95.13-1.28.4-.33.27-.5.65-.5,1.15,0,.34.1.62.31.84.21.22.47.39.79.52.32.13.76.27,1.31.42.73.2,1.33.41,1.8.61s.86.51,1.18.93.49.98.49,1.69c0,.56-.15,1.1-.46,1.6-.3.5-.75.9-1.33,1.21-.58.3-1.27.46-2.05.46-.75,0-1.42-.13-2.01-.39Z"/>
    <path class="cls-1" d="M229.32,35.19v11.1h-1.82v-11.1h1.82Z"/>
    <path class="cls-1" d="M241.29,35.19l-4.17,11.1h-2.11l-4.19-11.1h1.95l3.29,9.24,3.31-9.24h1.92Z"/>
    <path class="cls-1" d="M245.02,45.68c-.87-.48-1.56-1.16-2.06-2.03-.51-.87-.76-1.84-.76-2.93s.25-2.06.76-2.92c.51-.86,1.19-1.54,2.06-2.02.87-.49,1.82-.73,2.85-.73s2,.24,2.87.73c.87.48,1.55,1.16,2.05,2.02.5.86.75,1.84.75,2.92s-.25,2.06-.75,2.93c-.5.87-1.18,1.54-2.05,2.03-.87.49-1.82.73-2.87.73s-1.98-.24-2.85-.73ZM249.84,44.32c.58-.33,1.02-.81,1.35-1.44.33-.62.49-1.34.49-2.17s-.16-1.54-.49-2.16c-.33-.62-.77-1.09-1.35-1.42-.58-.33-1.23-.5-1.97-.5s-1.39.17-1.96.5c-.58.33-1.03.8-1.35,1.42-.33.62-.49,1.34-.49,2.16s.16,1.54.49,2.17c.32.62.77,1.1,1.35,1.44.58.34,1.23.5,1.96.5s1.39-.17,1.97-.5Z"/>
    <path class="cls-1" d="M256.98,46.02c-.6-.26-1.07-.63-1.41-1.11-.34-.48-.51-1.04-.51-1.68h1.95c.04.48.23.87.57,1.18.33.31.81.46,1.41.46s1.12-.15,1.47-.46c.35-.3.53-.7.53-1.17,0-.37-.11-.68-.33-.91-.22-.23-.49-.42-.81-.54-.33-.13-.78-.27-1.35-.42-.72-.19-1.31-.39-1.76-.58-.45-.2-.84-.5-1.16-.92-.32-.42-.48-.97-.48-1.66,0-.64.16-1.2.48-1.68.32-.48.77-.85,1.34-1.1s1.24-.38,2-.38c1.08,0,1.96.27,2.64.81.69.54,1.07,1.28,1.14,2.21h-2.01c-.03-.4-.22-.75-.58-1.04-.35-.29-.82-.43-1.39-.43-.52,0-.95.13-1.28.4-.33.27-.5.65-.5,1.15,0,.34.1.62.31.84.21.22.47.39.79.52.32.13.76.27,1.31.42.73.2,1.33.41,1.8.61.46.2.86.51,1.18.93s.49.98.49,1.69c0,.56-.15,1.1-.46,1.6s-.75.9-1.33,1.21c-.58.3-1.26.46-2.05.46-.75,0-1.42-.13-2.01-.39Z"/>
    <path class="cls-1" d="M275.87,35.87c.89.45,1.58,1.1,2.06,1.95.49.85.73,1.83.73,2.96s-.24,2.11-.73,2.94c-.48.83-1.17,1.47-2.06,1.91-.89.44-1.92.66-3.11.66h-3.63v-11.1h3.63c1.18,0,2.22.23,3.11.68ZM275.75,43.76c.69-.7,1.04-1.69,1.04-2.97s-.35-2.3-1.04-3.02c-.69-.72-1.69-1.09-2.99-1.09h-1.81v8.13h1.81c1.3,0,2.29-.35,2.99-1.05Z"/>
    <path class="cls-1" d="M282.68,45.68c-.87-.48-1.56-1.16-2.06-2.03-.51-.87-.76-1.84-.76-2.93s.25-2.06.76-2.92c.51-.86,1.19-1.54,2.06-2.02.87-.49,1.82-.73,2.85-.73s2,.24,2.87.73c.87.48,1.55,1.16,2.05,2.02.5.86.75,1.84.75,2.92s-.25,2.06-.75,2.93c-.5.87-1.18,1.54-2.05,2.03-.87.49-1.82.73-2.87.73s-1.98-.24-2.85-.73ZM287.5,44.32c.58-.33,1.02-.81,1.35-1.44s.49-1.34.49-2.17-.16-1.54-.49-2.16c-.33-.62-.77-1.09-1.35-1.42-.58-.33-1.23-.5-1.97-.5s-1.39.17-1.96.5c-.58.33-1.03.8-1.35,1.42-.33.62-.49,1.34-.49,2.16s.16,1.54.49,2.17c.32.62.77,1.1,1.35,1.44.58.34,1.23.5,1.96.5s1.39-.17,1.97-.5Z"/>
    <path class="cls-1" d="M306.71,35.19l-4.17,11.1h-2.11l-4.19-11.1h1.95l3.29,9.24,3.31-9.24h1.92Z"/>
    <path class="cls-1" d="M310.05,35.19v11.1h-1.82v-11.1h1.82Z"/>
    <path class="cls-1" d="M314.27,44.83h3.75v1.47h-5.58v-11.1h1.82v9.63Z"/>
    <path class="cls-1" d="M321.37,44.83h3.75v1.47h-5.58v-11.1h1.82v9.63Z"/>
    <path class="cls-1" d="M333.33,44.03h-4.65l-.8,2.27h-1.9l3.98-11.12h2.11l3.98,11.12h-1.92l-.8-2.27ZM332.82,42.54l-1.81-5.16-1.82,5.16h3.63Z"/>
    <path class="cls-1" d="M347.34,35.19l-4.17,11.1h-2.11l-4.19-11.1h1.95l3.29,9.24,3.31-9.24h1.92Z"/>
    <path class="cls-1" d="M350.68,35.19v11.1h-1.82v-11.1h1.82Z"/>
    <path class="cls-1" d="M354.72,46.02c-.6-.26-1.07-.63-1.41-1.11-.34-.48-.51-1.04-.51-1.68h1.95c.04.48.23.87.57,1.18.33.31.81.46,1.41.46s1.12-.15,1.47-.46c.35-.3.53-.7.53-1.17,0-.37-.11-.68-.33-.91-.22-.23-.49-.42-.81-.54-.33-.13-.78-.27-1.35-.42-.72-.19-1.31-.39-1.76-.58-.45-.2-.84-.5-1.16-.92-.32-.42-.48-.97-.48-1.66,0-.64.16-1.2.48-1.68.32-.48.77-.85,1.34-1.1s1.24-.38,2-.38c1.08,0,1.96.27,2.64.81.69.54,1.07,1.28,1.14,2.21h-2.01c-.03-.4-.22-.75-.58-1.04-.35-.29-.82-.43-1.39-.43-.52,0-.95.13-1.28.4-.33.27-.5.65-.5,1.15,0,.34.1.62.31.84.21.22.47.39.79.52.32.13.76.27,1.31.42.73.2,1.33.41,1.8.61.46.2.86.51,1.18.93s.49.98.49,1.69c0,.56-.15,1.1-.46,1.6s-.75.9-1.33,1.21c-.58.3-1.26.46-2.05.46-.75,0-1.42-.13-2.01-.39Z"/>
    <path class="cls-1" d="M369.9,35.19v1.49h-2.96v9.62h-1.82v-9.62h-2.97v-1.49h7.75Z"/>
    <path class="cls-1" d="M378.43,44.03h-4.65l-.8,2.27h-1.9l3.98-11.12h2.11l3.98,11.12h-1.92l-.8-2.27ZM377.92,42.54l-1.81-5.16-1.82,5.16h3.63Z"/>
  </g>
  <g>
    <path class="cls-1" d="M147.75,175.27c-.16.31-.43.56-.79.75-.36.19-.82.29-1.39.29h-1.24v2.77h-1.12v-6.83h2.36c.52,0,.97.09,1.33.27.36.18.64.42.82.73.18.31.27.65.27,1.03,0,.35-.08.67-.25.98ZM146.53,175.11c.21-.19.31-.47.31-.82,0-.75-.42-1.12-1.27-1.12h-1.24v2.23h1.24c.43,0,.74-.1.95-.29Z"/>
    <path class="cls-1" d="M153.99,176.79h-4.14c.03.43.19.78.48,1.04.29.26.64.39,1.06.39.6,0,1.03-.25,1.28-.76h1.21c-.16.5-.46.91-.89,1.22-.43.32-.96.48-1.6.48-.52,0-.98-.12-1.39-.35-.41-.23-.73-.56-.96-.98-.23-.42-.35-.91-.35-1.47s.11-1.05.34-1.47c.23-.42.54-.75.95-.98.41-.23.88-.34,1.41-.34s.97.11,1.37.33.71.54.93.94.33.87.33,1.39c0,.2-.01.39-.04.55ZM152.86,175.89c0-.41-.15-.74-.44-.99-.29-.25-.65-.37-1.07-.37-.39,0-.72.12-.99.37-.27.25-.44.58-.49,1h3Z"/>
    <path class="cls-1" d="M156.9,173.81c.27-.15.59-.23.97-.23v1.16h-.28c-.44,0-.77.11-1,.33-.23.22-.34.61-.34,1.16v2.85h-1.12v-5.41h1.12v.79c.16-.28.38-.49.65-.64Z"/>
    <path class="cls-1" d="M159.72,178.94c-.34-.15-.6-.36-.8-.63-.2-.26-.3-.56-.31-.89h1.16c.02.23.13.42.33.58.2.15.45.23.75.23s.56-.06.73-.18.26-.28.26-.47c0-.2-.1-.35-.29-.45-.19-.1-.5-.21-.92-.32-.41-.11-.74-.22-.99-.32-.26-.11-.48-.27-.66-.48-.19-.22-.28-.5-.28-.85,0-.29.08-.55.26-.79s.41-.43.73-.56c.32-.14.68-.21,1.1-.21.62,0,1.11.16,1.49.47.38.31.58.74.6,1.27h-1.12c-.02-.24-.12-.44-.29-.58-.18-.14-.42-.22-.72-.22s-.52.06-.68.17-.24.26-.24.44c0,.14.05.26.16.36.1.1.23.17.38.23.15.06.37.13.67.21.39.11.72.21.97.32.25.11.47.27.65.48.18.21.28.49.28.83,0,.31-.08.58-.26.83s-.41.43-.72.57-.68.21-1.1.21-.81-.08-1.14-.23Z"/>
    <path class="cls-1" d="M166.04,173.84c.33-.17.7-.25,1.11-.25.47,0,.9.12,1.29.35s.7.56.92.98c.22.42.33.9.33,1.44s-.11,1.03-.33,1.46c-.22.43-.53.76-.92,1-.39.24-.82.36-1.29.36-.41,0-.78-.08-1.1-.25s-.58-.38-.79-.62v3.36h-1.12v-7.99h1.12v.8c.19-.25.45-.46.78-.63ZM168.32,175.38c-.15-.27-.36-.48-.61-.62-.25-.14-.52-.21-.81-.21s-.55.07-.8.22c-.25.14-.46.35-.61.63-.15.28-.23.6-.23.97s.08.7.23.98c.15.28.36.49.61.63.25.14.52.22.8.22s.56-.07.81-.22c.25-.15.46-.36.61-.64.15-.28.23-.61.23-.98s-.08-.7-.23-.97Z"/>
    <path class="cls-1" d="M175.72,176.79h-4.14c.03.43.19.78.48,1.04.29.26.64.39,1.06.39.6,0,1.03-.25,1.28-.76h1.21c-.16.5-.46.91-.89,1.22-.43.32-.96.48-1.6.48-.52,0-.98-.12-1.39-.35-.41-.23-.73-.56-.96-.98-.23-.42-.35-.91-.35-1.47s.11-1.05.34-1.47c.23-.42.54-.75.95-.98.41-.23.88-.34,1.41-.34s.97.11,1.37.33.71.54.93.94.33.87.33,1.39c0,.2-.01.39-.04.55ZM174.59,175.89c0-.41-.15-.74-.44-.99-.29-.25-.65-.37-1.07-.37-.39,0-.72.12-.99.37-.27.25-.44.58-.49,1h3Z"/>
    <path class="cls-1" d="M176.83,174.9c.23-.42.54-.75.94-.98.4-.23.86-.34,1.38-.34.65,0,1.2.16,1.63.47.43.31.72.75.87,1.33h-1.21c-.1-.27-.26-.48-.47-.63-.22-.15-.49-.23-.81-.23-.46,0-.82.16-1.1.49-.27.32-.41.78-.41,1.36s.14,1.04.41,1.37c.27.33.64.49,1.1.49.65,0,1.08-.29,1.29-.85h1.21c-.16.55-.45.99-.88,1.31-.43.32-.97.49-1.61.49-.52,0-.98-.12-1.38-.35-.4-.23-.71-.56-.94-.98-.23-.42-.34-.91-.34-1.47s.11-1.05.34-1.47Z"/>
    <path class="cls-1" d="M184.06,174.58v3c0,.2.05.35.14.44.09.09.26.13.49.13h.69v.93h-.88c-.5,0-.89-.12-1.16-.35-.27-.24-.4-.62-.4-1.15v-3h-.64v-.91h.64v-1.35h1.13v1.35h1.32v.91h-1.32Z"/>
    <path class="cls-1" d="M186.47,172.75c-.14-.14-.21-.31-.21-.51s.07-.37.21-.51c.14-.14.31-.21.51-.21s.36.07.5.21c.14.14.21.31.21.51s-.07.37-.21.51c-.14.14-.3.21-.5.21s-.37-.07-.51-.21ZM187.53,173.67v5.41h-1.12v-5.41h1.12Z"/>
    <path class="cls-1" d="M191.09,178.08l1.53-4.41h1.19l-2.06,5.41h-1.34l-2.05-5.41h1.2l1.53,4.41Z"/>
    <path class="cls-1" d="M194.62,174.91c.23-.42.53-.74.92-.98s.82-.35,1.29-.35c.43,0,.8.08,1.12.25.32.17.57.38.76.62v-.79h1.13v5.41h-1.13v-.81c-.19.26-.45.47-.78.64-.33.17-.7.26-1.12.26-.46,0-.89-.12-1.28-.36-.39-.24-.69-.57-.92-1-.23-.43-.34-.92-.34-1.46s.11-1.02.34-1.44ZM198.48,175.4c-.15-.27-.36-.48-.6-.63-.25-.14-.52-.22-.81-.22s-.56.07-.81.21c-.25.14-.45.35-.6.62-.15.27-.23.59-.23.97s.08.7.23.98c.15.28.36.5.61.64.25.15.52.22.8.22s.56-.07.81-.22c.25-.14.45-.36.6-.63s.23-.6.23-.98-.08-.7-.23-.97Z"/>
    <path class="cls-1" d="M203.93,172.75c-.14-.14-.21-.31-.21-.51s.07-.37.21-.51c.14-.14.31-.21.51-.21s.36.07.5.21c.14.14.21.31.21.51s-.07.37-.21.51c-.14.14-.3.21-.5.21s-.37-.07-.51-.21ZM204.99,173.67v5.41h-1.12v-5.41h1.12Z"/>
    <path class="cls-1" d="M207.58,171.81v7.27h-1.12v-7.27h1.12Z"/>
    <path class="cls-1" d="M213.96,173.67v5.41h-1.12v-.64c-.18.22-.41.4-.69.53-.28.13-.59.19-.91.19-.43,0-.81-.09-1.14-.26-.34-.18-.6-.44-.8-.79-.19-.35-.29-.77-.29-1.26v-3.18h1.11v3.02c0,.48.12.86.36,1.11.24.26.57.39.99.39s.75-.13,1-.39c.25-.26.37-.63.37-1.11v-3.02h1.12Z"/>
    <path class="cls-1" d="M216.25,178.94c-.34-.15-.6-.36-.8-.63-.2-.26-.3-.56-.31-.89h1.16c.02.23.13.42.33.58.2.15.45.23.75.23s.56-.06.73-.18.26-.28.26-.47c0-.2-.1-.35-.29-.45-.19-.1-.5-.21-.92-.32-.41-.11-.74-.22-.99-.32-.26-.11-.48-.27-.66-.48-.19-.22-.28-.5-.28-.85,0-.29.08-.55.26-.79s.41-.43.73-.56c.32-.14.68-.21,1.1-.21.62,0,1.11.16,1.49.47.38.31.58.74.6,1.27h-1.12c-.02-.24-.12-.44-.29-.58-.18-.14-.42-.22-.72-.22s-.52.06-.68.17-.24.26-.24.44c0,.14.05.26.16.36.1.1.23.17.38.23.15.06.37.13.67.21.39.11.72.21.97.32.25.11.47.27.65.48.18.21.28.49.28.83,0,.31-.08.58-.26.83s-.41.43-.72.57-.68.21-1.1.21-.81-.08-1.14-.23Z"/>
    <path class="cls-1" d="M221.98,174.58v3c0,.2.05.35.14.44.09.09.26.13.49.13h.69v.93h-.88c-.5,0-.89-.12-1.16-.35-.27-.24-.4-.62-.4-1.15v-3h-.64v-.91h.64v-1.35h1.13v1.35h1.32v.91h-1.32Z"/>
    <path class="cls-1" d="M226.1,173.81c.27-.15.59-.23.97-.23v1.16h-.28c-.44,0-.77.11-1,.33-.23.22-.34.61-.34,1.16v2.85h-1.12v-5.41h1.12v.79c.16-.28.38-.49.65-.64Z"/>
    <path class="cls-1" d="M228.07,174.91c.23-.42.53-.74.92-.98s.82-.35,1.29-.35c.43,0,.8.08,1.12.25.32.17.57.38.76.62v-.79h1.13v5.41h-1.13v-.81c-.19.26-.45.47-.78.64-.33.17-.7.26-1.12.26-.46,0-.89-.12-1.28-.36-.39-.24-.69-.57-.92-1-.23-.43-.34-.92-.34-1.46s.11-1.02.34-1.44ZM231.93,175.4c-.15-.27-.36-.48-.6-.63-.25-.14-.52-.22-.81-.22s-.56.07-.81.21c-.25.14-.45.35-.6.62-.15.27-.23.59-.23.97s.08.7.23.98c.15.28.36.5.61.64.25.15.52.22.8.22s.56-.07.81-.22c.25-.14.45-.36.6-.63s.23-.6.23-.98-.08-.7-.23-.97Z"/>
    <path class="cls-1" d="M234.73,174.91c.23-.42.53-.74.92-.98s.82-.35,1.3-.35c.35,0,.7.08,1.05.23s.62.36.82.61v-2.61h1.13v7.27h-1.13v-.82c-.18.26-.44.48-.76.65-.32.17-.7.26-1.12.26-.47,0-.9-.12-1.29-.36-.39-.24-.7-.57-.92-1-.23-.43-.34-.92-.34-1.46s.11-1.02.34-1.44ZM238.59,175.4c-.15-.27-.36-.48-.6-.63-.25-.14-.52-.22-.81-.22s-.56.07-.81.21c-.25.14-.45.35-.6.62-.15.27-.23.59-.23.97s.08.7.23.98c.15.28.36.5.61.64.25.15.52.22.8.22s.56-.07.81-.22c.25-.14.45-.36.6-.63s.23-.6.23-.98-.08-.7-.23-.97Z"/>
    <path class="cls-1" d="M241.39,174.91c.23-.42.53-.74.92-.98s.82-.35,1.29-.35c.43,0,.8.08,1.12.25.32.17.57.38.76.62v-.79h1.13v5.41h-1.13v-.81c-.19.26-.45.47-.78.64-.33.17-.7.26-1.12.26-.46,0-.89-.12-1.28-.36-.39-.24-.69-.57-.92-1-.23-.43-.34-.92-.34-1.46s.11-1.02.34-1.44ZM245.25,175.4c-.15-.27-.36-.48-.6-.63-.25-.14-.52-.22-.81-.22s-.56.07-.81.21c-.25.14-.45.35-.6.62-.15.27-.23.59-.23.97s.08.7.23.98c.15.28.36.5.61.64.25.15.52.22.8.22s.56-.07.81-.22c.25-.14.45-.36.6-.63s.23-.6.23-.98-.08-.7-.23-.97Z"/>
    <path class="cls-1" d="M250.6,174.91c.23-.42.53-.74.92-.98s.82-.35,1.3-.35c.35,0,.7.08,1.05.23s.62.36.82.61v-2.61h1.13v7.27h-1.13v-.82c-.18.26-.44.48-.76.65-.32.17-.7.26-1.12.26-.47,0-.9-.12-1.29-.36-.39-.24-.7-.57-.92-1-.23-.43-.34-.92-.34-1.46s.11-1.02.34-1.44ZM254.46,175.4c-.15-.27-.36-.48-.6-.63-.25-.14-.52-.22-.81-.22s-.56.07-.81.21c-.25.14-.45.35-.6.62-.15.27-.23.59-.23.97s.08.7.23.98c.15.28.36.5.61.64.25.15.52.22.8.22s.56-.07.81-.22c.25-.14.45-.36.6-.63s.23-.6.23-.98-.08-.7-.23-.97Z"/>
    <path class="cls-1" d="M258.26,178.82c-.41-.23-.74-.56-.97-.98-.24-.42-.35-.91-.35-1.47s.12-1.04.36-1.46c.24-.42.57-.75.99-.98.42-.23.89-.34,1.4-.34s.99.11,1.4.34c.42.23.75.56.99.98.24.43.36.91.36,1.46s-.12,1.04-.37,1.46-.59.75-1.02.99c-.43.23-.9.35-1.42.35s-.97-.12-1.38-.35ZM260.45,177.99c.25-.14.46-.34.61-.62s.24-.61.24-1-.08-.73-.23-1c-.15-.27-.35-.48-.6-.61-.25-.14-.52-.21-.81-.21s-.56.07-.8.21c-.25.14-.44.34-.58.61s-.22.6-.22,1c0,.58.15,1.03.45,1.35s.67.48,1.12.48c.29,0,.56-.07.81-.21Z"/>
    <path class="cls-1" d="M270.64,175.27c-.16.31-.43.56-.79.75-.36.19-.82.29-1.39.29h-1.24v2.77h-1.12v-6.83h2.36c.52,0,.97.09,1.33.27.36.18.64.42.82.73.18.31.27.65.27,1.03,0,.35-.08.67-.25.98ZM269.42,175.11c.21-.19.31-.47.31-.82,0-.75-.42-1.12-1.27-1.12h-1.24v2.23h1.24c.43,0,.74-.1.95-.29Z"/>
    <path class="cls-1" d="M272.92,178.82c-.41-.23-.74-.56-.97-.98-.24-.42-.35-.91-.35-1.47s.12-1.04.36-1.46c.24-.42.57-.75.99-.98.42-.23.89-.34,1.4-.34s.99.11,1.4.34c.42.23.75.56.99.98.24.43.36.91.36,1.46s-.12,1.04-.37,1.46-.59.75-1.02.99c-.43.23-.9.35-1.42.35s-.97-.12-1.38-.35ZM275.12,177.99c.25-.14.46-.34.61-.62s.24-.61.24-1-.08-.73-.23-1c-.15-.27-.35-.48-.6-.61-.25-.14-.52-.21-.81-.21s-.56.07-.8.21c-.25.14-.44.34-.58.61s-.22.6-.22,1c0,.58.15,1.03.45,1.35s.67.48,1.12.48c.29,0,.56-.07.81-.21Z"/>
    <path class="cls-1" d="M280,173.81c.27-.15.59-.23.97-.23v1.16h-.28c-.44,0-.77.11-1,.33-.23.22-.34.61-.34,1.16v2.85h-1.12v-5.41h1.12v.79c.16-.28.38-.49.65-.64Z"/>
    <path class="cls-1" d="M283.3,174.58v3c0,.2.05.35.14.44.09.09.26.13.49.13h.69v.93h-.88c-.5,0-.89-.12-1.16-.35-.27-.24-.4-.62-.4-1.15v-3h-.64v-.91h.64v-1.35h1.13v1.35h1.32v.91h-1.32Z"/>
    <path class="cls-1" d="M285.61,174.91c.23-.42.53-.74.92-.98s.82-.35,1.29-.35c.43,0,.8.08,1.12.25.32.17.57.38.76.62v-.79h1.13v5.41h-1.13v-.81c-.19.26-.45.47-.78.64-.33.17-.7.26-1.12.26-.46,0-.89-.12-1.28-.36-.39-.24-.69-.57-.92-1-.23-.43-.34-.92-.34-1.46s.11-1.02.34-1.44ZM289.48,175.4c-.15-.27-.36-.48-.6-.63-.25-.14-.52-.22-.81-.22s-.56.07-.81.21c-.25.14-.45.35-.6.62-.15.27-.23.59-.23.97s.08.7.23.98c.15.28.36.5.61.64.25.15.52.22.8.22s.56-.07.81-.22c.25-.14.45-.36.6-.63s.23-.6.23-.98-.08-.7-.23-.97Z"/>
    <path class="cls-1" d="M294.08,173.81c.27-.15.59-.23.97-.23v1.16h-.28c-.44,0-.77.11-1,.33-.23.22-.34.61-.34,1.16v2.85h-1.12v-5.41h1.12v.79c.16-.28.38-.49.65-.64Z"/>
    <path class="cls-1" d="M296.14,172.75c-.14-.14-.21-.31-.21-.51s.07-.37.21-.51c.14-.14.31-.21.51-.21s.36.07.5.21c.14.14.21.31.21.51s-.07.37-.21.51c-.14.14-.3.21-.5.21s-.37-.07-.51-.21ZM297.2,173.67v5.41h-1.12v-5.41h1.12Z"/>
    <path class="cls-1" d="M298.64,174.91c.23-.42.53-.74.92-.98s.82-.35,1.29-.35c.43,0,.8.08,1.12.25.32.17.57.38.76.62v-.79h1.13v5.41h-1.13v-.81c-.19.26-.45.47-.78.64-.33.17-.7.26-1.12.26-.46,0-.89-.12-1.28-.36-.39-.24-.69-.57-.92-1-.23-.43-.34-.92-.34-1.46s.11-1.02.34-1.44ZM302.5,175.4c-.15-.27-.36-.48-.6-.63-.25-.14-.52-.22-.81-.22s-.56.07-.81.21c-.25.14-.45.35-.6.62-.15.27-.23.59-.23.97s.08.7.23.98c.15.28.36.5.61.64.25.15.52.22.8.22s.56-.07.81-.22c.25-.14.45-.36.6-.63s.23-.6.23-.98-.08-.7-.23-.97Z"/>
    <path class="cls-1" d="M312.81,176.79h-4.14c.03.43.19.78.48,1.04.29.26.64.39,1.06.39.6,0,1.03-.25,1.28-.76h1.21c-.16.5-.46.91-.89,1.22-.43.32-.96.48-1.6.48-.52,0-.98-.12-1.39-.35-.41-.23-.73-.56-.96-.98-.23-.42-.35-.91-.35-1.47s.11-1.05.34-1.47c.23-.42.54-.75.95-.98.41-.23.88-.34,1.41-.34s.97.11,1.37.33.71.54.93.94.33.87.33,1.39c0,.2-.01.39-.04.55ZM311.68,175.89c0-.41-.15-.74-.44-.99-.29-.25-.65-.37-1.07-.37-.39,0-.72.12-.99.37-.27.25-.44.58-.49,1h3Z"/>
    <path class="cls-1" d="M320.62,177.69h-2.86l-.49,1.39h-1.17l2.45-6.84h1.3l2.45,6.84h-1.18l-.49-1.39ZM320.3,176.77l-1.11-3.17-1.12,3.17h2.23Z"/>
    <path class="cls-1" d="M323.31,174.91c.23-.42.53-.74.92-.98s.82-.35,1.3-.35c.35,0,.7.08,1.05.23s.62.36.82.61v-2.61h1.13v7.27h-1.13v-.82c-.18.26-.44.48-.76.65-.32.17-.7.26-1.12.26-.47,0-.9-.12-1.29-.36-.39-.24-.7-.57-.92-1-.23-.43-.34-.92-.34-1.46s.11-1.02.34-1.44ZM327.17,175.4c-.15-.27-.36-.48-.6-.63-.25-.14-.52-.22-.81-.22s-.56.07-.81.21c-.25.14-.45.35-.6.62-.15.27-.23.59-.23.97s.08.7.23.98c.15.28.36.5.61.64.25.15.52.22.8.22s.56-.07.81-.22c.25-.14.45-.36.6-.63s.23-.6.23-.98-.08-.7-.23-.97Z"/>
    <path class="cls-1" d="M337.7,173.85c.34.18.6.44.8.79.19.35.29.77.29,1.26v3.19h-1.11v-3.03c0-.48-.12-.86-.36-1.11s-.57-.39-.99-.39-.75.13-1,.39-.37.63-.37,1.11v3.03h-1.11v-3.03c0-.48-.12-.86-.36-1.11-.24-.26-.57-.39-.99-.39s-.75.13-1,.39-.37.63-.37,1.11v3.03h-1.12v-5.41h1.12v.62c.18-.22.42-.4.7-.52.28-.12.58-.19.9-.19.43,0,.82.09,1.16.27.34.18.6.45.79.8.16-.33.42-.59.77-.78.35-.19.72-.29,1.12-.29.43,0,.81.09,1.14.26Z"/>
    <path class="cls-1" d="M340.27,172.75c-.14-.14-.21-.31-.21-.51s.07-.37.21-.51c.14-.14.31-.21.51-.21s.36.07.5.21c.14.14.21.31.21.51s-.07.37-.21.51c-.14.14-.3.21-.5.21s-.37-.07-.51-.21ZM341.33,173.67v5.41h-1.12v-5.41h1.12Z"/>
    <path class="cls-1" d="M346.68,173.85c.34.18.6.44.79.79.19.35.28.77.28,1.26v3.19h-1.11v-3.03c0-.48-.12-.86-.36-1.11-.24-.26-.57-.39-.99-.39s-.75.13-1,.39-.37.63-.37,1.11v3.03h-1.12v-5.41h1.12v.62c.18-.22.42-.4.7-.52.29-.12.59-.19.91-.19.43,0,.81.09,1.14.26Z"/>
    <path class="cls-1" d="M349.24,172.75c-.14-.14-.21-.31-.21-.51s.07-.37.21-.51c.14-.14.31-.21.51-.21s.36.07.5.21c.14.14.21.31.21.51s-.07.37-.21.51c-.14.14-.3.21-.5.21s-.37-.07-.51-.21ZM350.3,173.67v5.41h-1.12v-5.41h1.12Z"/>
    <path class="cls-1" d="M352.59,178.94c-.34-.15-.6-.36-.8-.63-.2-.26-.3-.56-.31-.89h1.16c.02.23.13.42.33.58.2.15.45.23.75.23s.56-.06.73-.18.26-.28.26-.47c0-.2-.1-.35-.29-.45-.19-.1-.5-.21-.92-.32-.41-.11-.74-.22-.99-.32-.26-.11-.48-.27-.66-.48-.19-.22-.28-.5-.28-.85,0-.29.08-.55.26-.79s.41-.43.73-.56c.32-.14.68-.21,1.1-.21.62,0,1.11.16,1.49.47.38.31.58.74.6,1.27h-1.12c-.02-.24-.12-.44-.29-.58-.18-.14-.42-.22-.72-.22s-.52.06-.68.17-.24.26-.24.44c0,.14.05.26.16.36.1.1.23.17.38.23.15.06.37.13.67.21.39.11.72.21.97.32.25.11.47.27.65.48.18.21.28.49.28.83,0,.31-.08.58-.26.83s-.41.43-.72.57-.68.21-1.1.21-.81-.08-1.14-.23Z"/>
    <path class="cls-1" d="M358.32,174.58v3c0,.2.05.35.14.44.09.09.26.13.49.13h.69v.93h-.88c-.5,0-.89-.12-1.16-.35-.27-.24-.4-.62-.4-1.15v-3h-.64v-.91h.64v-1.35h1.13v1.35h1.32v.91h-1.32Z"/>
    <path class="cls-1" d="M362.44,173.81c.27-.15.59-.23.97-.23v1.16h-.28c-.44,0-.77.11-1,.33-.23.22-.34.61-.34,1.16v2.85h-1.12v-5.41h1.12v.79c.16-.28.38-.49.65-.64Z"/>
    <path class="cls-1" d="M364.41,174.91c.23-.42.53-.74.92-.98s.82-.35,1.29-.35c.43,0,.8.08,1.12.25.32.17.57.38.76.62v-.79h1.13v5.41h-1.13v-.81c-.19.26-.45.47-.78.64-.33.17-.7.26-1.12.26-.46,0-.89-.12-1.28-.36-.39-.24-.69-.57-.92-1-.23-.43-.34-.92-.34-1.46s.11-1.02.34-1.44ZM368.27,175.4c-.15-.27-.36-.48-.6-.63-.25-.14-.52-.22-.81-.22s-.56.07-.81.21c-.25.14-.45.35-.6.62-.15.27-.23.59-.23.97s.08.7.23.98c.15.28.36.5.61.64.25.15.52.22.8.22s.56-.07.81-.22c.25-.14.45-.36.6-.63s.23-.6.23-.98-.08-.7-.23-.97Z"/>
    <path class="cls-1" d="M374.67,177.37h1.21c-.14.5-.4.91-.77,1.22-.37.32-.83.5-1.39.55v.4c.38,0,.69.09.92.27.24.18.35.43.35.76s-.12.59-.35.78c-.24.19-.53.29-.89.29h-1.3v-.71h1.07c.18,0,.32-.03.41-.08.09-.05.14-.15.14-.29s-.05-.23-.14-.29-.23-.08-.41-.08h-.54v-1.08c-.45-.05-.84-.2-1.18-.45-.34-.25-.6-.57-.79-.96-.19-.4-.28-.85-.28-1.36,0-.56.11-1.05.34-1.47.23-.42.54-.75.94-.98.4-.23.86-.34,1.38-.34.65,0,1.2.16,1.63.47.43.31.72.75.87,1.33h-1.21c-.1-.27-.26-.48-.47-.63-.22-.15-.49-.23-.81-.23-.46,0-.82.16-1.1.49-.27.32-.41.78-.41,1.36s.14,1.04.41,1.37c.27.33.64.49,1.1.49.65,0,1.08-.29,1.29-.85Z"/>
    <path class="cls-1" d="M376.96,174.91c.23-.42.53-.74.92-.98s.82-.35,1.29-.35c.43,0,.8.08,1.12.25.32.17.57.38.76.62v-.79h1.13v5.41h-1.13v-.81c-.19.26-.45.47-.78.64-.33.17-.7.26-1.12.26-.46,0-.89-.12-1.28-.36-.39-.24-.69-.57-.92-1-.23-.43-.34-.92-.34-1.46s.11-1.02.34-1.44ZM380.82,175.4c-.15-.27-.36-.48-.6-.63-.25-.14-.52-.22-.81-.22s-.56.07-.81.21c-.25.14-.45.35-.6.62-.15.27-.23.59-.23.97s.08.7.23.98c.15.28.36.5.61.64.25.15.52.22.8.22s.56-.07.81-.22c.25-.14.45-.36.6-.63s.23-.6.23-.98-.08-.7-.23-.97ZM378.36,172.25c.2-.19.44-.29.74-.29.12,0,.23.02.32.06.09.04.2.1.33.18.1.07.18.12.25.15.07.03.15.05.23.05.11,0,.2-.04.28-.1s.12-.17.14-.31h.63c-.05.38-.18.67-.37.86-.2.19-.44.29-.74.29-.12,0-.24-.02-.33-.06-.1-.04-.21-.1-.32-.18-.12-.07-.21-.12-.27-.15-.06-.03-.13-.04-.21-.04-.11,0-.21.04-.28.11s-.12.18-.14.31h-.63c.05-.38.18-.67.37-.86Z"/>
    <path class="cls-1" d="M384.62,178.82c-.41-.23-.74-.56-.97-.98-.24-.42-.35-.91-.35-1.47s.12-1.04.36-1.46c.24-.42.57-.75.99-.98.42-.23.89-.34,1.4-.34s.99.11,1.4.34c.42.23.75.56.99.98.24.43.36.91.36,1.46s-.12,1.04-.37,1.46-.59.75-1.02.99c-.43.23-.9.35-1.42.35s-.97-.12-1.38-.35ZM386.81,177.99c.25-.14.46-.34.61-.62s.24-.61.24-1-.08-.73-.23-1c-.15-.27-.35-.48-.6-.61-.25-.14-.52-.21-.81-.21s-.56.07-.8.21c-.25.14-.44.34-.58.61s-.22.6-.22,1c0,.58.15,1.03.45,1.35s.67.48,1.12.48c.29,0,.56-.07.81-.21Z"/>
    <path class="cls-1" d="M398.36,172.25l-2.56,6.83h-1.3l-2.57-6.83h1.2l2.02,5.68,2.03-5.68h1.18Z"/>
    <path class="cls-1" d="M399.35,172.75c-.14-.14-.21-.31-.21-.51s.07-.37.21-.51c.14-.14.31-.21.51-.21s.36.07.5.21c.14.14.21.31.21.51s-.07.37-.21.51c-.14.14-.3.21-.5.21s-.37-.07-.51-.21ZM400.41,173.67v5.41h-1.12v-5.41h1.12Z"/>
    <path class="cls-1" d="M403,171.81v7.27h-1.12v-7.27h1.12Z"/>
    <path class="cls-1" d="M405.6,171.81v7.27h-1.12v-7.27h1.12Z"/>
    <path class="cls-1" d="M407.03,174.91c.23-.42.53-.74.92-.98s.82-.35,1.29-.35c.43,0,.8.08,1.12.25.32.17.57.38.76.62v-.79h1.13v5.41h-1.13v-.81c-.19.26-.45.47-.78.64-.33.17-.7.26-1.12.26-.46,0-.89-.12-1.28-.36-.39-.24-.69-.57-.92-1-.23-.43-.34-.92-.34-1.46s.11-1.02.34-1.44ZM410.89,175.4c-.15-.27-.36-.48-.6-.63-.25-.14-.52-.22-.81-.22s-.56.07-.81.21c-.25.14-.45.35-.6.62-.15.27-.23.59-.23.97s.08.7.23.98c.15.28.36.5.61.64.25.15.52.22.8.22s.56-.07.81-.22c.25-.14.45-.36.6-.63s.23-.6.23-.98-.08-.7-.23-.97Z"/>
    <path class="cls-1" d="M415.82,178.08l1.53-4.41h1.19l-2.06,5.41h-1.34l-2.05-5.41h1.2l1.53,4.41Z"/>
    <path class="cls-1" d="M419.44,172.75c-.14-.14-.21-.31-.21-.51s.07-.37.21-.51c.14-.14.31-.21.51-.21s.36.07.5.21c.14.14.21.31.21.51s-.07.37-.21.51c-.14.14-.3.21-.5.21s-.37-.07-.51-.21ZM420.5,173.67v5.41h-1.12v-5.41h1.12Z"/>
    <path class="cls-1" d="M422.8,178.94c-.34-.15-.6-.36-.8-.63-.2-.26-.3-.56-.31-.89h1.16c.02.23.13.42.33.58.2.15.45.23.75.23s.56-.06.73-.18.26-.28.26-.47c0-.2-.1-.35-.29-.45-.19-.1-.5-.21-.92-.32-.41-.11-.74-.22-.99-.32-.26-.11-.48-.27-.66-.48-.19-.22-.28-.5-.28-.85,0-.29.08-.55.26-.79s.41-.43.73-.56c.32-.14.68-.21,1.1-.21.62,0,1.11.16,1.49.47.38.31.58.74.6,1.27h-1.12c-.02-.24-.12-.44-.29-.58-.18-.14-.42-.22-.72-.22s-.52.06-.68.17-.24.26-.24.44c0,.14.05.26.16.36.1.1.23.17.38.23.15.06.37.13.67.21.39.11.72.21.97.32.25.11.47.27.65.48.18.21.28.49.28.83,0,.31-.08.58-.26.83s-.41.43-.72.57-.68.21-1.1.21-.81-.08-1.14-.23Z"/>
    <path class="cls-1" d="M428.53,174.58v3c0,.2.05.35.14.44.09.09.26.13.49.13h.69v.93h-.88c-.5,0-.89-.12-1.16-.35-.27-.24-.4-.62-.4-1.15v-3h-.64v-.91h.64v-1.35h1.13v1.35h1.32v.91h-1.32Z"/>
    <path class="cls-1" d="M430.84,174.91c.23-.42.53-.74.92-.98s.82-.35,1.29-.35c.43,0,.8.08,1.12.25.32.17.57.38.76.62v-.79h1.13v5.41h-1.13v-.81c-.19.26-.45.47-.78.64-.33.17-.7.26-1.12.26-.46,0-.89-.12-1.28-.36-.39-.24-.69-.57-.92-1-.23-.43-.34-.92-.34-1.46s.11-1.02.34-1.44ZM434.7,175.4c-.15-.27-.36-.48-.6-.63-.25-.14-.52-.22-.81-.22s-.56.07-.81.21c-.25.14-.45.35-.6.62-.15.27-.23.59-.23.97s.08.7.23.98c.15.28.36.5.61.64.25.15.52.22.8.22s.56-.07.81-.22c.25-.14.45-.36.6-.63s.23-.6.23-.98-.08-.7-.23-.97Z"/>
  </g>
</svg>