<?xml version="1.0" encoding="UTF-8"?>
<svg id="Layer_1" data-name="Layer 1" xmlns="http://www.w3.org/2000/svg" viewBox="0 0 501.24 237.9">
  <defs>
    <style>
      .cls-1 {
        fill: #fff;
      }

      .cls-2 {
        fill: none;
        stroke: #e1c779;
        stroke-miterlimit: 10;
      }
    </style>
  </defs>
  <path class="cls-2" d="M442.55,159.95c-6.38,1.28-11.59-2.16-15.59-6.66-5.93-6.68-9.88-6.83-18.35-7.46-10.98-.82-22.39.2-32.74-3.89-5.96-2.36-12.22-3.88-18.32-5.77-5.55-1.72-9.69-4.21-15.72-3.69-7.27.64-13.67,4.23-21.17,4.23-5.67,0-12.77,1.63-18.28.31-3.86-.93-7.15-4.14-11.2-4.57-6.08-.65-12.82,1.14-19.03,1.09-7-.05-15.58-2.03-22.32.28-5.52,1.88-13.64,5.96-19.68,4.21-2.57-.74-5.16-3.54-7.26-5.02-2.98-2.12-5.04-2.6-8.64-2.64-5.13-.06-9.66,1.24-14.57,2.22-7,1.4-15.39,1.81-22.64.95-3.3-.39-8.3-1.24-10.9-3.61-1.27-1.15-1.69-3.6-3.1-4.73-5.11-4.08-14.14,5.13-17.49,8.7-3.37,3.6-7.23,5.25-11.06,8.21-3.13,2.41-5.25,6.1-7.48,9.08-4.23,5.64-10.53,12.09-6.29,17.48,3.32,4.22,1.15,9.94-1.06,11.05-2.17,1.09-10.82-1.87-12.76-2.63-3.42-1.35-4.32-5.15-6.73-7.89-2.49-2.82-5.77-4.01-8.45-6.87-1.97-2.1-4.43-6.52-5.12-9.2-.93-3.62.38-7.62-.55-11.15-.5-1.89-2.42-5.17-4.5-5.21-1.35-.03-2.99,1.81-4.31,2.09-3.3.7-7.24-.34-10.6-.02-4.05.38-5.9,1.65-8.99,4.49-4.28,3.95-8.02,3.7-13.73,4.89-5.22,1.09-9.87,3.07-15.55,2.27-3.91-.55-7.35-1.91-11.54-1.79-3.68.1-7.38.98-11.09,1.07-7.7.19-13.56-3.2-20.81-4.16-8.9-1.17-17.43-.13-26.31-1.8-6.41-1.21-13.95-1.36-20.2.04-9.06,2.03-17.71,7.33-26.99,7.69-9.79.37-21.98,1.5-31.73,0-3.58-.55-6.92-1.7-10.76-1.76-6.76-.11-13.44,1.38-20.15,1.78-3.2.19-6.45-.2-9.64.06-4.73.4-9,2.54-13.57,3.25-6.39.99-13.24-2.65-19.81-2.27-4.54.27-8.81,1.72-13.46,1.77-4.05.04-4.74.05-7.57,2.64-3.32,3.04-5.82,6.63-9.64,8.38-2.28,1.04-4.84,1.96-7.3,2.39-6.49,1.13-12.4,4.1-18.53,5.66-4.72,1.2-10.02,1.14-14.87,1.92-3.14.5-6.07.54-9.25.54-5.97,0-11.62-.38-17.3-1.03-2.55-.29-4.38.71-6.65,1.03-4.49.64-8.6-.68-12.88-1.33-5.18-.79-10.73.27-15.97.27s-10.09-.79-15.15-1.06c-2.33-.12-5.01-.26-7.33,0-2.61.3-4.63,1.68-7.2,2.13-5.53.96-11.37-.1-16.89.89-3.07.55-6.13.27-9.11,1.23-2.34.76-4.46,2.35-6.76,3.18-4.9,1.75-10.74-1.62-16.05-1.77-4.42-.13-9.6.74-13.74-.35-1.03-.27-2.5-.78-3.97-1.33v.02c-1.47.55-2.95,1.06-3.97,1.33-4.14,1.09-9.32.22-13.74.35-5.32.15-11.15,3.53-16.05,1.77-2.3-.82-4.42-2.42-6.76-3.18-2.98-.96-6.04-.68-9.11-1.23-5.52-.99-11.36.07-16.89-.89-2.56-.44-4.59-1.83-7.2-2.13-2.32-.26-4.99-.12-7.33,0-5.06.27-9.91,1.06-15.15,1.06s-10.79-1.06-15.97-.27c-4.28.65-8.39,1.97-12.88,1.33-2.27-.32-4.1-1.32-6.65-1.03-5.69.65-11.34,1.03-17.3,1.03-3.18,0-6.11-.04-9.25-.54-4.85-.78-10.15-.73-14.87-1.92-6.13-1.56-12.04-4.53-18.53-5.66-2.46-.43-5.03-1.35-7.3-2.39-3.82-1.75-6.32-5.34-9.64-8.38-2.83-2.59-3.52-2.6-7.57-2.64-4.65-.04-8.93-1.5-13.46-1.77-6.58-.39-13.43,3.26-19.81,2.27-4.57-.71-8.84-2.85-13.57-3.25-3.19-.27-6.44.13-9.64-.06-6.71-.4-13.39-1.89-20.15-1.78-3.84.06-7.19,1.21-10.76,1.76-9.74,1.5-21.94.37-31.73,0-9.27-.36-17.93-5.66-26.99-7.69-6.25-1.4-13.79-1.25-20.2-.04-8.88,1.68-17.41.63-26.31,1.8-7.25.95-13.1,4.35-20.81,4.16-3.71-.09-7.41-.97-11.09-1.07-4.19-.12-7.63,1.24-11.54,1.79-5.68.8-10.33-1.18-15.55-2.27-5.71-1.19-9.45-.94-13.73-4.89-3.09-2.85-4.94-4.11-8.99-4.49-3.36-.32-7.3.72-10.6.02-1.31-.28-2.96-2.11-4.31-2.09-2.08.04-44.93-15.73-84.62-6.84-3.43.77-7.6,3.22-10.9,3.61-7.25.85-15.63.44-22.64-.95-4.92-.98-9.44-2.27-14.57-2.22-3.6.04-5.66.53-8.64,2.64-2.09,1.49-4.69,4.28-7.26,5.02-6.04,1.75-14.17-2.32-19.68-4.21-6.75-2.31-15.32-.32-22.32-.28-6.21.04-12.95-1.74-19.03-1.09-4.05.43-7.34,3.65-11.2,4.57-5.5,1.32-12.6-.31-18.28-.31-7.5,0-13.91-3.59-21.17-4.23-6.03-.53-10.16,1.96-15.72,3.69-6.1,1.89-12.36,3.41-18.32,5.77-10.34,4.09-21.76,3.07-32.74,3.89-8.47.63-12.42.78-18.35,7.46-4,4.51-9.21,7.94-15.59,6.66-5.49-1.1-10.47-4.05-16.11-4.54-3.88-.33-7.9-.22-11.78-.35-9.05-.32-17.68,2.11-26.78,2.12-5.7,0-9.84.18-15.18,2.41-4.38,1.83-8.63,4.71-13.46,4.94-11.1.53-22.61-1.4-33.73-.3-9.08.89-17.64,5.98-26.27,8.64-.25.08-.5.17-.75.26"/>
  <g>
    <path class="cls-1" d="M84.07,97.26c.73-.21,1.45-.71,2.15-1.48.71-.77,1.28-1.53,1.73-2.28.45-.75.97-1.86,1.57-3.34.6-1.48,1.03-2.55,1.28-3.21.26-.66.64-1.79,1.16-3.37l10.92-30.96h3.98l11.63,30.96c.21.47.73,1.79,1.54,3.95.81,2.16,1.62,4.03,2.41,5.59.79,1.56,1.55,2.67,2.28,3.31.43.39,1.13.69,2.12.9l-12.91.13c1.28-.04,2.23-.35,2.83-.93.6-.58.83-1.43.71-2.57s-.33-2.16-.61-3.08c-.28-.92-.71-2.11-1.28-3.56-.58-1.46-.95-2.42-1.12-2.89l-1.28-3.4c-1.88,1.58-4.84,2.38-8.86,2.38-.3,0-.73-.01-1.28-.03-.56-.02-.99-.03-1.28-.03-4.37,0-7.52.99-9.44,2.95l-1.73,5.52c-.43,1.58-.5,2.83-.23,3.73.28.9.8,1.48,1.57,1.73h-7.84ZM92.68,84.86c1.24-1.03,2.82-1.7,4.72-2.02,1.9-.32,3.69-.42,5.36-.29,1.67.13,3.46.02,5.36-.32,1.91-.34,3.48-1.05,4.72-2.12l-9.51-25.57-10.66,30.32Z"/>
    <path class="cls-1" d="M167.45,68.93h-.39c-.04-2.61-.66-4.99-1.86-7.13-1.2-2.14-2.72-3.86-4.56-5.17-1.84-1.31-3.82-2.3-5.94-2.99-2.12-.68-4.21-1.03-6.26-1.03-3.17,0-5.93.63-8.29,1.89-2.36,1.26-4.2,2.98-5.52,5.14-1.33,2.16-2.31,4.51-2.96,7.03-.64,2.53-.96,5.25-.96,8.16s.31,5.63.93,8.16c.62,2.53,1.57,4.87,2.86,7.03,1.28,2.16,3.06,3.87,5.33,5.11,2.27,1.24,4.92,1.86,7.97,1.86,4.71,0,9.01-1.57,12.91-4.72,3.9-3.15,6.27-7.01,7.13-11.59l.71.26c-.73,4.33-3,8.23-6.81,11.72-3.81,3.49-8.09,5.26-12.85,5.3-7.07.08-12.72-2.01-16.96-6.29-4.24-4.28-6.36-9.85-6.36-16.7s2.09-12.27,6.26-16.51c4.18-4.24,9.71-6.4,16.6-6.49,3.85,0,7.19.48,10.02,1.45,2.83.96,5.82,2.62,8.99,4.98v10.53Z"/>
    <path class="cls-1" d="M166.94,97.26c.73-.21,1.45-.71,2.15-1.48.71-.77,1.28-1.53,1.73-2.28.45-.75.97-1.86,1.57-3.34.6-1.48,1.03-2.55,1.28-3.21.26-.66.64-1.79,1.16-3.37l10.92-30.96h3.98l11.63,30.96c.21.47.73,1.79,1.54,3.95.81,2.16,1.62,4.03,2.41,5.59.79,1.56,1.55,2.67,2.28,3.31.43.39,1.13.69,2.12.9l-12.91.13c1.28-.04,2.23-.35,2.83-.93.6-.58.83-1.43.71-2.57s-.33-2.16-.61-3.08c-.28-.92-.71-2.11-1.28-3.56-.58-1.46-.95-2.42-1.12-2.89l-1.28-3.4c-1.88,1.58-4.84,2.38-8.86,2.38-.3,0-.73-.01-1.28-.03-.56-.02-.99-.03-1.28-.03-4.37,0-7.52.99-9.44,2.95l-1.73,5.52c-.43,1.58-.5,2.83-.23,3.73.28.9.8,1.48,1.57,1.73h-7.84ZM175.54,84.86c1.24-1.03,2.82-1.7,4.72-2.02,1.9-.32,3.69-.42,5.36-.29,1.67.13,3.46.02,5.36-.32,1.91-.34,3.48-1.05,4.72-2.12l-9.51-25.57-10.66,30.32Z"/>
    <path class="cls-1" d="M222.63,52.62c7.75,0,13.45.64,17.09,1.93,4.71,1.5,8.3,4.1,10.76,7.8,2.46,3.7,3.69,7.89,3.69,12.56,0,7.15-2.52,12.68-7.55,16.57-5.03,3.9-11.51,5.85-19.43,5.85h-15.16c.86-.17,1.65-.54,2.38-1.09,1.24-1.03,1.86-5.42,1.86-13.17v-18.31c0-6.34-.62-10.04-1.86-11.11-.6-.47-1.31-.81-2.12-1.03h10.34ZM226.35,96.68c15.07,0,22.61-7.24,22.61-21.71,0-7.75-2-13.31-6.01-16.67-4-3.36-9.73-5.04-17.18-5.04-2.14,0-4.07.09-5.78.26h.13v33.4c0,4.28.43,7.09,1.28,8.42.39.64.88,1.07,1.48,1.28l3.47.06Z"/>
    <path class="cls-1" d="M257.25,97.32c.86-.17,1.65-.54,2.38-1.09,1.24-.98,1.86-5.37,1.86-13.17v-18.31c0-6.34-.62-10.04-1.86-11.11-.6-.47-1.31-.81-2.12-1.03h29.68v6.68h-.39c-.64-2.18-2.06-3.68-4.24-4.5-2.7-1.03-8.46-1.54-17.28-1.54v23.38h7.52c2.65,0,4.45-.35,5.4-1.06.94-.71,1.54-2.43,1.8-5.17h.32v12.91h-.32c-.13-2.83-.87-4.55-2.22-5.17-1.35-.62-4.17-.93-8.45-.93h-4.05v11.5c0,5.18,1.31,7.82,3.92,7.9.77.04,2.08.06,3.92.06,9.93,0,15.31-2.12,16.12-6.36h.45v7h-32.44Z"/>
    <path class="cls-1" d="M299.26,52.62l21.2,35.01,20.49-35.01h8.48c-.9.21-1.61.56-2.12,1.03-1.2.99-1.8,5.38-1.8,13.17v18.95c0,5.87.6,9.36,1.8,10.47.56.51,1.35.88,2.38,1.09h-12.2c.98-.21,1.76-.56,2.31-1.03.86-.64,1.37-2.76,1.54-6.36.13-1.11.19-2.7.19-4.75v-31.41l-22.55,38.41-19.91-31.8v24.15c0,2.36.09,4.2.26,5.52.13,1.29.28,2.33.45,3.15.17.81.58,1.65,1.22,2.51.64.86,1.52,1.39,2.63,1.61h-9.96c.13,0,.28-.02.45-.06.04,0,.08-.02.13-.06,2.48-.68,3.73-4.47,3.73-11.37v-21.84c0-2.1-.44-4.43-1.32-7-.88-2.57-2.13-4.09-3.76-4.56l6.36.19Z"/>
    <path class="cls-1" d="M365.93,52.62c-1.03.26-1.71.6-2.06,1.03-.9.69-1.48,2.87-1.73,6.55-.09,1.8-.13,4-.13,6.62v18.31c0,6.29.62,10,1.86,11.11.39.47,1.18.83,2.38,1.09h-11.95c.6-.17,1.03-.39,1.28-.64.64-.3,1.11-.83,1.41-1.61.51-.86.81-2.85.9-5.97.04-1.58.06-3.6.06-6.04v-18.31c0-6.46-.56-10.17-1.67-11.11-.56-.47-1.26-.81-2.12-1.03h11.75Z"/>
    <path class="cls-1" d="M369.21,97.26c.73-.21,1.45-.71,2.15-1.48.71-.77,1.28-1.53,1.73-2.28.45-.75.97-1.86,1.57-3.34.6-1.48,1.03-2.55,1.28-3.21.26-.66.64-1.79,1.16-3.37l10.92-30.96h3.98l11.63,30.96c.21.47.73,1.79,1.54,3.95.81,2.16,1.62,4.03,2.41,5.59.79,1.56,1.55,2.67,2.28,3.31.43.39,1.13.69,2.12.9l-12.91.13c1.28-.04,2.23-.35,2.83-.93.6-.58.83-1.43.71-2.57s-.33-2.16-.61-3.08c-.28-.92-.71-2.11-1.28-3.56-.58-1.46-.95-2.42-1.12-2.89l-1.28-3.4c-1.88,1.58-4.84,2.38-8.86,2.38-.3,0-.73-.01-1.28-.03-.56-.02-.99-.03-1.28-.03-4.37,0-7.52.99-9.44,2.95l-1.73,5.52c-.43,1.58-.5,2.83-.23,3.73.28.9.8,1.48,1.57,1.73h-7.84ZM377.82,84.86c1.24-1.03,2.82-1.7,4.72-2.02,1.9-.32,3.69-.42,5.36-.29,1.67.13,3.46.02,5.36-.32,1.91-.34,3.48-1.05,4.72-2.12l-9.51-25.57-10.66,30.32Z"/>
  </g>
  <g>
    <path class="cls-1" d="M91.42,29.92h-4.65l-.8,2.27h-1.9l3.98-11.12h2.11l3.98,11.12h-1.92l-.8-2.27ZM90.91,28.43l-1.81-5.16-1.82,5.16h3.63Z"/>
    <path class="cls-1" d="M107.56,21.08v11.1h-1.82v-7.61l-3.39,7.61h-1.26l-3.4-7.61v7.61h-1.82v-11.1h1.97l3.9,8.71,3.88-8.71h1.95Z"/>
    <path class="cls-1" d="M111.78,22.55v3.26h3.83v1.49h-3.83v3.4h4.31v1.49h-6.14v-11.12h6.14v1.49h-4.31Z"/>
    <path class="cls-1" d="M127.45,32.19h-1.82l-5.48-8.29v8.29h-1.82v-11.12h1.82l5.48,8.28v-8.28h1.82v11.12Z"/>
    <path class="cls-1" d="M131.67,21.08v11.1h-1.82v-11.1h1.82Z"/>
    <path class="cls-1" d="M141.24,21.08v1.49h-2.96v9.62h-1.82v-9.62h-2.97v-1.49h7.75Z"/>
    <path class="cls-1" d="M144.9,21.08v11.1h-1.82v-11.1h1.82Z"/>
    <path class="cls-1" d="M149.11,22.55v3.26h3.83v1.49h-3.83v3.4h4.31v1.49h-6.14v-11.12h6.14v1.49h-4.31Z"/>
    <path class="cls-1" d="M157.31,31.91c-.6-.26-1.06-.63-1.41-1.11-.34-.48-.51-1.04-.51-1.68h1.95c.04.48.23.87.57,1.18.34.31.81.46,1.41.46s1.12-.15,1.47-.46c.35-.3.53-.7.53-1.17,0-.37-.11-.68-.33-.91s-.49-.42-.81-.54c-.33-.13-.77-.27-1.35-.42-.72-.19-1.31-.39-1.77-.58s-.84-.5-1.16-.92c-.32-.42-.48-.97-.48-1.66,0-.64.16-1.2.48-1.68.32-.48.77-.85,1.34-1.1s1.24-.38,2-.38c1.08,0,1.96.27,2.64.81.69.54,1.07,1.28,1.14,2.21h-2.01c-.03-.4-.22-.75-.58-1.04-.35-.29-.81-.43-1.39-.43-.52,0-.95.13-1.28.4-.33.27-.5.65-.5,1.15,0,.34.1.62.31.84.21.22.47.39.79.52.32.13.76.27,1.31.42.73.2,1.33.41,1.8.61s.86.51,1.18.93.49.98.49,1.69c0,.56-.15,1.1-.46,1.6-.3.5-.75.9-1.33,1.21-.58.3-1.27.46-2.05.46-.75,0-1.42-.13-2.01-.39Z"/>
    <path class="cls-1" d="M171.29,22.55v3.26h3.83v1.49h-3.83v3.4h4.31v1.49h-6.14v-11.12h6.14v1.49h-4.31Z"/>
    <path class="cls-1" d="M182.94,26.64l3.45,5.54h-2.05l-2.51-4.03-2.35,4.03h-2.03l3.45-5.54-3.47-5.56h2.04l2.52,4.06,2.36-4.06h2.03l-3.47,5.56Z"/>
    <path class="cls-1" d="M188.54,23.69c.51-.86,1.19-1.54,2.06-2.02.87-.49,1.82-.73,2.85-.73,1.18,0,2.23.29,3.16.87s1.59,1.4,2,2.47h-2.19c-.29-.59-.69-1.02-1.2-1.31-.51-.29-1.1-.43-1.77-.43-.74,0-1.39.17-1.97.5-.58.33-1.03.8-1.35,1.42-.33.62-.49,1.34-.49,2.16s.16,1.54.49,2.16c.32.62.77,1.09,1.35,1.43.58.34,1.23.5,1.97.5.67,0,1.26-.14,1.77-.43.51-.29.91-.72,1.2-1.31h2.19c-.42,1.07-1.08,1.89-2,2.46s-1.97.86-3.16.86c-1.04,0-2-.24-2.86-.73-.86-.48-1.55-1.16-2.05-2.02-.51-.86-.76-1.84-.76-2.92s.25-2.06.76-2.92Z"/>
    <path class="cls-1" d="M202.56,30.72h3.75v1.47h-5.58v-11.1h1.82v9.63Z"/>
    <path class="cls-1" d="M209.63,21.08v7.08c0,.84.22,1.48.66,1.9s1.06.64,1.85.64,1.42-.21,1.86-.64c.44-.43.66-1.06.66-1.9v-7.08h1.82v7.05c0,.91-.2,1.67-.59,2.3-.39.63-.92,1.1-1.58,1.41-.66.31-1.39.46-2.19.46s-1.53-.15-2.18-.46c-.66-.31-1.17-.78-1.56-1.41-.38-.63-.58-1.39-.58-2.3v-7.05h1.82Z"/>
    <path class="cls-1" d="M220.5,31.91c-.6-.26-1.06-.63-1.41-1.11-.34-.48-.51-1.04-.51-1.68h1.95c.04.48.23.87.57,1.18.34.31.81.46,1.41.46s1.12-.15,1.47-.46c.35-.3.53-.7.53-1.17,0-.37-.11-.68-.33-.91s-.49-.42-.81-.54c-.33-.13-.77-.27-1.35-.42-.72-.19-1.31-.39-1.77-.58s-.84-.5-1.16-.92c-.32-.42-.48-.97-.48-1.66,0-.64.16-1.2.48-1.68.32-.48.77-.85,1.34-1.1s1.24-.38,2-.38c1.08,0,1.96.27,2.64.81.69.54,1.07,1.28,1.14,2.21h-2.01c-.03-.4-.22-.75-.58-1.04-.35-.29-.81-.43-1.39-.43-.52,0-.95.13-1.28.4-.33.27-.5.65-.5,1.15,0,.34.1.62.31.84.21.22.47.39.79.52.32.13.76.27,1.31.42.73.2,1.33.41,1.8.61s.86.51,1.18.93.49.98.49,1.69c0,.56-.15,1.1-.46,1.6-.3.5-.75.9-1.33,1.21-.58.3-1.27.46-2.05.46-.75,0-1.42-.13-2.01-.39Z"/>
    <path class="cls-1" d="M230.32,21.08v11.1h-1.82v-11.1h1.82Z"/>
    <path class="cls-1" d="M242.29,21.08l-4.17,11.1h-2.11l-4.19-11.1h1.95l3.29,9.24,3.31-9.24h1.92Z"/>
    <path class="cls-1" d="M246.02,31.57c-.87-.48-1.56-1.16-2.06-2.03-.51-.87-.76-1.84-.76-2.93s.25-2.06.76-2.92c.51-.86,1.19-1.54,2.06-2.02.87-.49,1.82-.73,2.85-.73s2,.24,2.87.73c.87.48,1.55,1.16,2.05,2.02.5.86.75,1.84.75,2.92s-.25,2.06-.75,2.93c-.5.87-1.18,1.54-2.05,2.03-.87.49-1.82.73-2.87.73s-1.98-.24-2.85-.73ZM250.84,30.21c.58-.33,1.02-.81,1.35-1.44.33-.62.49-1.34.49-2.17s-.16-1.54-.49-2.16c-.33-.62-.77-1.09-1.35-1.42-.58-.33-1.23-.5-1.97-.5s-1.39.17-1.96.5c-.58.33-1.03.8-1.35,1.42-.33.62-.49,1.34-.49,2.16s.16,1.54.49,2.17c.32.62.77,1.1,1.35,1.44.58.34,1.23.5,1.96.5s1.39-.17,1.97-.5Z"/>
    <path class="cls-1" d="M257.98,31.91c-.6-.26-1.07-.63-1.41-1.11-.34-.48-.51-1.04-.51-1.68h1.95c.04.48.23.87.57,1.18.33.31.81.46,1.41.46s1.12-.15,1.47-.46c.35-.3.53-.7.53-1.17,0-.37-.11-.68-.33-.91-.22-.23-.49-.42-.81-.54-.33-.13-.78-.27-1.35-.42-.72-.19-1.31-.39-1.76-.58-.45-.2-.84-.5-1.16-.92-.32-.42-.48-.97-.48-1.66,0-.64.16-1.2.48-1.68.32-.48.77-.85,1.34-1.1s1.24-.38,2-.38c1.08,0,1.96.27,2.64.81.69.54,1.07,1.28,1.14,2.21h-2.01c-.03-.4-.22-.75-.58-1.04-.35-.29-.82-.43-1.39-.43-.52,0-.95.13-1.28.4-.33.27-.5.65-.5,1.15,0,.34.1.62.31.84.21.22.47.39.79.52.32.13.76.27,1.31.42.73.2,1.33.41,1.8.61.46.2.86.51,1.18.93s.49.98.49,1.69c0,.56-.15,1.1-.46,1.6s-.75.9-1.33,1.21c-.58.3-1.26.46-2.05.46-.75,0-1.42-.13-2.01-.39Z"/>
    <path class="cls-1" d="M276.87,21.76c.89.45,1.58,1.1,2.06,1.95.49.85.73,1.83.73,2.96s-.24,2.11-.73,2.94c-.48.83-1.17,1.47-2.06,1.91-.89.44-1.92.66-3.11.66h-3.63v-11.1h3.63c1.18,0,2.22.23,3.11.68ZM276.75,29.65c.69-.7,1.04-1.69,1.04-2.97s-.35-2.3-1.04-3.02c-.69-.72-1.69-1.09-2.99-1.09h-1.81v8.13h1.81c1.3,0,2.29-.35,2.99-1.05Z"/>
    <path class="cls-1" d="M283.68,31.57c-.87-.48-1.56-1.16-2.06-2.03-.51-.87-.76-1.84-.76-2.93s.25-2.06.76-2.92c.51-.86,1.19-1.54,2.06-2.02.87-.49,1.82-.73,2.85-.73s2,.24,2.87.73c.87.48,1.55,1.16,2.05,2.02.5.86.75,1.84.75,2.92s-.25,2.06-.75,2.93c-.5.87-1.18,1.54-2.05,2.03-.87.49-1.82.73-2.87.73s-1.98-.24-2.85-.73ZM288.5,30.21c.58-.33,1.02-.81,1.35-1.44s.49-1.34.49-2.17-.16-1.54-.49-2.16c-.33-.62-.77-1.09-1.35-1.42-.58-.33-1.23-.5-1.97-.5s-1.39.17-1.96.5c-.58.33-1.03.8-1.35,1.42-.33.62-.49,1.34-.49,2.16s.16,1.54.49,2.17c.32.62.77,1.1,1.35,1.44.58.34,1.23.5,1.96.5s1.39-.17,1.97-.5Z"/>
    <path class="cls-1" d="M307.71,21.08l-4.17,11.1h-2.11l-4.19-11.1h1.95l3.29,9.24,3.31-9.24h1.92Z"/>
    <path class="cls-1" d="M311.05,21.08v11.1h-1.82v-11.1h1.82Z"/>
    <path class="cls-1" d="M315.27,30.72h3.75v1.47h-5.58v-11.1h1.82v9.63Z"/>
    <path class="cls-1" d="M322.37,30.72h3.75v1.47h-5.58v-11.1h1.82v9.63Z"/>
    <path class="cls-1" d="M334.33,29.92h-4.65l-.8,2.27h-1.9l3.98-11.12h2.11l3.98,11.12h-1.92l-.8-2.27ZM333.82,28.43l-1.81-5.16-1.82,5.16h3.63Z"/>
    <path class="cls-1" d="M348.34,21.08l-4.17,11.1h-2.11l-4.19-11.1h1.95l3.29,9.24,3.31-9.24h1.92Z"/>
    <path class="cls-1" d="M351.68,21.08v11.1h-1.82v-11.1h1.82Z"/>
    <path class="cls-1" d="M355.72,31.91c-.6-.26-1.07-.63-1.41-1.11-.34-.48-.51-1.04-.51-1.68h1.95c.04.48.23.87.57,1.18.33.31.81.46,1.41.46s1.12-.15,1.47-.46c.35-.3.53-.7.53-1.17,0-.37-.11-.68-.33-.91-.22-.23-.49-.42-.81-.54-.33-.13-.78-.27-1.35-.42-.72-.19-1.31-.39-1.76-.58-.45-.2-.84-.5-1.16-.92-.32-.42-.48-.97-.48-1.66,0-.64.16-1.2.48-1.68.32-.48.77-.85,1.34-1.1s1.24-.38,2-.38c1.08,0,1.96.27,2.64.81.69.54,1.07,1.28,1.14,2.21h-2.01c-.03-.4-.22-.75-.58-1.04-.35-.29-.82-.43-1.39-.43-.52,0-.95.13-1.28.4-.33.27-.5.65-.5,1.15,0,.34.1.62.31.84.21.22.47.39.79.52.32.13.76.27,1.31.42.73.2,1.33.41,1.8.61.46.2.86.51,1.18.93s.49.98.49,1.69c0,.56-.15,1.1-.46,1.6s-.75.9-1.33,1.21c-.58.3-1.26.46-2.05.46-.75,0-1.42-.13-2.01-.39Z"/>
    <path class="cls-1" d="M370.9,21.08v1.49h-2.96v9.62h-1.82v-9.62h-2.97v-1.49h7.75Z"/>
    <path class="cls-1" d="M379.43,29.92h-4.65l-.8,2.27h-1.9l3.98-11.12h2.11l3.98,11.12h-1.92l-.8-2.27ZM378.92,28.43l-1.81-5.16-1.82,5.16h3.63Z"/>
  </g>
  <g>
    <path class="cls-1" d="M149.43,176.02c-.16.31-.43.56-.79.75-.36.19-.82.29-1.39.29h-1.24v2.77h-1.12v-6.83h2.36c.52,0,.97.09,1.33.27.36.18.64.42.82.73.18.31.27.65.27,1.03,0,.35-.08.67-.25.98ZM148.21,175.86c.21-.19.31-.47.31-.82,0-.75-.42-1.12-1.27-1.12h-1.24v2.23h1.24c.43,0,.74-.1.95-.29Z"/>
    <path class="cls-1" d="M155.67,177.55h-4.14c.03.43.19.78.48,1.04.29.26.64.39,1.06.39.6,0,1.03-.25,1.28-.76h1.21c-.16.5-.46.91-.89,1.22-.43.32-.96.48-1.6.48-.52,0-.98-.12-1.39-.35-.41-.23-.73-.56-.96-.98-.23-.42-.35-.91-.35-1.47s.11-1.05.34-1.47c.23-.42.54-.75.95-.98.41-.23.88-.34,1.41-.34s.97.11,1.37.33.71.54.93.94.33.87.33,1.39c0,.2-.01.39-.04.55ZM154.54,176.64c0-.41-.15-.74-.44-.99-.29-.25-.65-.37-1.07-.37-.39,0-.72.12-.99.37-.27.25-.44.58-.49,1h3Z"/>
    <path class="cls-1" d="M158.58,174.56c.27-.15.59-.23.97-.23v1.16h-.28c-.44,0-.77.11-1,.33-.23.22-.34.61-.34,1.16v2.85h-1.12v-5.41h1.12v.79c.16-.28.38-.49.65-.64Z"/>
    <path class="cls-1" d="M161.4,179.69c-.34-.15-.6-.36-.8-.63-.2-.26-.3-.56-.31-.89h1.16c.02.23.13.42.33.58.2.15.45.23.75.23s.56-.06.73-.18.26-.28.26-.47c0-.2-.1-.35-.29-.45-.19-.1-.5-.21-.92-.32-.41-.11-.74-.22-.99-.32-.26-.11-.48-.27-.66-.48-.19-.22-.28-.5-.28-.85,0-.29.08-.55.26-.79s.41-.43.73-.56c.32-.14.68-.21,1.1-.21.62,0,1.11.16,1.49.47.38.31.58.74.6,1.27h-1.12c-.02-.24-.12-.44-.29-.58-.18-.14-.42-.22-.72-.22s-.52.06-.68.17-.24.26-.24.44c0,.14.05.26.16.36.1.1.23.17.38.23.15.06.37.13.67.21.39.11.72.21.97.32.25.11.47.27.65.48.18.21.28.49.28.83,0,.31-.08.58-.26.83s-.41.43-.72.57-.68.21-1.1.21-.81-.08-1.14-.23Z"/>
    <path class="cls-1" d="M167.72,174.59c.33-.17.7-.25,1.11-.25.47,0,.9.12,1.29.35s.7.56.92.98c.22.42.33.9.33,1.44s-.11,1.03-.33,1.46c-.22.43-.53.76-.92,1-.39.24-.82.36-1.29.36-.41,0-.78-.08-1.1-.25s-.58-.38-.79-.62v3.36h-1.12v-7.99h1.12v.8c.19-.25.45-.46.78-.63ZM170,176.14c-.15-.27-.36-.48-.61-.62-.25-.14-.52-.21-.81-.21s-.55.07-.8.22c-.25.14-.46.35-.61.63-.15.28-.23.6-.23.97s.08.7.23.98c.15.28.36.49.61.63.25.14.52.22.8.22s.56-.07.81-.22c.25-.15.46-.36.61-.64.15-.28.23-.61.23-.98s-.08-.7-.23-.97Z"/>
    <path class="cls-1" d="M177.4,177.55h-4.14c.03.43.19.78.48,1.04.29.26.64.39,1.06.39.6,0,1.03-.25,1.28-.76h1.21c-.16.5-.46.91-.89,1.22-.43.32-.96.48-1.6.48-.52,0-.98-.12-1.39-.35-.41-.23-.73-.56-.96-.98-.23-.42-.35-.91-.35-1.47s.11-1.05.34-1.47c.23-.42.54-.75.95-.98.41-.23.88-.34,1.41-.34s.97.11,1.37.33.71.54.93.94.33.87.33,1.39c0,.2-.01.39-.04.55ZM176.27,176.64c0-.41-.15-.74-.44-.99-.29-.25-.65-.37-1.07-.37-.39,0-.72.12-.99.37-.27.25-.44.58-.49,1h3Z"/>
    <path class="cls-1" d="M178.51,175.65c.23-.42.54-.75.94-.98.4-.23.86-.34,1.38-.34.65,0,1.2.16,1.63.47.43.31.72.75.87,1.33h-1.21c-.1-.27-.26-.48-.47-.63-.22-.15-.49-.23-.81-.23-.46,0-.82.16-1.1.49-.27.32-.41.78-.41,1.36s.14,1.04.41,1.37c.27.33.64.49,1.1.49.65,0,1.08-.29,1.29-.85h1.21c-.16.55-.45.99-.88,1.31-.43.32-.97.49-1.61.49-.52,0-.98-.12-1.38-.35-.4-.23-.71-.56-.94-.98-.23-.42-.34-.91-.34-1.47s.11-1.05.34-1.47Z"/>
    <path class="cls-1" d="M185.74,175.34v3c0,.2.05.35.14.44.09.09.26.13.49.13h.69v.93h-.88c-.5,0-.89-.12-1.16-.35-.27-.24-.4-.62-.4-1.15v-3h-.64v-.91h.64v-1.35h1.13v1.35h1.32v.91h-1.32Z"/>
    <path class="cls-1" d="M188.15,173.5c-.14-.14-.21-.31-.21-.51s.07-.37.21-.51c.14-.14.31-.21.51-.21s.36.07.5.21c.14.14.21.31.21.51s-.07.37-.21.51c-.14.14-.3.21-.5.21s-.37-.07-.51-.21ZM189.21,174.42v5.41h-1.12v-5.41h1.12Z"/>
    <path class="cls-1" d="M192.78,178.83l1.53-4.41h1.19l-2.06,5.41h-1.34l-2.05-5.41h1.2l1.53,4.41Z"/>
    <path class="cls-1" d="M196.31,175.66c.23-.42.53-.74.92-.98s.82-.35,1.29-.35c.43,0,.8.08,1.12.25.32.17.57.38.76.62v-.79h1.13v5.41h-1.13v-.81c-.19.26-.45.47-.78.64-.33.17-.7.26-1.12.26-.46,0-.89-.12-1.28-.36-.39-.24-.69-.57-.92-1-.23-.43-.34-.92-.34-1.46s.11-1.02.34-1.44ZM200.17,176.15c-.15-.27-.36-.48-.6-.63-.25-.14-.52-.22-.81-.22s-.56.07-.81.21c-.25.14-.45.35-.6.62-.15.27-.23.59-.23.97s.08.7.23.98c.15.28.36.5.61.64.25.15.52.22.8.22s.56-.07.81-.22c.25-.14.45-.36.6-.63s.23-.6.23-.98-.08-.7-.23-.97Z"/>
    <path class="cls-1" d="M205.61,173.5c-.14-.14-.21-.31-.21-.51s.07-.37.21-.51c.14-.14.31-.21.51-.21s.36.07.5.21c.14.14.21.31.21.51s-.07.37-.21.51c-.14.14-.3.21-.5.21s-.37-.07-.51-.21ZM206.67,174.42v5.41h-1.12v-5.41h1.12Z"/>
    <path class="cls-1" d="M209.27,172.57v7.27h-1.12v-7.27h1.12Z"/>
    <path class="cls-1" d="M215.64,174.42v5.41h-1.12v-.64c-.18.22-.41.4-.69.53-.28.13-.59.19-.91.19-.43,0-.81-.09-1.14-.26-.34-.18-.6-.44-.8-.79-.19-.35-.29-.77-.29-1.26v-3.18h1.11v3.02c0,.48.12.86.36,1.11.24.26.57.39.99.39s.75-.13,1-.39c.25-.26.37-.63.37-1.11v-3.02h1.12Z"/>
    <path class="cls-1" d="M217.93,179.69c-.34-.15-.6-.36-.8-.63-.2-.26-.3-.56-.31-.89h1.16c.02.23.13.42.33.58.2.15.45.23.75.23s.56-.06.73-.18.26-.28.26-.47c0-.2-.1-.35-.29-.45-.19-.1-.5-.21-.92-.32-.41-.11-.74-.22-.99-.32-.26-.11-.48-.27-.66-.48-.19-.22-.28-.5-.28-.85,0-.29.08-.55.26-.79s.41-.43.73-.56c.32-.14.68-.21,1.1-.21.62,0,1.11.16,1.49.47.38.31.58.74.6,1.27h-1.12c-.02-.24-.12-.44-.29-.58-.18-.14-.42-.22-.72-.22s-.52.06-.68.17-.24.26-.24.44c0,.14.05.26.16.36.1.1.23.17.38.23.15.06.37.13.67.21.39.11.72.21.97.32.25.11.47.27.65.48.18.21.28.49.28.83,0,.31-.08.58-.26.83s-.41.43-.72.57-.68.21-1.1.21-.81-.08-1.14-.23Z"/>
    <path class="cls-1" d="M223.67,175.34v3c0,.2.05.35.14.44.09.09.26.13.49.13h.69v.93h-.88c-.5,0-.89-.12-1.16-.35-.27-.24-.4-.62-.4-1.15v-3h-.64v-.91h.64v-1.35h1.13v1.35h1.32v.91h-1.32Z"/>
    <path class="cls-1" d="M227.79,174.56c.27-.15.59-.23.97-.23v1.16h-.28c-.44,0-.77.11-1,.33-.23.22-.34.61-.34,1.16v2.85h-1.12v-5.41h1.12v.79c.16-.28.38-.49.65-.64Z"/>
    <path class="cls-1" d="M229.75,175.66c.23-.42.53-.74.92-.98s.82-.35,1.29-.35c.43,0,.8.08,1.12.25.32.17.57.38.76.62v-.79h1.13v5.41h-1.13v-.81c-.19.26-.45.47-.78.64-.33.17-.7.26-1.12.26-.46,0-.89-.12-1.28-.36-.39-.24-.69-.57-.92-1-.23-.43-.34-.92-.34-1.46s.11-1.02.34-1.44ZM233.61,176.15c-.15-.27-.36-.48-.6-.63-.25-.14-.52-.22-.81-.22s-.56.07-.81.21c-.25.14-.45.35-.6.62-.15.27-.23.59-.23.97s.08.7.23.98c.15.28.36.5.61.64.25.15.52.22.8.22s.56-.07.81-.22c.25-.14.45-.36.6-.63s.23-.6.23-.98-.08-.7-.23-.97Z"/>
    <path class="cls-1" d="M236.41,175.66c.23-.42.53-.74.92-.98s.82-.35,1.3-.35c.35,0,.7.08,1.05.23s.62.36.82.61v-2.61h1.13v7.27h-1.13v-.82c-.18.26-.44.48-.76.65-.32.17-.7.26-1.12.26-.47,0-.9-.12-1.29-.36-.39-.24-.7-.57-.92-1-.23-.43-.34-.92-.34-1.46s.11-1.02.34-1.44ZM240.27,176.15c-.15-.27-.36-.48-.6-.63-.25-.14-.52-.22-.81-.22s-.56.07-.81.21c-.25.14-.45.35-.6.62-.15.27-.23.59-.23.97s.08.7.23.98c.15.28.36.5.61.64.25.15.52.22.8.22s.56-.07.81-.22c.25-.14.45-.36.6-.63s.23-.6.23-.98-.08-.7-.23-.97Z"/>
    <path class="cls-1" d="M243.07,175.66c.23-.42.53-.74.92-.98s.82-.35,1.29-.35c.43,0,.8.08,1.12.25.32.17.57.38.76.62v-.79h1.13v5.41h-1.13v-.81c-.19.26-.45.47-.78.64-.33.17-.7.26-1.12.26-.46,0-.89-.12-1.28-.36-.39-.24-.69-.57-.92-1-.23-.43-.34-.92-.34-1.46s.11-1.02.34-1.44ZM246.93,176.15c-.15-.27-.36-.48-.6-.63-.25-.14-.52-.22-.81-.22s-.56.07-.81.21c-.25.14-.45.35-.6.62-.15.27-.23.59-.23.97s.08.7.23.98c.15.28.36.5.61.64.25.15.52.22.8.22s.56-.07.81-.22c.25-.14.45-.36.6-.63s.23-.6.23-.98-.08-.7-.23-.97Z"/>
    <path class="cls-1" d="M252.28,175.66c.23-.42.53-.74.92-.98s.82-.35,1.3-.35c.35,0,.7.08,1.05.23s.62.36.82.61v-2.61h1.13v7.27h-1.13v-.82c-.18.26-.44.48-.76.65-.32.17-.7.26-1.12.26-.47,0-.9-.12-1.29-.36-.39-.24-.7-.57-.92-1-.23-.43-.34-.92-.34-1.46s.11-1.02.34-1.44ZM256.14,176.15c-.15-.27-.36-.48-.6-.63-.25-.14-.52-.22-.81-.22s-.56.07-.81.21c-.25.14-.45.35-.6.62-.15.27-.23.59-.23.97s.08.7.23.98c.15.28.36.5.61.64.25.15.52.22.8.22s.56-.07.81-.22c.25-.14.45-.36.6-.63s.23-.6.23-.98-.08-.7-.23-.97Z"/>
    <path class="cls-1" d="M258.94,175.66c.23-.42.53-.74.92-.98s.82-.35,1.29-.35c.43,0,.8.08,1.12.25.32.17.57.38.76.62v-.79h1.13v5.41h-1.13v-.81c-.19.26-.45.47-.78.64-.33.17-.7.26-1.12.26-.46,0-.89-.12-1.28-.36-.39-.24-.69-.57-.92-1-.23-.43-.34-.92-.34-1.46s.11-1.02.34-1.44ZM262.8,176.15c-.15-.27-.36-.48-.6-.63-.25-.14-.52-.22-.81-.22s-.56.07-.81.21c-.25.14-.45.35-.6.62-.15.27-.23.59-.23.97s.08.7.23.98c.15.28.36.5.61.64.25.15.52.22.8.22s.56-.07.81-.22c.25-.14.45-.36.6-.63s.23-.6.23-.98-.08-.7-.23-.97Z"/>
    <path class="cls-1" d="M272.3,178.44h-2.86l-.49,1.39h-1.17l2.45-6.84h1.3l2.45,6.84h-1.18l-.49-1.39ZM271.99,177.53l-1.11-3.17-1.12,3.17h2.23Z"/>
    <path class="cls-1" d="M275,175.65c.23-.42.54-.75.94-.98.4-.23.86-.34,1.38-.34.65,0,1.2.16,1.63.47.43.31.72.75.87,1.33h-1.21c-.1-.27-.26-.48-.47-.63-.22-.15-.49-.23-.81-.23-.46,0-.82.16-1.1.49-.27.32-.41.78-.41,1.36s.14,1.04.41,1.37c.27.33.64.49,1.1.49.65,0,1.08-.29,1.29-.85h1.21c-.16.55-.45.99-.88,1.31-.43.32-.97.49-1.61.49-.52,0-.98-.12-1.38-.35-.4-.23-.71-.56-.94-.98-.23-.42-.34-.91-.34-1.47s.11-1.05.34-1.47Z"/>
    <path class="cls-1" d="M280.89,175.66c.23-.42.53-.74.92-.98s.82-.35,1.29-.35c.43,0,.8.08,1.12.25.32.17.57.38.76.62v-.79h1.13v5.41h-1.13v-.81c-.19.26-.45.47-.78.64-.33.17-.7.26-1.12.26-.46,0-.89-.12-1.28-.36-.39-.24-.69-.57-.92-1-.23-.43-.34-.92-.34-1.46s.11-1.02.34-1.44ZM284.75,176.15c-.15-.27-.36-.48-.6-.63-.25-.14-.52-.22-.81-.22s-.56.07-.81.21c-.25.14-.45.35-.6.62-.15.27-.23.59-.23.97s.08.7.23.98c.15.28.36.5.61.64.25.15.52.22.8.22s.56-.07.81-.22c.25-.14.45-.36.6-.63s.23-.6.23-.98-.08-.7-.23-.97Z"/>
    <path class="cls-1" d="M287.55,175.66c.23-.42.53-.74.92-.98s.82-.35,1.3-.35c.35,0,.7.08,1.05.23s.62.36.82.61v-2.61h1.13v7.27h-1.13v-.82c-.18.26-.44.48-.76.65-.32.17-.7.26-1.12.26-.47,0-.9-.12-1.29-.36-.39-.24-.7-.57-.92-1-.23-.43-.34-.92-.34-1.46s.11-1.02.34-1.44ZM291.41,176.15c-.15-.27-.36-.48-.6-.63-.25-.14-.52-.22-.81-.22s-.56.07-.81.21c-.25.14-.45.35-.6.62-.15.27-.23.59-.23.97s.08.7.23.98c.15.28.36.5.61.64.25.15.52.22.8.22s.56-.07.81-.22c.25-.14.45-.36.6-.63s.23-.6.23-.98-.08-.7-.23-.97Z"/>
    <path class="cls-1" d="M299.17,177.55h-4.14c.03.43.19.78.48,1.04.29.26.64.39,1.06.39.6,0,1.03-.25,1.28-.76h1.21c-.16.5-.46.91-.89,1.22-.43.32-.96.48-1.6.48-.52,0-.98-.12-1.39-.35-.41-.23-.73-.56-.96-.98-.23-.42-.35-.91-.35-1.47s.11-1.05.34-1.47c.23-.42.54-.75.95-.98.41-.23.88-.34,1.41-.34s.97.11,1.37.33.71.54.93.94.33.87.33,1.39c0,.2-.01.39-.04.55ZM298.04,176.64c0-.41-.15-.74-.44-.99-.29-.25-.65-.37-1.07-.37-.39,0-.72.12-.99.37-.27.25-.44.58-.49,1h3Z"/>
    <path class="cls-1" d="M308,174.6c.34.18.6.44.8.79.19.35.29.77.29,1.26v3.19h-1.11v-3.03c0-.48-.12-.86-.36-1.11s-.57-.39-.99-.39-.75.13-1,.39-.37.63-.37,1.11v3.03h-1.11v-3.03c0-.48-.12-.86-.36-1.11-.24-.26-.57-.39-.99-.39s-.75.13-1,.39-.37.63-.37,1.11v3.03h-1.12v-5.41h1.12v.62c.18-.22.42-.4.7-.52.28-.12.58-.19.9-.19.43,0,.82.09,1.16.27.34.18.6.45.79.8.16-.33.42-.59.77-.78.35-.19.72-.29,1.12-.29.43,0,.81.09,1.14.26Z"/>
    <path class="cls-1" d="M310.57,173.5c-.14-.14-.21-.31-.21-.51s.07-.37.21-.51c.14-.14.31-.21.51-.21s.36.07.5.21c.14.14.21.31.21.51s-.07.37-.21.51c-.14.14-.3.21-.5.21s-.37-.07-.51-.21ZM311.63,174.42v5.41h-1.12v-5.41h1.12Z"/>
    <path class="cls-1" d="M313.07,175.66c.23-.42.53-.74.92-.98s.82-.35,1.29-.35c.43,0,.8.08,1.12.25.32.17.57.38.76.62v-.79h1.13v5.41h-1.13v-.81c-.19.26-.45.47-.78.64-.33.17-.7.26-1.12.26-.46,0-.89-.12-1.28-.36-.39-.24-.69-.57-.92-1-.23-.43-.34-.92-.34-1.46s.11-1.02.34-1.44ZM316.93,176.15c-.15-.27-.36-.48-.6-.63-.25-.14-.52-.22-.81-.22s-.56.07-.81.21c-.25.14-.45.35-.6.62-.15.27-.23.59-.23.97s.08.7.23.98c.15.28.36.5.61.64.25.15.52.22.8.22s.56-.07.81-.22c.25-.14.45-.36.6-.63s.23-.6.23-.98-.08-.7-.23-.97Z"/>
    <path class="cls-1" d="M328.2,173.01l-2.56,6.83h-1.3l-2.57-6.83h1.2l2.02,5.68,2.03-5.68h1.18Z"/>
    <path class="cls-1" d="M329.19,173.5c-.14-.14-.21-.31-.21-.51s.07-.37.21-.51c.14-.14.31-.21.51-.21s.36.07.5.21c.14.14.21.31.21.51s-.07.37-.21.51c-.14.14-.3.21-.5.21s-.37-.07-.51-.21ZM330.25,174.42v5.41h-1.12v-5.41h1.12Z"/>
    <path class="cls-1" d="M332.85,172.57v7.27h-1.12v-7.27h1.12Z"/>
    <path class="cls-1" d="M335.44,172.57v7.27h-1.12v-7.27h1.12Z"/>
    <path class="cls-1" d="M336.88,175.66c.23-.42.53-.74.92-.98s.82-.35,1.29-.35c.43,0,.8.08,1.12.25.32.17.57.38.76.62v-.79h1.13v5.41h-1.13v-.81c-.19.26-.45.47-.78.64-.33.17-.7.26-1.12.26-.46,0-.89-.12-1.28-.36-.39-.24-.69-.57-.92-1-.23-.43-.34-.92-.34-1.46s.11-1.02.34-1.44ZM340.74,176.15c-.15-.27-.36-.48-.6-.63-.25-.14-.52-.22-.81-.22s-.56.07-.81.21c-.25.14-.45.35-.6.62-.15.27-.23.59-.23.97s.08.7.23.98c.15.28.36.5.61.64.25.15.52.22.8.22s.56-.07.81-.22c.25-.14.45-.36.6-.63s.23-.6.23-.98-.08-.7-.23-.97Z"/>
    <path class="cls-1" d="M345.67,178.83l1.53-4.41h1.19l-2.06,5.41h-1.34l-2.05-5.41h1.2l1.53,4.41Z"/>
    <path class="cls-1" d="M349.29,173.5c-.14-.14-.21-.31-.21-.51s.07-.37.21-.51c.14-.14.31-.21.51-.21s.36.07.5.21c.14.14.21.31.21.51s-.07.37-.21.51c-.14.14-.3.21-.5.21s-.37-.07-.51-.21ZM350.35,174.42v5.41h-1.12v-5.41h1.12Z"/>
    <path class="cls-1" d="M352.64,179.69c-.34-.15-.6-.36-.8-.63-.2-.26-.3-.56-.31-.89h1.16c.02.23.13.42.33.58.2.15.45.23.75.23s.56-.06.73-.18.26-.28.26-.47c0-.2-.1-.35-.29-.45-.19-.1-.5-.21-.92-.32-.41-.11-.74-.22-.99-.32-.26-.11-.48-.27-.66-.48-.19-.22-.28-.5-.28-.85,0-.29.08-.55.26-.79s.41-.43.73-.56c.32-.14.68-.21,1.1-.21.62,0,1.11.16,1.49.47.38.31.58.74.6,1.27h-1.12c-.02-.24-.12-.44-.29-.58-.18-.14-.42-.22-.72-.22s-.52.06-.68.17-.24.26-.24.44c0,.14.05.26.16.36.1.1.23.17.38.23.15.06.37.13.67.21.39.11.72.21.97.32.25.11.47.27.65.48.18.21.28.49.28.83,0,.31-.08.58-.26.83s-.41.43-.72.57-.68.21-1.1.21-.81-.08-1.14-.23Z"/>
    <path class="cls-1" d="M358.38,175.34v3c0,.2.05.35.14.44.09.09.26.13.49.13h.69v.93h-.88c-.5,0-.89-.12-1.16-.35-.27-.24-.4-.62-.4-1.15v-3h-.64v-.91h.64v-1.35h1.13v1.35h1.32v.91h-1.32Z"/>
    <path class="cls-1" d="M360.69,175.66c.23-.42.53-.74.92-.98s.82-.35,1.29-.35c.43,0,.8.08,1.12.25.32.17.57.38.76.62v-.79h1.13v5.41h-1.13v-.81c-.19.26-.45.47-.78.64-.33.17-.7.26-1.12.26-.46,0-.89-.12-1.28-.36-.39-.24-.69-.57-.92-1-.23-.43-.34-.92-.34-1.46s.11-1.02.34-1.44ZM364.55,176.15c-.15-.27-.36-.48-.6-.63-.25-.14-.52-.22-.81-.22s-.56.07-.81.21c-.25.14-.45.35-.6.62-.15.27-.23.59-.23.97s.08.7.23.98c.15.28.36.5.61.64.25.15.52.22.8.22s.56-.07.81-.22c.25-.14.45-.36.6-.63s.23-.6.23-.98-.08-.7-.23-.97Z"/>
  </g>
</svg>